<svg xmlns="http://www.w3.org/2000/svg" xmlns:xlink="http://www.w3.org/1999/xlink" width="500" zoomAndPan="magnify" viewBox="0 0 375 374.999991" height="500" preserveAspectRatio="xMidYMid meet" version="1.0"><defs><clipPath id="b5f815cff0"><path d="M 67.140625 85 L 258 85 L 258 278 L 67.140625 278 Z M 67.140625 85 " clip-rule="nonzero"/></clipPath><clipPath id="50406d4860"><path d="M 196 177 L 307.890625 177 L 307.890625 289 L 196 289 Z M 196 177 " clip-rule="nonzero"/></clipPath></defs><g clip-path="url(#b5f815cff0)"><path fill="#000000" d="M 124.113281 85.445312 C 119.4375 85.445312 115.660156 89.210938 115.660156 93.902344 L 115.660156 122.691406 C 115.660156 127.375 119.4375 131.144531 124.113281 131.144531 C 128.804688 131.144531 132.585938 127.378906 132.585938 122.691406 L 132.585938 112.875 C 136.453125 115.609375 138.769531 120.050781 138.769531 124.804688 C 138.769531 132.886719 132.207031 139.4375 124.113281 139.4375 C 116.023438 139.4375 109.457031 132.886719 109.457031 124.804688 L 109.457031 100.617188 L 99.085938 100.617188 C 93.308594 100.617188 87.804688 102.078125 83.507812 105.484375 C 79.1875 108.910156 76.464844 114.21875 75.890625 120.285156 L 67.425781 253.515625 C 67.046875 259.640625 68.40625 265.558594 72.050781 270.035156 C 75.691406 274.503906 81.46875 277.308594 87.855469 277.308594 L 203.546875 277.308594 C 200.050781 273.457031 196.964844 269.226562 194.46875 264.644531 L 89.285156 264.644531 C 86.167969 264.644531 84.277344 263.5625 82.851562 261.808594 C 81.425781 260.074219 80.667969 257.433594 80.847656 254.074219 L 86.214844 150.125 L 244.417969 150.125 L 245.347656 168.167969 C 247.582031 167.9375 249.847656 167.824219 252.148438 167.824219 C 254.015625 167.824219 255.902344 167.921875 257.769531 168.066406 L 254.738281 120.289062 C 254.144531 114.222656 251.4375 108.914062 247.121094 105.488281 C 242.824219 102.082031 237.324219 100.621094 231.542969 100.621094 L 214.96875 100.621094 L 214.96875 93.90625 C 214.96875 89.214844 211.191406 85.449219 206.5 85.449219 C 201.824219 85.449219 198.050781 89.214844 198.050781 93.90625 L 198.050781 122.691406 C 198.050781 127.375 201.824219 131.144531 206.5 131.144531 C 211.191406 131.144531 214.96875 127.378906 214.96875 122.691406 L 214.96875 112.875 C 218.84375 115.609375 221.15625 120.050781 221.171875 124.804688 C 221.171875 132.886719 214.605469 139.4375 206.5 139.4375 C 198.40625 139.4375 191.84375 132.886719 191.84375 124.804688 L 191.84375 100.617188 L 132.585938 100.617188 L 132.585938 93.902344 C 132.585938 89.214844 128.804688 85.445312 124.113281 85.445312 Z M 124.113281 85.445312 " fill-opacity="1" fill-rule="evenodd"/></g><g clip-path="url(#50406d4860)"><path fill="#000000" d="M 252.148438 177.875 C 221.46875 177.875 196.605469 202.734375 196.605469 233.40625 C 196.605469 264.066406 221.472656 288.925781 252.148438 288.925781 C 266.867188 288.925781 281 283.089844 291.402344 272.671875 C 301.808594 262.246094 307.664062 248.140625 307.664062 233.40625 C 307.664062 218.679688 301.804688 204.550781 291.402344 194.132812 C 281 183.726562 266.867188 177.875 252.148438 177.875 Z M 252.148438 191.613281 C 263.222656 191.613281 273.863281 196.015625 281.6875 203.851562 C 289.53125 211.703125 293.929688 222.316406 293.929688 233.410156 C 293.929688 244.488281 289.53125 255.121094 281.6875 262.957031 C 273.863281 270.804688 263.222656 275.195312 252.148438 275.195312 C 229.050781 275.195312 210.339844 256.484375 210.339844 233.414062 C 210.34375 210.320312 229.050781 191.613281 252.148438 191.613281 Z M 252.148438 191.613281 " fill-opacity="1" fill-rule="evenodd"/></g><path fill="#000000" d="M 108.410156 171.667969 L 129.433594 171.667969 C 132.519531 171.667969 135.015625 174.140625 135.015625 177.222656 L 135.015625 193.605469 C 135.015625 196.6875 132.519531 199.160156 129.433594 199.160156 L 108.410156 199.160156 C 105.320312 199.160156 102.824219 196.683594 102.824219 193.605469 L 102.824219 177.222656 C 102.824219 174.140625 105.320312 171.667969 108.410156 171.667969 Z M 108.410156 171.667969 " fill-opacity="1" fill-rule="evenodd"/><path fill="#000000" d="M 154.808594 171.667969 L 175.828125 171.667969 C 178.917969 171.667969 181.414062 174.140625 181.414062 177.222656 L 181.414062 193.605469 C 181.414062 196.6875 178.917969 199.160156 175.828125 199.160156 L 154.808594 199.160156 C 151.71875 199.160156 149.222656 196.683594 149.222656 193.605469 L 149.222656 177.222656 C 149.222656 174.140625 151.71875 171.667969 154.808594 171.667969 Z M 154.808594 171.667969 " fill-opacity="1" fill-rule="evenodd"/><path fill="#000000" d="M 201.203125 171.667969 C 198.117188 171.667969 195.621094 174.140625 195.621094 177.222656 L 195.621094 193.605469 C 195.621094 195.144531 196.246094 196.554688 197.261719 197.558594 C 204.269531 186.890625 214.28125 178.367188 226.097656 173.242188 C 225.101562 172.273438 223.738281 171.667969 222.226562 171.667969 Z M 201.203125 171.667969 " fill-opacity="1" fill-rule="evenodd"/><path fill="#000000" d="M 108.410156 215.597656 L 129.433594 215.597656 C 132.519531 215.597656 135.015625 218.089844 135.015625 221.167969 L 135.015625 237.542969 C 135.015625 240.621094 132.519531 243.113281 129.433594 243.113281 L 108.410156 243.113281 C 105.320312 243.113281 102.824219 240.621094 102.824219 237.542969 L 102.824219 221.167969 C 102.824219 218.089844 105.320312 215.597656 108.410156 215.597656 Z M 108.410156 215.597656 " fill-opacity="1" fill-rule="evenodd"/><path fill="#000000" d="M 154.808594 215.597656 L 175.828125 215.597656 C 178.917969 215.597656 181.414062 218.089844 181.414062 221.167969 L 181.414062 237.542969 C 181.414062 240.621094 178.917969 243.113281 175.828125 243.113281 L 154.808594 243.113281 C 151.71875 243.113281 149.222656 240.621094 149.222656 237.542969 L 149.222656 221.167969 C 149.222656 218.089844 151.71875 215.597656 154.808594 215.597656 Z M 154.808594 215.597656 " fill-opacity="1" fill-rule="evenodd"/><path fill="#000000" d="M 251.652344 197.949219 C 249.191406 197.984375 247.222656 200.011719 247.253906 202.46875 L 247.304688 235.191406 L 265.324219 253.101562 C 267.0625 254.886719 269.953125 254.902344 271.710938 253.117188 C 273.46875 251.347656 273.417969 248.476562 271.613281 246.757812 L 256.21875 231.46875 L 256.183594 202.449219 C 256.214844 199.949219 254.164062 197.90625 251.652344 197.949219 Z M 251.652344 197.949219 " fill-opacity="1" fill-rule="nonzero"/></svg>