<svg xmlns="http://www.w3.org/2000/svg" xmlns:xlink="http://www.w3.org/1999/xlink" width="500" zoomAndPan="magnify" viewBox="0 0 375 374.999991" height="500" preserveAspectRatio="xMidYMid meet" version="1.0"><defs><clipPath id="48c2ce89a8"><path d="M 53.238281 284.15625 L 164 284.15625 L 164 348.746094 L 53.238281 348.746094 Z M 53.238281 284.15625 " clip-rule="nonzero"/></clipPath><clipPath id="1867e89b56"><path d="M 53.238281 284.15625 L 162.535156 284.15625 L 162.535156 347 L 53.238281 347 Z M 53.238281 284.15625 " clip-rule="nonzero"/></clipPath><clipPath id="61f60b7d01"><path d="M 72.132812 241 L 211 241 L 211 366.761719 L 72.132812 366.761719 Z M 72.132812 241 " clip-rule="nonzero"/></clipPath><clipPath id="738c062581"><path d="M 175 71 L 315.902344 71 L 315.902344 332.554688 L 175 332.554688 Z M 175 71 " clip-rule="nonzero"/></clipPath><clipPath id="d34f9266f0"><path d="M 175 72.132812 L 315.902344 72.132812 L 315.902344 331.203125 L 175 331.203125 Z M 175 72.132812 " clip-rule="nonzero"/></clipPath></defs><g clip-path="url(#48c2ce89a8)"><path fill="#ffffff" d="M 163.84375 347.746094 L 163.707031 348.011719 C 154.039062 340.675781 144.382812 333.355469 132.273438 325.027344 C 120.132812 316.695312 105.554688 307.363281 92.011719 301.847656 C 78.472656 296.320312 65.972656 294.597656 53.441406 292.871094 C 53.378906 292.871094 53.324219 292.816406 53.3125 292.753906 C 53.304688 292.691406 53.335938 292.628906 53.386719 292.589844 C 60.328125 288.816406 67.3125 285.011719 73.332031 284.292969 C 79.363281 283.585938 84.40625 285.964844 90.394531 288.875 C 96.394531 291.789062 103.386719 295.253906 108.996094 298.425781 C 114.609375 301.609375 118.847656 304.492188 124.867188 309.308594 C 130.875 314.132812 138.6875 320.875 145.464844 327.609375 C 152.257812 334.339844 158.019531 341.050781 163.78125 347.753906 C 163.832031 347.820312 163.832031 347.914062 163.769531 347.964844 C 163.707031 348.023438 163.613281 348.011719 163.554688 347.945312 C 157.78125 341.246094 152.03125 334.546875 145.253906 327.832031 C 138.480469 321.109375 130.679688 314.359375 124.671875 309.550781 C 118.664062 304.738281 114.445312 301.867188 108.847656 298.695312 C 103.246094 295.53125 96.25 292.070312 90.261719 289.148438 C 84.253906 286.234375 79.289062 283.898438 73.363281 284.605469 C 67.417969 285.3125 60.5 289.074219 53.535156 292.859375 L 53.484375 292.570312 C 66.007812 294.296875 78.546875 296.023438 92.128906 301.554688 C 105.699219 307.101562 120.308594 316.4375 132.441406 324.769531 C 144.5625 333.109375 154.230469 340.445312 163.886719 347.765625 L 163.886719 347.777344 C 163.953125 347.820312 163.964844 347.890625 163.933594 347.964844 C 163.898438 348.035156 163.824219 348.066406 163.75 348.046875 C 163.675781 348.011719 163.632812 347.925781 163.65625 347.851562 C 163.675781 347.765625 163.757812 347.722656 163.84375 347.746094 Z M 163.84375 347.746094 " fill-opacity="1" fill-rule="nonzero"/></g><g clip-path="url(#1867e89b56)"><path fill="#ffffff" d="M 53.945312 292.617188 L 53.945312 292.636719 Z M 75.488281 284.445312 C 74.792969 284.445312 74.085938 284.488281 73.363281 284.574219 C 67.53125 285.257812 60.757812 288.894531 53.9375 292.601562 C 53.925781 292.601562 53.925781 292.617188 53.925781 292.617188 C 53.914062 292.617188 53.914062 292.628906 53.914062 292.636719 C 53.914062 292.648438 53.914062 292.660156 53.925781 292.667969 C 53.9375 292.667969 53.9375 292.667969 53.945312 292.667969 C 66.316406 294.371094 78.707031 296.121094 92.117188 301.585938 C 105.691406 307.121094 120.296875 316.46875 132.417969 324.800781 C 143.953125 332.722656 153.253906 339.742188 162.453125 346.710938 C 162.453125 346.722656 162.464844 346.722656 162.472656 346.722656 C 162.472656 346.722656 162.484375 346.722656 162.484375 346.722656 C 162.496094 346.710938 162.503906 346.703125 162.503906 346.691406 L 162.496094 346.667969 C 157.085938 340.386719 151.625 334.105469 145.273438 327.800781 C 138.5 321.078125 130.699219 314.339844 124.691406 309.519531 C 118.6875 304.707031 114.457031 301.835938 108.859375 298.671875 C 103.253906 295.5 96.269531 292.035156 90.273438 289.117188 C 85.007812 286.554688 80.523438 284.445312 75.488281 284.445312 Z M 75.488281 284.445312 " fill-opacity="1" fill-rule="nonzero"/></g><g clip-path="url(#61f60b7d01)"><path fill="#ffffff" d="M 210.589844 366.472656 L 210.445312 366.742188 C 200.820312 360.984375 191.183594 355.238281 174.746094 340.398438 C 169.941406 336.070312 164.566406 330.960938 158.898438 325.589844 C 152.601562 319.609375 145.949219 313.304688 139.359375 307.355469 C 131.570312 300.332031 123.871094 293.8125 116.90625 288.925781 C 98.738281 276.167969 85.597656 274.527344 72.441406 272.878906 C 72.390625 272.878906 72.335938 272.835938 72.316406 272.789062 C 72.292969 272.734375 72.304688 272.683594 72.335938 272.640625 C 74.148438 270.183594 75.953125 267.738281 78.097656 264.011719 C 78.410156 263.464844 78.730469 262.894531 79.0625 262.292969 C 80.960938 258.839844 82.988281 254.691406 84.480469 251.324219 C 84.726562 250.78125 84.964844 250.246094 85.175781 249.738281 C 85.382812 249.269531 85.585938 248.816406 85.765625 248.390625 C 86.167969 247.5 86.542969 246.6875 86.9375 245.964844 C 87.621094 244.71875 88.363281 243.734375 89.328125 243.082031 C 91.421875 241.691406 94.542969 241.835938 97.578125 241.980469 C 97.667969 241.980469 97.730469 242.042969 97.730469 242.128906 C 97.699219 243.578125 97.679688 244.957031 98.953125 246.179688 C 99.84375 247.027344 101.347656 247.796875 103.460938 248.882812 C 104.445312 249.386719 105.574219 249.964844 106.820312 250.640625 C 110.703125 252.765625 115.789062 255.90625 120.867188 259.046875 L 120.875 259.046875 C 127.613281 263.871094 134.347656 268.691406 141.296875 274.652344 C 148.222656 280.613281 155.359375 287.703125 163.40625 298.476562 C 171.464844 309.242188 180.429688 323.695312 185.746094 332.273438 L 186.335938 333.230469 L 186.871094 334.082031 C 191.3125 341.257812 192.964844 343.890625 196.238281 348.265625 C 199.765625 352.996094 205.183594 359.75 210.589844 366.503906 C 210.648438 366.574219 210.640625 366.667969 210.570312 366.71875 C 210.507812 366.773438 210.414062 366.761719 210.359375 366.699219 C 204.941406 359.941406 199.523438 353.179688 195.992188 348.449219 C 192.71875 344.066406 191.058594 341.417969 186.613281 334.246094 L 186.078125 333.386719 L 185.484375 332.433594 C 180.171875 323.855469 171.207031 309.414062 163.160156 298.664062 C 155.121094 287.910156 148.011719 280.832031 141.089844 274.890625 C 134.167969 268.941406 127.433594 264.117188 120.691406 259.304688 L 120.703125 259.304688 C 115.617188 256.164062 110.539062 253.023438 106.671875 250.910156 C 105.4375 250.234375 104.308594 249.652344 103.324219 249.148438 C 101.230469 248.078125 99.671875 247.28125 98.75 246.40625 C 97.367188 245.074219 97.398438 243.566406 97.421875 242.128906 L 97.566406 242.28125 C 94.488281 242.136719 91.484375 242.011719 89.503906 243.339844 C 88.59375 243.949219 87.878906 244.882812 87.207031 246.117188 C 86.820312 246.824219 86.445312 247.613281 86.046875 248.503906 C 85.867188 248.9375 85.660156 249.386719 85.457031 249.859375 C 85.246094 250.371094 85.007812 250.898438 84.761719 251.457031 C 83.269531 254.820312 81.226562 258.984375 79.332031 262.445312 C 79 263.046875 78.675781 263.609375 78.367188 264.160156 C 76.210938 267.902344 74.398438 270.367188 72.585938 272.8125 L 72.472656 272.578125 C 85.652344 274.226562 98.859375 275.875 117.085938 288.667969 C 124.058594 293.570312 131.777344 300.097656 139.566406 307.121094 C 146.164062 313.082031 152.816406 319.398438 159.117188 325.371094 C 164.777344 330.742188 170.152344 335.84375 174.949219 340.175781 C 191.367188 354.992188 200.984375 360.726562 210.601562 366.472656 C 210.671875 366.515625 210.703125 366.613281 210.660156 366.6875 C 210.613281 366.75 210.519531 366.785156 210.453125 366.742188 C 210.378906 366.699219 210.347656 366.605469 210.390625 366.523438 C 210.433594 366.460938 210.519531 366.429688 210.589844 366.472656 Z M 210.589844 366.472656 " fill-opacity="1" fill-rule="nonzero"/></g><path fill="#ffffff" d="M 94.800781 242.148438 C 92.75 242.148438 90.875 242.363281 89.484375 243.296875 C 88.558594 243.917969 87.839844 244.863281 87.164062 246.097656 C 86.777344 246.800781 86.398438 247.601562 86.003906 248.484375 L 86.003906 248.496094 C 85.820312 248.925781 85.617188 249.375 85.414062 249.839844 L 85.414062 249.847656 C 85.1875 250.351562 84.964844 250.886719 84.71875 251.433594 C 83.226562 254.796875 81.1875 258.960938 79.289062 262.425781 C 78.96875 263.011719 78.636719 263.589844 78.324219 264.136719 C 76.230469 267.773438 74.460938 270.195312 72.699219 272.578125 C 72.691406 272.597656 72.691406 272.609375 72.691406 272.628906 C 72.699219 272.640625 72.710938 272.652344 72.730469 272.652344 C 85.820312 274.289062 98.953125 276.007812 117.054688 288.710938 C 124.039062 293.613281 131.746094 300.136719 139.535156 307.164062 C 146.132812 313.113281 152.785156 319.429688 159.085938 325.402344 C 164.746094 330.78125 170.121094 335.886719 174.917969 340.207031 C 190.882812 354.617188 200.414062 360.4375 209.78125 366.035156 C 209.78125 366.046875 209.789062 366.046875 209.800781 366.046875 C 209.8125 366.046875 209.8125 366.046875 209.820312 366.035156 C 209.832031 366.035156 209.84375 366.015625 209.84375 365.992188 C 209.84375 365.980469 209.84375 365.972656 209.832031 365.972656 C 204.609375 359.441406 199.445312 352.984375 196.023438 348.417969 C 192.75 344.035156 191.101562 341.398438 186.65625 334.226562 L 186.644531 334.226562 L 186.117188 333.355469 L 185.527344 332.410156 L 185.527344 332.402344 C 180.21875 323.835938 171.25 309.394531 163.199219 298.628906 C 155.152344 287.871094 148.042969 280.800781 141.121094 274.847656 C 134.199219 268.910156 127.476562 264.097656 120.734375 259.273438 C 120.734375 259.273438 120.734375 259.273438 120.722656 259.257812 C 115.648438 256.121094 110.578125 252.992188 106.691406 250.867188 C 105.457031 250.191406 104.339844 249.621094 103.34375 249.105469 C 103.34375 249.105469 103.335938 249.105469 103.335938 249.105469 C 103.335938 249.105469 103.335938 249.105469 103.3125 249.09375 C 103.296875 249.085938 103.296875 249.085938 103.285156 249.085938 C 101.222656 248.023438 99.683594 247.230469 98.78125 246.363281 C 97.460938 245.109375 97.441406 243.671875 97.460938 242.28125 C 97.460938 242.28125 97.460938 242.265625 97.460938 242.265625 C 97.460938 242.242188 97.441406 242.222656 97.421875 242.222656 C 96.53125 242.179688 95.648438 242.148438 94.800781 242.148438 Z M 94.800781 242.148438 " fill-opacity="1" fill-rule="nonzero"/><path fill="#ffffff" d="M 97.867188 242.222656 L 97.578125 242.160156 C 100.703125 236.1875 103.824219 230.214844 107.605469 223.441406 C 108.40625 222.003906 109.234375 220.523438 110.089844 219.023438 C 110.972656 217.46875 111.875 215.871094 112.765625 214.261719 C 115.082031 210.121094 117.386719 205.859375 119.449219 201.597656 C 122.785156 194.714844 125.425781 187.878906 127.507812 182.507812 C 127.6875 182.042969 127.882812 181.566406 128.054688 181.121094 C 130.210938 175.570312 131.703125 171.902344 133.195312 168.234375 C 133.226562 168.160156 133.320312 168.128906 133.394531 168.160156 C 133.472656 168.191406 133.515625 168.277344 133.484375 168.355469 C 131.980469 172.019531 130.488281 175.675781 128.335938 181.234375 C 128.160156 181.671875 127.976562 182.148438 127.796875 182.625 C 125.714844 187.996094 123.0625 194.835938 119.726562 201.742188 C 117.664062 205.996094 115.335938 210.273438 113.03125 214.414062 C 112.132812 216.019531 111.230469 217.617188 110.351562 219.171875 C 109.5 220.675781 108.675781 222.15625 107.871094 223.589844 C 104.09375 230.355469 100.972656 236.328125 97.847656 242.300781 C 97.816406 242.363281 97.753906 242.394531 97.679688 242.375 C 97.617188 242.355469 97.558594 242.300781 97.558594 242.222656 C 97.558594 242.136719 97.636719 242.074219 97.722656 242.074219 C 97.792969 242.074219 97.867188 242.136719 97.867188 242.222656 Z M 97.867188 242.222656 " fill-opacity="1" fill-rule="nonzero"/><path fill="#ffffff" d="M 197.117188 350.058594 L 196.859375 349.941406 C 197.785156 349.125 198.707031 348.335938 199.453125 345.277344 C 200.207031 342.199219 200.789062 336.851562 201.378906 331.488281 C 201.378906 331.40625 201.453125 331.351562 201.535156 331.351562 C 201.625 331.363281 201.6875 331.4375 201.679688 331.519531 C 201.097656 336.871094 200.507812 342.242188 199.742188 345.351562 C 198.984375 348.472656 198.019531 349.332031 197.066406 350.164062 C 197.019531 350.210938 196.957031 350.222656 196.902344 350.199219 C 196.851562 350.164062 196.820312 350.113281 196.820312 350.058594 C 196.820312 349.972656 196.882812 349.902344 196.964844 349.902344 C 197.050781 349.902344 197.117188 349.972656 197.117188 350.058594 Z M 197.117188 350.058594 " fill-opacity="1" fill-rule="nonzero"/><path fill="#ffffff" d="M 104.308594 229.832031 C 104.257812 229.808594 104.210938 229.765625 104.210938 229.703125 L 102.777344 215.417969 L 102.785156 215.429688 C 101.8125 209.246094 100.839844 203.082031 98.226562 195.800781 C 97.277344 193.148438 96.113281 190.367188 94.800781 187.226562 C 93.121094 183.203125 91.195312 178.613281 89.203125 173.050781 C 88.46875 171 87.734375 168.824219 86.980469 166.488281 C 82.605469 152.878906 78.140625 134.070312 75.800781 121.878906 C 73.476562 109.6875 73.28125 104.097656 73.621094 100.175781 C 73.976562 96.238281 74.867188 93.980469 75.757812 91.71875 L 75.746094 91.792969 C 74.960938 86.335938 74.179688 80.859375 74.566406 76.09375 C 74.949219 71.324219 76.523438 67.292969 78.078125 63.277344 C 80.371094 57.925781 82.679688 52.574219 84.832031 48.769531 C 85.082031 48.339844 85.320312 47.941406 85.566406 47.558594 C 87.859375 43.847656 89.984375 42.15625 93.710938 39.171875 L 94.105469 38.851562 L 94.40625 38.613281 L 94.707031 38.367188 C 98.664062 35.203125 104.320312 30.734375 113.066406 26.296875 C 122.257812 21.640625 134.855469 17.035156 145.183594 14.082031 C 155.53125 11.125 163.613281 9.828125 171.6875 8.53125 C 171.699219 8.53125 171.699219 8.53125 171.707031 8.53125 C 173.609375 8.511719 175.507812 8.5 177.984375 8.753906 C 178.835938 8.855469 179.757812 8.96875 180.636719 9.097656 C 181.484375 9.207031 182.300781 9.3125 183.007812 9.386719 C 183.746094 9.476562 184.367188 9.519531 184.789062 9.488281 C 185.207031 9.453125 185.421875 9.367188 185.777344 9.195312 C 186.472656 8.886719 187.601562 8.378906 191.433594 7.789062 C 197.289062 6.898438 209.488281 5.828125 223.074219 6.492188 C 236.644531 7.167969 251.609375 9.570312 263.800781 13.40625 C 275.988281 17.246094 285.390625 22.511719 291.421875 26.554688 C 297.433594 30.597656 300.117188 33.4375 301.019531 36.777344 C 301.910156 40.117188 301.007812 43.898438 299.785156 47.675781 C 298.574219 51.457031 297.019531 55.253906 295.046875 59.167969 C 293.898438 61.441406 292.59375 63.753906 291.503906 65.714844 C 290.707031 67.132812 290.023438 68.355469 289.558594 69.269531 C 289.132812 70.113281 288.894531 70.679688 288.726562 71.085938 C 288.625 71.335938 288.554688 71.53125 288.46875 71.699219 C 288.449219 71.746094 288.425781 71.777344 288.40625 71.820312 C 288.261719 72.058594 288.105469 72.246094 287.847656 72.472656 C 287.0625 73.160156 285.3125 74.1875 283.585938 75.210938 C 283.53125 75.242188 283.476562 75.242188 283.433594 75.21875 L 283.371094 75.171875 C 280.023438 73.253906 276.675781 71.34375 273.394531 69.871094 C 270.089844 68.378906 266.847656 67.328125 263.585938 66.265625 L 263.59375 66.265625 C 257.398438 64.730469 251.203125 63.195312 245.835938 62.273438 C 240.460938 61.339844 235.902344 61.019531 232.945312 60.863281 C 229.984375 60.699219 228.617188 60.699219 227.257812 60.699219 L 227.351562 60.433594 L 233.082031 65.289062 C 233.09375 65.289062 233.101562 65.300781 233.101562 65.308594 C 233.734375 66.128906 234.367188 66.929688 237.351562 70.453125 L 237.492188 70.617188 L 237.632812 70.792969 C 240.644531 74.359375 245.730469 80.417969 246.792969 85.910156 C 247.480469 89.445312 246.492188 92.734375 244.925781 95.492188 C 243.972656 97.164062 242.792969 98.652344 241.640625 99.886719 C 238.59375 103.144531 235.671875 104.667969 232.761719 106.171875 L 232.769531 106.160156 L 232.769531 106.171875 C 229.871094 107.953125 226.980469 109.71875 224.648438 111.210938 C 222.320312 112.699219 220.570312 113.902344 219.242188 114.917969 C 218.296875 115.648438 217.582031 116.28125 216.96875 117.339844 C 216.730469 117.769531 216.503906 118.273438 216.277344 118.882812 C 215.519531 121.027344 214.910156 124.46875 214.285156 127.945312 C 213.675781 130.859375 213.0625 133.769531 212.632812 136.558594 C 212.203125 139.339844 211.957031 142.023438 211.707031 144.699219 C 211.699219 144.789062 211.625 144.851562 211.550781 144.84375 L 191.089844 143.144531 C 191.011719 143.144531 190.945312 143.070312 190.945312 142.988281 L 190.945312 142.976562 C 191.035156 141.347656 191.121094 139.773438 190.667969 138.65625 C 190.230469 137.542969 189.265625 136.878906 188.242188 136.167969 L 188.273438 136.1875 L 184.925781 134.945312 L 184.917969 134.945312 L 184.894531 134.933594 C 182.925781 134.039062 180.957031 133.136719 179.019531 132.425781 C 177.074219 131.730469 175.144531 131.21875 173.210938 130.699219 L 173.40625 130.527344 L 174.167969 135.074219 C 174.179688 135.140625 174.160156 135.203125 174.089844 135.234375 C 174.039062 135.265625 173.976562 135.253906 173.921875 135.210938 C 173.117188 134.515625 172.296875 133.800781 171.550781 132.746094 C 171.238281 132.308594 170.929688 131.8125 170.597656 131.28125 C 170.164062 130.585938 169.683594 129.789062 169.042969 128.886719 C 168.960938 128.792969 168.886719 128.6875 168.804688 128.578125 C 167.511719 126.832031 165.625 124.730469 162.609375 122.925781 C 159.597656 121.125 155.480469 119.660156 151.285156 120.675781 C 147.625 121.554688 143.878906 124.355469 141.195312 129.070312 C 140.808594 129.746094 140.445312 130.472656 140.105469 131.238281 C 137.410156 137.261719 136.335938 145.796875 137.578125 153.203125 C 138.824219 160.613281 142.398438 166.917969 147.152344 173.074219 C 151.917969 179.222656 157.835938 185.207031 162.652344 187.789062 C 167.449219 190.367188 171.15625 189.5625 173.609375 188.585938 C 176.066406 187.609375 177.269531 186.460938 178.480469 185.292969 C 178.523438 185.25 178.585938 185.238281 178.640625 185.257812 C 178.699219 185.28125 178.738281 185.339844 178.738281 185.390625 L 178.929688 187.933594 C 178.929688 187.972656 178.910156 188.027344 178.867188 188.058594 C 176.761719 189.632812 174.640625 191.222656 172.152344 192.253906 C 169.640625 193.28125 166.765625 193.742188 162.664062 192.253906 C 158.578125 190.761719 153.265625 187.332031 148.148438 183.019531 C 143.039062 178.722656 138.117188 173.53125 133.203125 168.355469 C 133.148438 168.289062 133.148438 168.191406 133.214844 168.140625 C 133.269531 168.078125 133.363281 168.078125 133.425781 168.140625 C 138.34375 173.316406 143.257812 178.496094 148.351562 182.792969 C 153.449219 187.082031 158.726562 190.492188 162.761719 191.964844 C 166.796875 193.429688 169.585938 192.972656 172.03125 191.976562 C 174.480469 190.953125 176.574219 189.386719 178.6875 187.8125 L 178.617188 187.953125 L 178.4375 185.421875 L 178.699219 185.519531 C 177.472656 186.6875 176.234375 187.878906 173.714844 188.875 C 171.207031 189.871094 167.398438 190.6875 162.503906 188.058594 C 157.636719 185.445312 151.679688 179.417969 146.914062 173.253906 C 142.136719 167.082031 138.535156 160.730469 137.277344 153.261719 C 136.023438 145.785156 137.109375 137.199219 139.824219 131.105469 C 140.167969 130.335938 140.542969 129.605469 140.9375 128.917969 C 143.652344 124.148438 147.453125 121.285156 151.203125 120.375 C 155.511719 119.328125 159.726562 120.847656 162.773438 122.667969 C 165.832031 124.492188 167.738281 126.625 169.050781 128.398438 C 169.136719 128.503906 169.210938 128.609375 169.285156 128.71875 C 169.941406 129.613281 170.421875 130.421875 170.855469 131.117188 C 171.195312 131.664062 171.488281 132.148438 171.796875 132.566406 C 172.523438 133.59375 173.320312 134.28125 174.121094 134.992188 L 173.871094 135.128906 L 173.105469 130.585938 C 173.09375 130.527344 173.117188 130.472656 173.15625 130.441406 C 173.1875 130.410156 173.242188 130.390625 173.300781 130.410156 C 175.230469 130.917969 177.160156 131.429688 179.125 132.148438 C 181.074219 132.855469 183.050781 133.757812 185.027344 134.652344 L 185.046875 134.667969 L 185.039062 134.667969 L 188.386719 135.898438 C 188.394531 135.898438 188.40625 135.910156 188.417969 135.925781 C 189.414062 136.609375 190.476562 137.328125 190.957031 138.539062 C 191.433594 139.742188 191.347656 141.390625 191.257812 142.988281 L 191.257812 143.007812 L 191.121094 142.851562 L 211.570312 144.542969 L 211.410156 144.667969 C 211.65625 141.992188 211.902344 139.308594 212.332031 136.507812 C 212.761719 133.710938 213.375 130.796875 213.984375 127.882812 L 213.984375 127.890625 C 214.609375 124.429688 215.230469 120.953125 215.988281 118.777344 C 216.214844 118.15625 216.453125 117.640625 216.710938 117.191406 C 217.34375 116.0625 218.101562 115.410156 219.054688 114.671875 C 220.402344 113.644531 222.160156 112.441406 224.484375 110.949219 C 226.816406 109.460938 229.714844 107.683594 232.609375 105.910156 L 232.609375 105.902344 L 232.617188 105.902344 C 235.527344 104.386719 238.40625 102.902344 241.421875 99.671875 C 242.554688 98.449219 243.714844 96.992188 244.65625 95.34375 C 246.207031 92.617188 247.160156 89.414062 246.492188 85.960938 C 245.453125 80.570312 240.429688 74.578125 237.394531 70.992188 L 237.257812 70.824219 L 237.113281 70.660156 C 234.132812 67.132812 233.5 66.316406 232.867188 65.496094 L 232.886719 65.515625 L 227.148438 60.667969 C 227.105469 60.625 227.085938 60.5625 227.105469 60.496094 C 227.125 60.445312 227.1875 60.398438 227.257812 60.398438 C 228.617188 60.398438 229.992188 60.386719 232.964844 60.550781 C 235.933594 60.707031 240.5 61.046875 245.890625 61.964844 C 251.265625 62.894531 257.480469 64.441406 263.667969 65.972656 L 263.683594 65.972656 C 266.933594 67.027344 270.195312 68.089844 273.519531 69.589844 C 276.816406 71.078125 280.171875 73 283.519531 74.917969 L 283.585938 74.949219 L 283.425781 74.949219 C 285.175781 73.917969 286.886719 72.902344 287.640625 72.246094 C 287.890625 72.03125 288.015625 71.871094 288.136719 71.667969 C 288.15625 71.636719 288.179688 71.59375 288.1875 71.5625 C 288.273438 71.398438 288.347656 71.21875 288.449219 70.980469 C 288.617188 70.566406 288.851562 69.984375 289.289062 69.125 C 289.753906 68.214844 290.449219 66.980469 291.234375 65.570312 C 292.332031 63.609375 293.628906 61.300781 294.765625 59.027344 C 296.738281 55.136719 298.28125 51.34375 299.496094 47.578125 C 300.707031 43.804688 301.585938 40.09375 300.71875 36.859375 C 299.863281 33.628906 297.265625 30.84375 291.246094 26.8125 C 285.238281 22.78125 275.871094 17.523438 263.714844 13.699219 C 251.558594 9.871094 236.613281 7.46875 223.050781 6.804688 C 209.5 6.128906 197.320312 7.199219 191.472656 8.089844 C 187.671875 8.679688 186.570312 9.1875 185.902344 9.476562 C 185.539062 9.644531 185.28125 9.765625 184.8125 9.796875 C 184.359375 9.820312 183.714844 9.777344 182.976562 9.699219 C 182.253906 9.625 181.445312 9.507812 180.605469 9.398438 C 179.714844 9.28125 178.804688 9.15625 177.953125 9.066406 C 175.488281 8.796875 173.609375 8.824219 171.707031 8.84375 L 171.746094 8.832031 C 163.664062 10.128906 155.59375 11.425781 145.273438 14.371094 C 134.949219 17.324219 122.378906 21.921875 113.203125 26.574219 C 104.488281 30.992188 98.847656 35.441406 94.902344 38.601562 L 94.589844 38.851562 L 94.300781 39.085938 L 93.898438 39.410156 C 90.179688 42.386719 88.085938 44.0625 85.820312 47.714844 C 85.585938 48.089844 85.339844 48.5 85.101562 48.917969 C 82.945312 52.703125 80.660156 58.042969 78.355469 63.390625 L 78.367188 63.382812 C 76.800781 67.402344 75.25 71.398438 74.867188 76.117188 C 74.480469 80.832031 75.261719 86.28125 76.046875 91.75 C 76.058594 91.78125 76.046875 91.800781 76.035156 91.824219 C 75.15625 94.078125 74.277344 96.320312 73.921875 100.199219 C 73.582031 104.089844 73.773438 109.632812 76.101562 121.8125 C 78.429688 133.988281 82.90625 152.796875 87.269531 166.402344 C 88.023438 168.730469 88.761719 170.90625 89.492188 172.941406 C 91.484375 178.496094 93.398438 183.082031 95.082031 187.105469 C 96.394531 190.246094 97.558594 193.042969 98.515625 195.707031 C 101.140625 203.007812 102.113281 209.199219 103.085938 215.378906 L 103.085938 215.386719 L 104.511719 229.667969 L 104.40625 229.539062 C 104.488281 229.570312 104.535156 229.65625 104.5 229.734375 C 104.476562 229.820312 104.382812 229.863281 104.308594 229.832031 Z M 104.308594 229.832031 " fill-opacity="1" fill-rule="nonzero"/><path fill="#ffffff" d="M 180.109375 13.964844 C 185.617188 15.5 191.132812 17.046875 197.039062 19.265625 C 202.953125 21.492188 209.285156 24.398438 215.59375 27.292969 L 215.417969 27.539062 C 213.105469 25.300781 210.796875 23.058594 206.25 20.730469 C 201.699219 18.394531 194.882812 15.980469 190.144531 14.867188 C 185.402344 13.761719 182.71875 13.964844 180.015625 14.171875 C 179.929688 14.183594 179.863281 14.113281 179.851562 14.03125 C 179.839844 13.945312 179.910156 13.871094 179.992188 13.871094 C 182.707031 13.667969 185.433594 13.460938 190.207031 14.578125 C 194.984375 15.679688 201.804688 18.113281 206.386719 20.457031 C 210.980469 22.800781 213.316406 25.074219 215.636719 27.324219 C 215.6875 27.382812 215.699219 27.464844 215.65625 27.519531 C 215.613281 27.582031 215.539062 27.601562 215.46875 27.570312 C 209.15625 24.667969 202.839844 21.773438 196.933594 19.554688 C 191.035156 17.335938 185.539062 15.800781 180.035156 14.265625 C 179.953125 14.234375 179.910156 14.160156 179.929688 14.070312 C 179.953125 13.988281 180.035156 13.945312 180.109375 13.964844 Z M 180.109375 13.964844 " fill-opacity="1" fill-rule="nonzero"/><path fill="#ffffff" d="M 210.527344 13.601562 C 210.445312 13.570312 210.414062 13.480469 210.445312 13.40625 C 210.464844 13.335938 210.550781 13.292969 210.640625 13.3125 C 214.007812 14.527344 217.386719 15.726562 221.933594 18.277344 C 226.472656 20.828125 232.191406 24.730469 235.933594 28.75 C 239.679688 32.773438 241.429688 36.898438 243.164062 41.007812 L 242.875 41.046875 C 243.058594 38.828125 243.234375 36.632812 241.589844 33.230469 C 239.929688 29.820312 236.441406 25.214844 231.878906 21.785156 C 227.332031 18.351562 221.707031 16.089844 217.996094 14.941406 C 214.296875 13.78125 212.503906 13.730469 210.710938 13.675781 C 210.640625 13.675781 210.558594 13.601562 210.570312 13.511719 C 210.570312 13.429688 210.648438 13.367188 210.722656 13.367188 C 212.535156 13.429688 214.347656 13.480469 218.082031 14.640625 C 221.820312 15.8125 227.46875 18.074219 232.066406 21.535156 C 236.65625 25 240.1875 29.640625 241.859375 33.105469 C 243.546875 36.566406 243.359375 38.828125 243.175781 41.082031 C 243.175781 41.144531 243.125 41.210938 243.058594 41.222656 C 242.984375 41.234375 242.921875 41.1875 242.890625 41.121094 C 241.152344 37.015625 239.414062 32.941406 235.710938 28.96875 C 231.996094 24.976562 226.316406 21.097656 221.785156 18.542969 C 217.257812 16 213.894531 14.804688 210.527344 13.601562 L 210.640625 13.324219 C 210.722656 13.355469 210.753906 13.441406 210.722656 13.511719 C 210.691406 13.601562 210.601562 13.632812 210.527344 13.601562 Z M 210.527344 13.601562 " fill-opacity="1" fill-rule="nonzero"/><path fill="#ffffff" d="M 235.921875 13.988281 C 235.847656 13.945312 235.828125 13.863281 235.859375 13.792969 C 235.890625 13.71875 235.980469 13.6875 236.054688 13.707031 L 236.066406 13.707031 C 238.425781 14.621094 240.796875 15.53125 244.875 17.824219 C 248.941406 20.105469 254.734375 23.796875 257.855469 28.824219 C 260.980469 33.855469 261.417969 40.199219 261.855469 46.503906 L 261.546875 46.492188 C 262.050781 42.945312 262.558594 39.417969 262.277344 36.113281 C 262 32.816406 260.933594 29.746094 259.875 26.648438 C 259.851562 26.585938 259.875 26.523438 259.917969 26.480469 C 259.96875 26.449219 260.03125 26.4375 260.101562 26.46875 C 261.582031 27.3125 263.085938 28.183594 264.347656 29.683594 C 265.605469 31.195312 266.621094 33.328125 267.621094 35.449219 L 267.332031 35.523438 C 267.042969 31.933594 266.753906 28.410156 262.640625 24.925781 C 258.507812 21.429688 250.507812 17.988281 245.410156 16.164062 C 240.324219 14.339844 238.15625 14.152344 235.992188 13.945312 C 235.902344 13.945312 235.839844 13.871094 235.847656 13.78125 C 235.859375 13.699219 235.921875 13.632812 236.011719 13.644531 C 238.199219 13.839844 240.398438 14.039062 245.503906 15.875 C 250.613281 17.699219 258.660156 21.152344 262.835938 24.6875 C 267.042969 28.257812 267.34375 31.902344 267.632812 35.503906 C 267.644531 35.582031 267.601562 35.644531 267.523438 35.667969 C 267.449219 35.6875 267.375 35.644531 267.34375 35.582031 C 266.332031 33.457031 265.34375 31.355469 264.113281 29.890625 C 262.890625 28.417969 261.429688 27.582031 259.9375 26.738281 L 260.164062 26.554688 C 261.222656 29.640625 262.296875 32.753906 262.578125 36.082031 C 262.867188 39.429688 262.351562 43 261.84375 46.535156 C 261.835938 46.625 261.773438 46.679688 261.699219 46.679688 C 261.625 46.667969 261.554688 46.613281 261.546875 46.523438 C 261.109375 40.210938 260.679688 33.9375 257.597656 28.988281 C 254.519531 24.035156 248.789062 20.375 244.726562 18.09375 C 240.667969 15.8125 238.304688 14.910156 235.949219 14 L 236.074219 13.71875 C 236.148438 13.761719 236.171875 13.863281 236.128906 13.925781 C 236.097656 14 236.003906 14.03125 235.921875 13.988281 Z M 235.921875 13.988281 " fill-opacity="1" fill-rule="nonzero"/><path fill="#ffffff" d="M 284.730469 34.960938 C 285.703125 36.867188 286.6875 38.808594 286.613281 41.339844 C 286.554688 43.421875 285.785156 45.890625 285.101562 48.089844 C 284.957031 48.566406 284.820312 49.011719 284.679688 49.457031 C 283.929688 51.964844 283.53125 53.9375 283.125 55.90625 L 282.84375 55.8125 C 285.558594 50.65625 288.242188 45.539062 288.554688 41.90625 C 288.851562 38.300781 286.804688 36.148438 285.734375 35.292969 C 285.101562 34.777344 284.917969 34.816406 284.875 34.839844 C 284.820312 34.882812 284.789062 35.003906 284.753906 35.238281 C 284.742188 35.324219 284.65625 35.378906 284.574219 35.367188 C 284.5 35.355469 284.429688 35.273438 284.453125 35.191406 C 284.472656 35.011719 284.511719 34.734375 284.6875 34.589844 C 284.957031 34.414062 285.351562 34.589844 285.921875 35.054688 C 287.03125 35.9375 289.164062 38.1875 288.851562 41.929688 C 288.542969 45.640625 285.816406 50.824219 283.113281 55.949219 C 283.082031 56.027344 282.996094 56.050781 282.917969 56.027344 C 282.855469 56.007812 282.8125 55.929688 282.824219 55.855469 C 283.230469 53.871094 283.640625 51.894531 284.390625 49.367188 C 284.519531 48.929688 284.667969 48.46875 284.8125 48.007812 C 285.496094 45.785156 286.253906 43.363281 286.3125 41.339844 C 286.375 38.894531 285.433594 37.003906 284.453125 35.097656 C 284.421875 35.023438 284.453125 34.929688 284.53125 34.882812 C 284.605469 34.851562 284.6875 34.882812 284.730469 34.960938 Z M 284.730469 34.960938 " fill-opacity="1" fill-rule="nonzero"/><path fill="#ffffff" d="M 236.003906 13.8125 Z M 180.027344 14 C 180.027344 14 180.035156 14.007812 180.035156 14.019531 L 180.027344 14.019531 Z M 183.320312 13.882812 C 185.144531 13.882812 187.277344 14.070312 190.175781 14.746094 C 194.925781 15.855469 201.742188 18.277344 206.3125 20.613281 C 210.808594 22.90625 213.125 25.125 215.410156 27.34375 C 209.136719 24.460938 202.871094 21.589844 196.996094 19.378906 C 191.101562 17.171875 185.589844 15.628906 180.097656 14.09375 C 180.089844 14.09375 180.089844 14.09375 180.089844 14.09375 C 180.089844 14.09375 180.097656 14.105469 180.097656 14.105469 L 180.089844 14.125 L 180.046875 14.039062 C 181.101562 13.964844 182.148438 13.882812 183.320312 13.882812 Z M 284.789062 35.066406 Z M 284.636719 35.171875 C 284.648438 35.183594 284.65625 35.191406 284.667969 35.203125 C 284.65625 35.191406 284.648438 35.191406 284.636719 35.191406 L 284.625 35.191406 C 284.625 35.191406 284.636719 35.191406 284.636719 35.191406 L 284.636719 35.183594 C 284.636719 35.183594 284.636719 35.183594 284.636719 35.171875 L 284.625 35.171875 C 284.636719 35.171875 284.636719 35.171875 284.636719 35.171875 Z M 284.789062 34.890625 L 284.863281 35.222656 L 284.789062 35.25 L 284.699219 35.222656 Z M 210.921875 13.5625 C 212.652344 13.613281 214.453125 13.699219 218.027344 14.816406 C 221.75 15.96875 227.382812 18.230469 231.953125 21.671875 C 236.523438 25.113281 240.035156 29.746094 241.699219 33.179688 C 243.339844 36.546875 243.191406 38.765625 243.019531 40.964844 C 241.277344 36.890625 239.539062 32.816406 235.839844 28.835938 C 232.117188 24.835938 226.410156 20.933594 221.871094 18.394531 C 217.480469 15.925781 214.1875 14.714844 210.914062 13.5625 Z M 236.035156 13.824219 C 238.199219 14.019531 240.378906 14.226562 245.453125 16.03125 C 250.550781 17.855469 258.566406 21.308594 262.726562 24.824219 C 266.816406 28.296875 267.160156 31.828125 267.449219 35.378906 C 266.460938 33.296875 265.472656 31.230469 264.25 29.769531 C 263.105469 28.398438 261.75 27.570312 260.390625 26.78125 C 260.355469 26.769531 260.320312 26.757812 260.300781 26.757812 L 260.289062 26.757812 C 260.238281 26.757812 260.183594 26.789062 260.152344 26.832031 C 260.121094 26.886719 260.109375 26.9375 260.132812 26.992188 C 261.148438 29.964844 262.136719 32.921875 262.402344 36.105469 C 262.671875 39.347656 262.203125 42.808594 261.707031 46.28125 C 261.28125 40.042969 260.816406 33.820312 257.75 28.886719 C 254.652344 23.890625 248.875 20.230469 244.808594 17.9375 C 240.761719 15.660156 238.40625 14.746094 236.042969 13.851562 C 236.042969 13.839844 236.035156 13.839844 236.035156 13.839844 C 236.035156 13.839844 236.035156 13.824219 236.035156 13.824219 Z M 284.9375 34.703125 C 285.109375 34.703125 285.390625 34.851562 285.816406 35.191406 C 286.902344 36.0625 288.980469 38.25 288.667969 41.917969 C 288.367188 45.539062 285.722656 50.609375 283.039062 55.71875 C 283.425781 53.796875 283.832031 51.863281 284.5625 49.425781 C 284.6875 48.980469 284.832031 48.523438 284.980469 48.058594 L 284.980469 48.046875 C 285.664062 45.851562 286.429688 43.394531 286.492188 41.339844 C 286.554688 38.976562 285.691406 37.136719 284.773438 35.324219 L 284.761719 35.324219 C 284.761719 35.292969 284.742188 35.261719 284.710938 35.222656 C 284.730469 35.238281 284.753906 35.25 284.789062 35.25 C 284.882812 35.25 284.96875 35.160156 284.96875 35.066406 C 284.96875 34.980469 284.894531 34.902344 284.875 34.902344 C 284.875 34.902344 284.863281 34.902344 284.863281 34.902344 C 284.84375 34.890625 284.8125 34.882812 284.789062 34.882812 L 284.699219 34.902344 C 284.699219 34.902344 284.699219 34.902344 284.6875 34.917969 C 284.722656 34.828125 284.753906 34.777344 284.800781 34.746094 C 284.84375 34.714844 284.882812 34.703125 284.9375 34.703125 Z M 282.949219 55.875 Z M 232.707031 106.054688 Z M 214.421875 6.417969 C 204.464844 6.417969 196.023438 7.21875 191.453125 7.921875 C 187.640625 8.5 186.519531 9 185.839844 9.3125 L 185.828125 9.3125 C 185.828125 9.3125 185.828125 9.3125 185.816406 9.324219 C 185.464844 9.488281 185.238281 9.582031 184.800781 9.613281 C 184.707031 9.613281 184.605469 9.625 184.5 9.625 C 184.089844 9.625 183.589844 9.582031 183.007812 9.519531 L 183 9.519531 C 182.277344 9.445312 181.464844 9.332031 180.625 9.21875 L 180.617188 9.21875 C 179.734375 9.097656 178.824219 8.980469 177.976562 8.886719 C 176.128906 8.691406 174.605469 8.648438 173.15625 8.648438 C 172.679688 8.648438 172.203125 8.648438 171.71875 8.660156 L 171.699219 8.660156 C 163.621094 9.957031 155.554688 11.253906 145.222656 14.203125 C 134.886719 17.148438 122.304688 21.761719 113.128906 26.410156 C 104.394531 30.84375 98.738281 35.304688 94.78125 38.464844 L 94.480469 38.714844 L 94.191406 38.945312 L 93.785156 39.265625 C 90.0625 42.25 87.960938 43.941406 85.671875 47.621094 C 85.425781 48.007812 85.1875 48.410156 84.953125 48.832031 C 84.945312 48.832031 84.945312 48.84375 84.945312 48.84375 C 82.785156 52.640625 80.492188 57.980469 78.191406 63.316406 C 78.191406 63.316406 78.191406 63.328125 78.191406 63.328125 C 76.636719 67.339844 75.082031 71.355469 74.699219 76.105469 C 74.308594 80.84375 75.09375 86.316406 75.875 91.769531 C 74.988281 94.019531 74.097656 96.277344 73.75 100.1875 C 73.394531 104.097656 73.589844 109.664062 75.929688 121.847656 C 78.253906 134.039062 82.730469 152.847656 87.101562 166.457031 C 87.847656 168.78125 88.59375 170.960938 89.328125 173.003906 C 91.316406 178.558594 93.234375 183.152344 94.921875 187.167969 L 94.921875 187.179688 C 96.230469 190.320312 97.398438 193.109375 98.351562 195.757812 C 100.960938 203.046875 101.9375 209.222656 102.902344 215.410156 L 104.289062 229.175781 C 104.289062 229.261719 104.371094 229.335938 104.457031 229.335938 C 104.457031 229.335938 104.46875 229.335938 104.46875 229.335938 C 104.535156 229.335938 104.589844 229.292969 104.621094 229.238281 C 105.617188 227.382812 106.660156 225.496094 107.761719 223.527344 C 108.558594 222.085938 109.394531 220.621094 110.238281 219.121094 L 110.238281 219.109375 C 111.121094 217.554688 112.019531 215.957031 112.921875 214.359375 C 115.230469 210.222656 117.550781 205.941406 119.609375 201.6875 C 122.949219 194.792969 125.59375 187.953125 127.675781 182.582031 L 127.675781 182.570312 C 127.859375 182.097656 128.042969 181.636719 128.214844 181.183594 C 130.359375 175.667969 131.851562 172.019531 133.332031 168.378906 C 133.339844 168.367188 133.339844 168.34375 133.351562 168.320312 C 138.242188 173.480469 143.152344 178.644531 148.238281 182.925781 C 153.339844 187.226562 158.640625 190.640625 162.710938 192.132812 C 164.554688 192.808594 166.152344 193.078125 167.589844 193.078125 C 169.292969 193.078125 170.753906 192.691406 172.097656 192.132812 C 174.542969 191.125 176.625 189.582031 178.707031 188.015625 C 178.769531 187.984375 178.804688 187.921875 178.792969 187.859375 L 178.628906 185.734375 C 178.628906 185.648438 178.566406 185.582031 178.492188 185.558594 C 178.480469 185.558594 178.472656 185.558594 178.460938 185.558594 C 178.417969 185.558594 178.359375 185.582031 178.328125 185.613281 C 177.195312 186.710938 175.984375 187.777344 173.652344 188.703125 C 172.410156 189.207031 170.855469 189.644531 169.003906 189.644531 C 167.160156 189.644531 165.015625 189.207031 162.589844 187.898438 C 157.75 185.300781 151.816406 179.308594 147.054688 173.148438 C 142.292969 166.980469 138.707031 160.664062 137.453125 153.230469 C 136.199219 145.796875 137.277344 137.242188 139.984375 131.179688 C 140.324219 130.421875 140.703125 129.695312 141.089844 129.007812 C 143.78125 124.265625 147.546875 121.449219 151.253906 120.550781 C 152.214844 120.3125 153.171875 120.21875 154.101562 120.21875 C 157.3125 120.21875 160.339844 121.425781 162.683594 122.820312 C 165.714844 124.632812 167.613281 126.742188 168.910156 128.503906 C 168.984375 128.609375 169.0625 128.71875 169.148438 128.824219 C 169.789062 129.714844 170.273438 130.503906 170.703125 131.207031 L 170.703125 131.21875 L 170.710938 131.226562 C 171.042969 131.769531 171.34375 132.246094 171.644531 132.671875 C 172.296875 133.574219 172.988281 134.226562 173.683594 134.839844 C 173.714844 134.871094 173.757812 134.878906 173.800781 134.878906 C 173.820312 134.878906 173.84375 134.878906 173.878906 134.871094 C 173.941406 134.839844 173.976562 134.773438 173.976562 134.703125 L 173.976562 134.679688 L 173.289062 130.59375 C 175.207031 131.097656 177.117188 131.613281 179.0625 132.308594 C 181.011719 133.015625 182.976562 133.917969 184.949219 134.816406 C 184.949219 134.816406 184.960938 134.828125 184.960938 134.828125 L 184.980469 134.828125 L 188.320312 136.070312 L 188.332031 136.082031 C 188.34375 136.082031 188.363281 136.09375 188.363281 136.09375 C 189.359375 136.777344 190.335938 137.472656 190.789062 138.601562 C 191.238281 139.730469 191.171875 141.273438 191.089844 142.851562 C 191.089844 142.902344 191.101562 142.945312 191.132812 142.988281 C 191.171875 143.019531 191.214844 143.039062 191.257812 143.039062 L 211.410156 144.699219 C 211.410156 144.699219 211.417969 144.699219 211.417969 144.699219 C 211.460938 144.699219 211.503906 144.691406 211.539062 144.65625 C 211.582031 144.625 211.601562 144.574219 211.601562 144.519531 C 211.839844 141.90625 212.082031 139.277344 212.503906 136.53125 C 212.933594 133.746094 213.542969 130.835938 214.15625 127.933594 L 214.15625 127.921875 L 214.164062 127.902344 L 214.164062 127.890625 C 214.777344 124.4375 215.398438 120.988281 216.164062 118.839844 C 216.390625 118.21875 216.609375 117.71875 216.859375 117.277344 C 217.480469 116.195312 218.214844 115.550781 219.167969 114.808594 C 220.507812 113.792969 222.257812 112.589844 224.585938 111.105469 C 226.898438 109.613281 229.796875 107.839844 232.699219 106.066406 L 232.707031 106.066406 L 232.707031 106.054688 L 232.71875 106.054688 C 235.613281 104.550781 238.523438 103.039062 241.546875 99.804688 C 242.695312 98.570312 243.867188 97.089844 244.808594 95.429688 C 246.375 92.683594 247.339844 89.433594 246.664062 85.929688 C 245.617188 80.492188 240.582031 74.464844 237.558594 70.898438 L 237.546875 70.898438 C 237.546875 70.886719 237.546875 70.875 237.535156 70.875 L 237.394531 70.703125 L 237.257812 70.542969 C 234.328125 67.082031 233.660156 66.234375 233.039062 65.425781 C 233.03125 65.40625 233.019531 65.382812 232.996094 65.375 L 227.320312 60.570312 C 227.488281 60.570312 227.664062 60.570312 227.847656 60.570312 C 229.050781 60.570312 230.410156 60.59375 232.957031 60.734375 C 235.914062 60.894531 240.476562 61.214844 245.859375 62.148438 C 251.234375 63.082031 257.429688 64.613281 263.628906 66.148438 L 263.636719 66.148438 C 266.890625 67.199219 270.140625 68.257812 273.445312 69.75 C 276.730469 71.230469 280.078125 73.136719 283.414062 75.054688 C 283.445312 75.078125 283.476562 75.078125 283.507812 75.078125 C 283.53125 75.078125 283.5625 75.078125 283.597656 75.054688 C 285.300781 74.050781 286.996094 73.042969 287.757812 72.378906 C 288.015625 72.164062 288.167969 71.976562 288.285156 71.757812 C 288.304688 71.71875 288.328125 71.675781 288.347656 71.644531 C 288.4375 71.476562 288.511719 71.28125 288.605469 71.046875 C 288.78125 70.628906 289.015625 70.058594 289.453125 69.199219 C 289.917969 68.304688 290.601562 67.070312 291.382812 65.664062 L 291.394531 65.652344 C 292.492188 63.691406 293.777344 61.390625 294.925781 59.113281 C 296.902344 55.199219 298.445312 51.40625 299.667969 47.632812 C 300.882812 43.867188 301.773438 40.105469 300.890625 36.816406 C 300.011719 33.523438 297.371094 30.703125 291.363281 26.667969 C 291.363281 26.667969 291.351562 26.660156 291.339844 26.660156 C 285.332031 22.617188 275.933594 17.367188 263.769531 13.527344 C 251.589844 9.699219 236.636719 7.289062 223.0625 6.625 C 220.101562 6.472656 217.199219 6.417969 214.421875 6.417969 Z M 214.421875 6.417969 " fill-opacity="1" fill-rule="nonzero"/><path fill="#ffffff" d="M 142.507812 146.335938 C 142.507812 146.3125 142.507812 146.285156 142.507812 146.265625 C 143.460938 142 144.425781 137.691406 146.335938 134.703125 C 147.921875 132.222656 150.167969 130.636719 152.214844 130.164062 C 152.632812 130.066406 153.054688 130.015625 153.460938 130.015625 C 155.8125 130.027344 157.566406 131.738281 158.972656 133.726562 C 160.382812 135.707031 161.472656 138.011719 161.605469 139.742188 C 161.71875 141.484375 160.839844 142.601562 159.511719 144.027344 C 159.242188 144.304688 158.964844 144.59375 158.671875 144.90625 C 158.363281 145.238281 158.03125 145.582031 157.699219 145.945312 C 156.765625 146.945312 155.78125 148.058594 154.941406 149.25 C 153.511719 151.261719 152.476562 153.492188 152.40625 155.832031 C 152.34375 158.144531 153.222656 160.59375 156.570312 163.671875 C 159.929688 166.742188 165.746094 170.421875 169.457031 171.644531 C 171.085938 172.183594 172.296875 172.234375 173.199219 172.03125 C 174.328125 171.769531 174.980469 171.085938 175.335938 170.390625 C 175.984375 169.125 175.683594 167.777344 175.230469 166.8125 C 174.78125 165.859375 174.167969 165.296875 173.179688 164.511719 C 172.183594 163.722656 170.808594 162.726562 169.4375 161.714844 C 169.40625 161.683594 169.382812 161.640625 169.382812 161.597656 L 169.382812 161.589844 C 169.332031 160.476562 169.285156 159.378906 169.136719 158.40625 C 168.984375 157.441406 168.730469 156.601562 168.265625 155.9375 C 167.800781 155.273438 167.128906 154.757812 166.421875 154.234375 C 166.378906 154.203125 166.359375 154.144531 166.367188 154.09375 C 166.691406 149.558594 167.011719 145.023438 166.859375 141.558594 C 166.722656 138.105469 166.109375 135.730469 164.234375 133.09375 C 162.351562 130.441406 159.199219 127.539062 156.195312 126.550781 C 154.800781 126.089844 153.429688 126.046875 152.136719 126.335938 C 150.671875 126.679688 149.308594 127.453125 148.125 128.566406 C 145.90625 130.660156 144.332031 133.949219 143.535156 137.121094 C 142.75 140.292969 142.730469 143.339844 142.71875 146.417969 C 142.71875 146.503906 142.644531 146.566406 142.558594 146.566406 C 142.46875 146.566406 142.40625 146.492188 142.40625 146.417969 C 142.429688 143.351562 142.4375 140.261719 143.246094 137.046875 C 144.050781 133.84375 145.636719 130.496094 147.921875 128.339844 C 149.136719 127.195312 150.539062 126.390625 152.074219 126.046875 C 153.417969 125.734375 154.839844 125.777344 156.289062 126.261719 C 159.386719 127.28125 162.578125 130.226562 164.488281 132.917969 C 166.402344 135.613281 167.023438 138.054688 167.171875 141.546875 C 167.324219 145.03125 166.992188 149.582031 166.667969 154.113281 L 166.601562 153.988281 C 167.300781 154.515625 168.019531 155.046875 168.515625 155.769531 C 169.015625 156.484375 169.285156 157.367188 169.4375 158.363281 C 169.59375 159.347656 169.640625 160.476562 169.683594 161.578125 L 169.683594 161.589844 L 169.617188 161.472656 C 170.992188 162.46875 172.367188 163.484375 173.363281 164.269531 C 174.371094 165.0625 175.011719 165.664062 175.496094 166.679688 C 175.984375 167.6875 176.316406 169.148438 175.601562 170.53125 C 175.21875 171.300781 174.5 172.039062 173.269531 172.332031 C 172.296875 172.546875 171.035156 172.484375 169.363281 171.933594 C 165.59375 170.703125 159.75 166.992188 156.371094 163.890625 C 152.976562 160.769531 152.03125 158.25 152.105469 155.820312 C 152.175781 153.40625 153.246094 151.105469 154.695312 149.066406 C 155.542969 147.863281 156.527344 146.738281 157.472656 145.734375 C 157.804688 145.378906 158.136719 145.023438 158.457031 144.691406 C 158.746094 144.390625 159.027344 144.089844 159.285156 143.816406 C 160.617188 142.386719 161.410156 141.359375 161.292969 139.761719 C 161.183594 138.117188 160.121094 135.867188 158.726562 133.894531 C 157.324219 131.933594 155.648438 130.328125 153.460938 130.328125 C 153.074219 130.328125 152.6875 130.367188 152.28125 130.464844 C 150.3125 130.90625 148.136719 132.433594 146.59375 134.871094 C 144.714844 137.8125 143.761719 142.042969 142.808594 146.335938 L 142.808594 146.265625 C 142.828125 146.34375 142.769531 146.429688 142.6875 146.449219 C 142.613281 146.460938 142.527344 146.417969 142.507812 146.335938 Z M 142.507812 146.335938 " fill-opacity="1" fill-rule="nonzero"/><path fill="#ffffff" d="M 205.820312 154.226562 C 205.90625 154.257812 205.9375 154.339844 205.90625 154.425781 C 205.863281 154.503906 205.773438 154.535156 205.699219 154.503906 C 205.625 154.46875 205.585938 154.371094 205.625 154.296875 C 205.65625 154.226562 205.742188 154.183594 205.820312 154.226562 Z M 205.820312 154.226562 " fill-opacity="1" fill-rule="nonzero"/><path fill="#ffffff" d="M 153.78125 126.097656 C 153.222656 126.097656 152.664062 126.167969 152.125 126.285156 C 150.652344 126.625 149.273438 127.40625 148.09375 128.523438 C 145.855469 130.636719 144.285156 133.925781 143.492188 137.109375 C 142.78125 139.910156 142.6875 142.613281 142.664062 145.300781 C 142.664062 145.3125 142.675781 145.332031 142.6875 145.34375 C 142.699219 145.355469 142.707031 145.355469 142.71875 145.355469 C 142.75 145.355469 142.769531 145.34375 142.769531 145.3125 C 143.660156 141.367188 144.621094 137.484375 146.375 134.734375 C 147.957031 132.253906 150.1875 130.679688 152.226562 130.214844 C 152.644531 130.121094 153.054688 130.066406 153.449219 130.066406 L 153.460938 130.066406 C 155.78125 130.078125 157.523438 131.769531 158.929688 133.757812 C 160.339844 135.730469 161.417969 138.03125 161.550781 139.742188 C 161.667969 141.464844 160.796875 142.558594 159.46875 143.984375 C 159.210938 144.261719 158.929688 144.5625 158.640625 144.863281 C 158.332031 145.195312 157.988281 145.550781 157.65625 145.902344 C 156.722656 146.910156 155.730469 148.027344 154.898438 149.21875 C 153.460938 151.230469 152.417969 153.480469 152.355469 155.832031 C 152.289062 158.167969 153.179688 160.625 156.539062 163.703125 C 159.894531 166.789062 165.726562 170.476562 169.445312 171.699219 C 170.515625 172.050781 171.40625 172.191406 172.160156 172.191406 C 172.546875 172.191406 172.898438 172.160156 173.210938 172.082031 C 174.359375 171.820312 175.023438 171.128906 175.390625 170.410156 C 176.035156 169.125 175.734375 167.765625 175.269531 166.789062 C 174.824219 165.824219 174.210938 165.257812 173.210938 164.472656 C 172.214844 163.679688 170.84375 162.675781 169.46875 161.671875 C 169.445312 161.652344 169.4375 161.621094 169.4375 161.597656 L 169.4375 161.589844 C 169.382812 160.476562 169.339844 159.367188 169.1875 158.40625 C 169.042969 157.429688 168.78125 156.582031 168.308594 155.90625 C 167.839844 155.230469 167.160156 154.714844 166.453125 154.191406 C 166.433594 154.171875 166.410156 154.136719 166.421875 154.101562 C 166.742188 149.558594 167.066406 145.023438 166.917969 141.558594 C 166.773438 138.097656 166.164062 135.707031 164.277344 133.058594 C 162.382812 130.398438 159.230469 127.496094 156.21875 126.5 C 155.390625 126.230469 154.578125 126.097656 153.78125 126.097656 Z M 153.78125 126.097656 " fill-opacity="1" fill-rule="nonzero"/><path fill="#ffffff" d="M 168.730469 177.960938 C 168.792969 177.980469 168.835938 178.054688 168.824219 178.132812 C 168.804688 178.207031 168.742188 178.261719 168.660156 178.25 C 166.015625 178.074219 163.34375 177.894531 160.609375 176.835938 C 157.867188 175.773438 155.078125 173.832031 153.246094 171.964844 C 151.410156 170.089844 150.519531 168.277344 149.648438 166.5 C 149.617188 166.433594 149.628906 166.359375 149.679688 166.316406 C 149.75 166.273438 149.824219 166.261719 149.875 166.304688 C 151.722656 167.675781 153.566406 169.042969 156.703125 171 C 159.832031 172.953125 164.265625 175.492188 168.683594 178.035156 C 168.761719 178.074219 168.78125 178.175781 168.75 178.25 C 168.703125 178.324219 168.609375 178.34375 168.535156 178.300781 C 164.113281 175.761719 159.683594 173.222656 156.539062 171.261719 C 153.398438 169.300781 151.550781 167.921875 149.691406 166.554688 L 149.917969 166.359375 C 150.796875 168.148438 151.65625 169.910156 153.472656 171.75 C 155.273438 173.59375 158.03125 175.503906 160.714844 176.558594 C 163.40625 177.597656 166.035156 177.769531 168.683594 177.949219 L 168.621094 178.238281 C 168.535156 178.21875 168.503906 178.121094 168.523438 178.042969 C 168.554688 177.96875 168.640625 177.929688 168.730469 177.960938 Z M 168.730469 177.960938 " fill-opacity="1" fill-rule="nonzero"/><path fill="#ffffff" d="M 150.207031 166.917969 L 150.207031 166.925781 Z M 150.1875 166.925781 Z M 150.199219 166.925781 L 150.1875 166.925781 Z M 150.199219 166.917969 L 150.199219 166.925781 L 150.1875 166.9375 L 150.199219 166.9375 L 150.1875 166.9375 C 150.984375 168.523438 151.835938 170.109375 153.460938 171.75 C 155.273438 173.59375 158.019531 175.515625 160.714844 176.566406 C 163.105469 177.492188 165.457031 177.734375 167.8125 177.894531 L 167.8125 177.886719 L 167.828125 177.886719 L 167.8125 177.886719 C 163.644531 175.472656 159.511719 173.105469 156.550781 171.25 C 153.699219 169.46875 151.90625 168.171875 150.207031 166.925781 Z M 150.199219 166.917969 " fill-opacity="1" fill-rule="nonzero"/><g clip-path="url(#738c062581)"><path fill="#ffffff" d="M 191.453125 140.242188 C 191.464844 140.261719 191.472656 140.292969 191.464844 140.316406 L 190.582031 150.835938 L 190.582031 150.824219 C 189.402344 167.570312 188.222656 184.316406 186.367188 197.140625 C 184.511719 209.976562 182.003906 218.863281 179.539062 226.9375 C 179.394531 227.425781 179.25 227.890625 179.101562 228.378906 C 178.960938 228.855469 178.8125 229.335938 178.675781 229.796875 C 176.574219 236.722656 174.832031 242.902344 175.671875 247.925781 C 176.625 253.632812 180.886719 257.898438 184.15625 261.125 C 187.421875 264.355469 189.628906 266.496094 191.847656 268.640625 L 191.835938 268.640625 L 209.425781 284.21875 C 209.46875 284.261719 209.488281 284.316406 209.46875 284.378906 C 208.039062 289.496094 206.621094 294.609375 205.046875 300.65625 C 203.480469 306.710938 201.753906 313.679688 201.183594 319.054688 C 200.625 324.40625 201.203125 328.164062 201.792969 331.9375 L 201.492188 331.9375 C 203.203125 323.113281 204.921875 314.289062 207.441406 307.152344 C 209.957031 300.011719 213.285156 294.566406 216.601562 289.136719 L 216.730469 289.21875 L 216.589844 289.289062 C 216.578125 289.269531 216.558594 289.226562 216.535156 289.183594 C 216.527344 289.164062 216.496094 289.023438 216.609375 288.949219 C 216.621094 288.949219 216.632812 288.9375 216.640625 288.9375 C 216.667969 288.925781 216.699219 288.917969 216.730469 288.917969 C 217.054688 288.917969 218.671875 289.664062 225.644531 293.355469 C 226.023438 293.542969 226.398438 293.75 226.792969 293.957031 C 227.226562 294.175781 227.675781 294.425781 228.128906 294.660156 C 237.910156 299.828125 254.59375 308.480469 267.574219 311.207031 C 278.757812 313.550781 287.1875 311.507812 293.175781 309.019531 C 294.765625 308.355469 296.179688 307.664062 297.421875 307.023438 C 303.421875 303.914062 305.582031 301.792969 306.148438 300.148438 C 306.589844 298.894531 306.125 297.898438 305.523438 296.644531 C 305.355469 296.28125 305.171875 295.90625 305.015625 295.488281 C 304.507812 294.277344 304.144531 292.828125 303.691406 291.050781 C 303.464844 290.171875 303.222656 289.195312 302.921875 288.121094 C 302.84375 287.863281 302.777344 287.609375 302.695312 287.339844 C 302.621094 287.050781 302.53125 286.761719 302.445312 286.449219 C 301.609375 283.425781 300.625 279.371094 300.226562 272.171875 C 299.753906 263.570312 300.136719 250.492188 300.519531 237.410156 L 300.527344 237.453125 L 299.753906 233.410156 L 299.765625 233.453125 C 298.507812 231.042969 297.222656 228.605469 296.871094 227.207031 C 296.480469 225.734375 297.089844 225.316406 297.683594 224.9375 C 298.082031 224.695312 298.476562 224.449219 298.972656 224.242188 C 299.335938 224.09375 299.753906 223.964844 300.257812 223.878906 C 300.582031 223.816406 300.945312 223.785156 301.308594 223.742188 C 301.699219 223.695312 302.082031 223.652344 302.4375 223.589844 C 302.777344 223.527344 303.078125 223.453125 303.335938 223.339844 C 303.480469 223.289062 303.605469 223.214844 303.710938 223.140625 C 304.414062 222.625 304.390625 221.566406 304.332031 220.363281 L 304.332031 220.375 C 303.800781 215.503906 303.265625 210.648438 301.929688 206.929688 C 300.601562 203.21875 298.488281 200.613281 296.34375 198 C 296.3125 197.957031 296.300781 197.898438 296.320312 197.847656 C 296.34375 197.792969 296.386719 197.761719 296.4375 197.75 C 299.515625 197.222656 302.621094 196.703125 304.859375 196.433594 C 305.128906 196.402344 305.386719 196.371094 305.636719 196.347656 C 305.855469 196.3125 306.074219 196.292969 306.289062 196.269531 C 307.128906 196.164062 307.8125 196.058594 308.402344 195.8125 C 308.828125 195.628906 309.21875 195.378906 309.582031 195.015625 C 310.472656 194.140625 311.234375 192.574219 312.03125 190.960938 C 312.277344 190.460938 312.523438 189.964844 312.765625 189.488281 C 313.058594 188.9375 313.347656 188.410156 313.625 187.921875 C 313.882812 187.457031 314.121094 187.019531 314.347656 186.605469 C 314.777344 185.777344 315.097656 185.046875 315.230469 184.367188 C 315.480469 183.007812 314.914062 181.898438 314.328125 180.726562 L 314.339844 180.738281 C 310.546875 174.796875 306.757812 168.847656 303.003906 162.15625 C 299.261719 155.480469 295.527344 148.015625 295.140625 143.308594 C 294.808594 139.128906 297.125 137.121094 298.894531 135.585938 C 299.132812 135.386719 299.367188 135.191406 299.574219 135 C 301.351562 133.367188 301.929688 132.027344 301.988281 131 C 302.03125 129.996094 301.546875 129.261719 301.019531 128.492188 C 300.996094 128.460938 300.988281 128.417969 300.996094 128.375 L 301.007812 128.351562 C 301.429688 126.347656 301.847656 124.355469 301.386719 121.222656 C 300.914062 118.082031 299.527344 113.78125 298.15625 109.46875 C 298.15625 109.460938 298.15625 109.460938 298.144531 109.460938 L 287.628906 71.238281 L 287.847656 71.335938 L 282.75 74.125 L 282.769531 73.875 C 283.929688 74.859375 285.089844 75.875 286.203125 79.183594 C 286.914062 81.296875 287.609375 84.355469 288.359375 87.632812 C 288.78125 89.476562 289.21875 91.394531 289.691406 93.261719 C 290.988281 98.449219 292.511719 103.246094 294.035156 108.046875 C 296.0625 114.007812 298.105469 120 298.4375 123.96875 C 298.769531 127.976562 297.382812 129.9375 295.957031 131.859375 L 295.722656 132.183594 C 294.378906 133.988281 293.070312 135.824219 292.683594 138.785156 C 292.273438 141.9375 292.921875 146.355469 294.023438 150.222656 C 295.132812 154.101562 296.6875 157.417969 297.773438 159.523438 C 298.507812 160.945312 299.035156 161.816406 299.804688 163.101562 C 300.164062 163.703125 300.582031 164.398438 301.097656 165.277344 C 302.050781 166.917969 303.371094 169.210938 304.582031 171.332031 C 305.429688 172.824219 306.246094 174.238281 306.847656 175.28125 C 308.25 177.710938 308.570312 178.164062 309.390625 179.320312 L 309.492188 179.472656 C 310.386719 180.726562 311.925781 182.933594 311.988281 184.832031 C 312.039062 186.75 310.578125 188.328125 309.183594 189.828125 L 309.195312 189.820312 C 308.628906 190.589844 308.027344 191.375 307.285156 191.863281 C 307.105469 191.984375 306.921875 192.089844 306.726562 192.164062 C 306.125 192.414062 305.484375 192.464844 304.957031 192.175781 C 304.527344 191.941406 304.207031 191.488281 303.894531 191.074219 C 303.691406 190.804688 303.5 190.535156 303.273438 190.296875 C 302.683594 189.6875 301.898438 189.28125 301.085938 188.863281 L 301.109375 188.875 C 300.054688 188.523438 299.027344 188.167969 297.414062 187.996094 C 295.796875 187.820312 293.597656 187.820312 291.394531 187.832031 L 291.382812 187.832031 L 291.394531 187.832031 L 279.828125 187.898438 C 279.820312 187.898438 279.820312 187.898438 279.808594 187.898438 L 279.796875 187.898438 C 278.917969 187.800781 278.015625 187.707031 277.339844 187.488281 C 276.644531 187.269531 276.171875 186.902344 275.890625 185.933594 C 275.625 184.992188 275.527344 183.472656 275.558594 182.335938 C 275.601562 181.183594 275.785156 180.425781 275.957031 179.679688 L 276.222656 179.816406 C 275.3125 180.933594 274.410156 182.023438 273.972656 183.257812 C 273.519531 184.480469 273.519531 185.851562 274.648438 187.632812 C 275.785156 189.433594 278.078125 191.644531 280.398438 193.871094 C 280.429688 193.902344 280.453125 193.957031 280.441406 194 C 280.429688 194.050781 280.398438 194.09375 280.355469 194.113281 L 280.324219 194.125 C 280.097656 194.226562 279.871094 194.332031 279.632812 194.425781 C 279.011719 194.683594 278.316406 194.933594 277.339844 195.160156 C 276.886719 195.253906 276.386719 195.347656 275.839844 195.457031 C 275.195312 195.574219 274.496094 195.707031 273.769531 195.863281 C 273.25 195.980469 272.714844 196.121094 272.179688 196.269531 C 271.726562 196.414062 271.269531 196.558594 270.804688 196.753906 C 269.355469 197.355469 267.875 198.34375 266.363281 200.300781 C 264.371094 202.894531 262.308594 207.207031 260.433594 211.988281 C 258.550781 216.769531 256.859375 222.011719 255.171875 227.269531 C 255.152344 227.320312 255.109375 227.363281 255.046875 227.363281 C 254.992188 227.375 254.925781 227.351562 254.894531 227.300781 C 253.84375 225.683594 252.769531 224.054688 252.105469 221.609375 C 251.453125 219.183594 251.191406 215.96875 251.046875 213.265625 C 251.035156 213.074219 251.023438 212.867188 251.007812 212.671875 C 250.996094 212.484375 250.988281 212.289062 250.976562 212.109375 C 250.851562 209.933594 250.699219 208.171875 249.960938 206.769531 C 249.316406 205.535156 248.210938 204.570312 246.589844 203.175781 C 246.054688 202.714844 245.472656 202.210938 244.832031 201.632812 C 242.265625 199.316406 238.855469 195.855469 235.445312 192.402344 L 235.445312 192.414062 L 235.402344 192.371094 C 228.542969 186.023438 221.6875 179.6875 217.707031 175.730469 C 213.726562 171.761719 212.609375 170.175781 211.902344 167.539062 C 211.191406 164.925781 210.890625 161.289062 210.589844 157.667969 C 210.582031 157.667969 210.582031 157.65625 210.582031 157.644531 L 211.410156 144.066406 C 211.410156 143.984375 211.480469 143.921875 211.570312 143.929688 C 211.65625 143.929688 211.71875 144.003906 211.707031 144.089844 L 210.890625 157.667969 L 210.890625 157.644531 C 211.191406 161.265625 211.503906 164.882812 212.195312 167.453125 C 212.878906 170.003906 213.945312 171.5625 217.921875 175.515625 C 221.890625 179.472656 228.75 185.796875 235.601562 192.144531 L 235.660156 192.1875 C 239.070312 195.636719 242.480469 199.089844 245.035156 201.410156 C 245.679688 201.972656 246.257812 202.480469 246.792969 202.945312 C 248.394531 204.335938 249.554688 205.332031 250.238281 206.628906 C 251.007812 208.097656 251.160156 209.933594 251.277344 212.097656 C 251.289062 212.277344 251.296875 212.472656 251.308594 212.652344 C 251.324219 212.847656 251.335938 213.054688 251.347656 213.253906 C 251.503906 215.945312 251.75 219.140625 252.40625 221.535156 C 253.046875 223.910156 254.101562 225.519531 255.152344 227.125 L 254.882812 227.171875 C 256.570312 221.929688 258.265625 216.675781 260.144531 211.882812 C 262.019531 207.089844 264.101562 202.75 266.128906 200.113281 C 267.675781 198.105469 269.199219 197.097656 270.691406 196.476562 C 271.160156 196.28125 271.632812 196.121094 272.09375 195.980469 C 272.640625 195.824219 273.179688 195.679688 273.703125 195.5625 C 274.433594 195.40625 275.128906 195.273438 275.777344 195.160156 C 276.328125 195.046875 276.835938 194.953125 277.277344 194.859375 C 278.234375 194.640625 278.90625 194.394531 279.519531 194.152344 C 279.753906 194.050781 279.984375 193.945312 280.203125 193.851562 L 280.226562 193.839844 L 280.183594 194.082031 C 277.878906 191.875 275.550781 189.632812 274.390625 187.800781 C 273.210938 185.933594 273.210938 184.46875 273.683594 183.160156 C 274.140625 181.863281 275.074219 180.726562 275.988281 179.609375 C 276.03125 179.554688 276.109375 179.546875 276.171875 179.578125 C 276.234375 179.609375 276.265625 179.679688 276.257812 179.75 C 276.078125 180.488281 275.902344 181.234375 275.871094 182.34375 C 275.828125 183.472656 275.933594 184.960938 276.191406 185.851562 C 276.441406 186.71875 276.824219 187.007812 277.4375 187.199219 C 278.070312 187.40625 278.9375 187.488281 279.828125 187.589844 L 279.839844 187.589844 L 279.828125 187.589844 L 291.382812 187.535156 L 291.394531 187.535156 C 293.597656 187.527344 295.804688 187.511719 297.449219 187.683594 C 299.089844 187.867188 300.148438 188.230469 301.203125 188.585938 C 301.214844 188.585938 301.222656 188.597656 301.222656 188.597656 C 302.03125 189 302.863281 189.433594 303.5 190.085938 C 303.734375 190.339844 303.9375 190.621094 304.144531 190.890625 C 304.464844 191.332031 304.753906 191.714844 305.097656 191.90625 C 305.515625 192.132812 306.0625 192.113281 306.609375 191.886719 C 306.78125 191.8125 306.953125 191.714844 307.128906 191.605469 C 307.800781 191.15625 308.371094 190.410156 308.953125 189.632812 C 308.960938 189.632812 308.960938 189.625 308.960938 189.625 C 310.375 188.078125 311.730469 186.613281 311.675781 184.84375 C 311.625 183.050781 310.152344 180.933594 309.242188 179.640625 L 309.140625 179.492188 C 308.320312 178.332031 307.996094 177.875 306.578125 175.429688 C 305.976562 174.390625 305.171875 172.972656 304.3125 171.496094 C 303.101562 169.363281 301.792969 167.066406 300.828125 165.425781 C 300.3125 164.546875 299.90625 163.847656 299.539062 163.257812 C 298.769531 161.960938 298.242188 161.097656 297.503906 159.660156 C 296.417969 157.546875 294.839844 154.214844 293.734375 150.308594 C 292.632812 146.417969 291.964844 141.960938 292.386719 138.753906 C 292.769531 135.707031 294.136719 133.8125 295.472656 131.996094 L 295.710938 131.675781 C 297.113281 129.777344 298.457031 127.890625 298.136719 124 C 297.804688 120.074219 295.773438 114.125 293.746094 108.140625 C 292.222656 103.339844 290.6875 98.539062 289.390625 93.335938 C 288.925781 91.460938 288.488281 89.539062 288.058594 87.695312 C 287.308594 84.40625 286.625 81.371094 285.914062 79.285156 C 284.820312 76.03125 283.691406 75.078125 282.574219 74.113281 C 282.535156 74.082031 282.511719 74.027344 282.523438 73.976562 C 282.523438 73.929688 282.554688 73.886719 282.597656 73.855469 L 287.703125 71.066406 C 287.746094 71.046875 287.789062 71.046875 287.835938 71.054688 C 287.878906 71.078125 287.910156 71.125 287.921875 71.167969 L 298.445312 109.375 C 299.816406 113.675781 301.203125 118.007812 301.6875 121.179688 C 302.15625 124.363281 301.730469 126.398438 301.296875 128.417969 L 301.296875 128.441406 L 301.277344 128.320312 C 301.792969 129.082031 302.339844 129.882812 302.289062 131.023438 C 302.230469 132.148438 301.585938 133.5625 299.773438 135.222656 C 299.5625 135.417969 299.335938 135.613281 299.101562 135.824219 C 297.328125 137.347656 295.121094 139.253906 295.453125 143.289062 C 295.816406 147.910156 299.515625 155.304688 303.273438 162.003906 C 307.015625 168.6875 310.804688 174.628906 314.589844 180.574219 C 314.589844 180.574219 314.589844 180.574219 314.589844 180.585938 C 315.179688 181.734375 315.804688 182.945312 315.523438 184.4375 C 315.386719 185.144531 315.042969 185.914062 314.613281 186.742188 C 314.390625 187.167969 314.152344 187.609375 313.894531 188.070312 C 313.617188 188.5625 313.324219 189.085938 313.046875 189.625 C 312.789062 190.109375 312.554688 190.597656 312.308594 191.09375 C 311.523438 192.691406 310.734375 194.308594 309.792969 195.230469 C 309.398438 195.628906 308.984375 195.894531 308.519531 196.089844 C 307.886719 196.359375 307.167969 196.476562 306.320312 196.570312 C 306.117188 196.59375 305.894531 196.625 305.667969 196.648438 C 305.417969 196.679688 305.160156 196.703125 304.894531 196.734375 C 302.664062 197.003906 299.585938 197.523438 296.492188 198.050781 L 296.582031 197.804688 C 298.714844 200.425781 300.871094 203.058594 302.21875 206.832031 C 303.5625 210.597656 304.101562 215.484375 304.644531 220.34375 C 304.644531 220.34375 304.644531 220.351562 304.644531 220.351562 C 304.691406 221.476562 304.753906 222.75 303.894531 223.382812 C 303.765625 223.484375 303.617188 223.558594 303.453125 223.632812 C 303.164062 223.753906 302.832031 223.828125 302.488281 223.890625 C 302.125 223.953125 301.730469 223.996094 301.339844 224.042969 C 300.976562 224.085938 300.625 224.128906 300.3125 224.179688 C 299.828125 224.265625 299.433594 224.386719 299.089844 224.53125 C 298.625 224.726562 298.242188 224.960938 297.84375 225.195312 C 297.320312 225.527344 296.824219 225.828125 297.160156 227.125 C 297.511719 228.492188 298.769531 230.878906 300.03125 233.3125 C 300.042969 233.324219 300.042969 233.335938 300.054688 233.347656 L 300.828125 237.386719 C 300.828125 237.398438 300.828125 237.410156 300.828125 237.421875 C 300.4375 250.503906 300.066406 263.570312 300.539062 272.15625 C 300.921875 279.328125 301.910156 283.359375 302.746094 286.375 C 302.832031 286.6875 302.910156 286.964844 302.996094 287.25 C 303.070312 287.519531 303.144531 287.789062 303.210938 288.046875 C 303.511719 289.117188 303.753906 290.09375 303.980469 290.972656 C 304.445312 292.765625 304.808594 294.191406 305.292969 295.367188 C 305.453125 295.777344 305.636719 296.152344 305.804688 296.515625 C 306.382812 297.75 306.921875 298.863281 306.4375 300.25 C 305.816406 302.015625 303.554688 304.179688 297.566406 307.289062 C 296.3125 307.945312 294.894531 308.628906 293.296875 309.300781 C 287.257812 311.804688 278.769531 313.863281 267.511719 311.507812 C 254.488281 308.773438 237.761719 300.097656 227.984375 294.929688 C 227.539062 294.695312 227.074219 294.445312 226.65625 294.234375 C 226.257812 294.019531 225.871094 293.8125 225.507812 293.625 C 218.457031 289.902344 216.957031 289.226562 216.730469 289.226562 C 216.730469 289.226562 216.742188 289.226562 216.753906 289.21875 C 216.761719 289.21875 216.761719 289.21875 216.773438 289.21875 C 216.859375 289.164062 216.816406 289.0625 216.828125 289.085938 C 216.828125 289.085938 216.835938 289.105469 216.859375 289.136719 L 216.730469 289.21875 C 216.890625 289.183594 216.890625 289.25 216.859375 289.289062 C 213.542969 294.726562 210.226562 300.136719 207.730469 307.25 C 205.21875 314.371094 203.503906 323.171875 201.792969 331.996094 C 201.773438 332.070312 201.710938 332.121094 201.636719 332.121094 C 201.566406 332.121094 201.503906 332.070312 201.492188 331.996094 C 200.902344 328.210938 200.3125 324.414062 200.882812 319.019531 C 201.453125 313.625 203.179688 306.625 204.757812 300.582031 C 206.320312 294.523438 207.75 289.417969 209.179688 284.292969 L 209.222656 284.457031 L 191.636719 268.867188 C 189.414062 266.710938 187.203125 264.566406 183.941406 261.351562 C 180.691406 258.132812 176.347656 253.800781 175.371094 247.984375 C 174.523438 242.855469 176.285156 236.617188 178.375 229.714844 C 178.523438 229.238281 178.660156 228.78125 178.8125 228.296875 C 178.949219 227.816406 179.101562 227.332031 179.25 226.835938 C 181.703125 218.789062 184.222656 209.910156 186.066406 197.097656 C 187.910156 184.285156 189.089844 167.550781 190.28125 150.804688 L 191.164062 140.292969 L 191.171875 140.363281 C 191.140625 140.285156 191.183594 140.199219 191.257812 140.167969 C 191.335938 140.136719 191.421875 140.167969 191.453125 140.242188 Z M 191.453125 140.242188 " fill-opacity="1" fill-rule="nonzero"/></g><g clip-path="url(#d34f9266f0)"><path fill="#ffffff" d="M 205.917969 154.425781 Z M 205.761719 154.226562 C 205.773438 154.226562 205.796875 154.234375 205.820312 154.234375 C 205.882812 154.265625 205.917969 154.351562 205.882812 154.414062 C 205.851562 154.46875 205.8125 154.492188 205.761719 154.492188 C 205.742188 154.492188 205.722656 154.492188 205.710938 154.476562 L 205.699219 154.476562 C 205.636719 154.445312 205.605469 154.371094 205.636719 154.308594 C 205.65625 154.257812 205.710938 154.226562 205.761719 154.226562 Z M 287.941406 72.367188 L 287.929688 72.378906 C 287.898438 72.398438 287.867188 72.429688 287.835938 72.464844 C 287.101562 73.09375 285.546875 74.027344 283.953125 74.972656 C 283.941406 74.980469 283.941406 74.992188 283.941406 75.003906 C 283.941406 75.003906 283.941406 75.015625 283.953125 75.015625 C 284.699219 75.839844 285.453125 77.015625 286.179688 79.183594 C 286.886719 81.296875 287.589844 84.355469 288.335938 87.621094 L 288.335938 87.632812 C 288.335938 87.632812 288.347656 87.644531 288.347656 87.644531 C 288.769531 89.488281 289.207031 91.394531 289.671875 93.261719 C 290.96875 98.449219 292.492188 103.253906 294.011719 108.058594 C 294.011719 108.058594 294.011719 108.066406 294.011719 108.066406 L 294.023438 108.078125 L 294.023438 108.089844 C 296.054688 114.039062 298.082031 120.011719 298.414062 123.980469 C 298.746094 127.964844 297.359375 129.925781 295.9375 131.851562 L 295.699219 132.171875 C 294.355469 133.980469 293.050781 135.824219 292.664062 138.785156 C 292.253906 141.9375 292.90625 146.355469 294.011719 150.234375 C 295.109375 154.101562 296.675781 157.429688 297.761719 159.53125 C 298.5 160.957031 299.015625 161.824219 299.785156 163.113281 C 300.136719 163.703125 300.570312 164.40625 301.078125 165.289062 C 302.042969 166.917969 303.347656 169.21875 304.570312 171.34375 C 305.417969 172.847656 306.226562 174.238281 306.828125 175.292969 C 308.230469 177.722656 308.550781 178.175781 309.367188 179.328125 L 309.472656 179.484375 C 310.363281 180.746094 311.914062 182.945312 311.964844 184.832031 C 312.019531 186.730469 310.578125 188.285156 309.210938 189.789062 C 309.183594 189.808594 309.183594 189.808594 309.171875 189.820312 C 309.171875 189.820312 309.171875 189.828125 309.171875 189.828125 L 309.160156 189.828125 C 308.597656 190.589844 308.007812 191.375 307.273438 191.84375 C 307.097656 191.976562 306.910156 192.070312 306.714844 192.144531 C 306.40625 192.285156 306.082031 192.347656 305.773438 192.347656 C 305.484375 192.347656 305.214844 192.296875 304.964844 192.152344 C 304.550781 191.933594 304.226562 191.5 303.917969 191.074219 L 303.90625 191.0625 C 303.710938 190.792969 303.511719 190.523438 303.296875 190.289062 C 302.707031 189.675781 301.929688 189.269531 301.128906 188.863281 C 301.117188 188.863281 301.117188 188.855469 301.117188 188.855469 L 301.085938 188.855469 C 300.042969 188.5 299.015625 188.144531 297.414062 187.972656 C 296.136719 187.832031 294.507812 187.8125 292.789062 187.8125 C 292.351562 187.8125 291.847656 187.8125 291.394531 187.8125 L 279.828125 187.878906 C 279.820312 187.878906 279.820312 187.878906 279.820312 187.878906 L 279.796875 187.878906 C 278.917969 187.777344 278.015625 187.683594 277.351562 187.46875 C 276.65625 187.257812 276.191406 186.886719 275.914062 185.921875 C 275.644531 184.992188 275.550781 183.472656 275.582031 182.335938 C 275.613281 181.507812 275.707031 180.886719 275.828125 180.320312 L 275.820312 180.300781 L 275.796875 180.308594 C 275.03125 181.253906 274.328125 182.195312 273.953125 183.257812 C 273.511719 184.480469 273.5 185.859375 274.628906 187.640625 C 275.777344 189.457031 278.070312 191.652344 280.386719 193.882812 C 280.421875 193.914062 280.429688 193.957031 280.421875 194 C 280.410156 194.039062 280.386719 194.082031 280.347656 194.09375 L 280.324219 194.105469 C 280.097656 194.214844 279.859375 194.308594 279.625 194.414062 C 279.003906 194.664062 278.316406 194.921875 277.339844 195.136719 C 276.886719 195.230469 276.378906 195.328125 275.828125 195.4375 C 275.1875 195.554688 274.484375 195.679688 273.769531 195.84375 C 273.242188 195.960938 272.703125 196.101562 272.179688 196.261719 C 271.71875 196.390625 271.257812 196.550781 270.804688 196.734375 C 269.347656 197.347656 267.863281 198.320312 266.351562 200.292969 C 264.347656 202.886719 262.289062 207.195312 260.410156 211.976562 C 258.53125 216.769531 256.847656 222.003906 255.152344 227.257812 C 255.140625 227.3125 255.097656 227.34375 255.046875 227.351562 C 255.035156 227.351562 255.035156 227.351562 255.023438 227.351562 C 254.984375 227.351562 254.941406 227.332031 254.914062 227.289062 L 254.902344 227.277344 C 253.855469 225.671875 252.78125 224.03125 252.125 221.609375 C 251.460938 219.183594 251.214844 215.96875 251.066406 213.265625 C 251.054688 213.09375 251.046875 212.847656 251.035156 212.671875 C 251.023438 212.484375 251.007812 212.300781 250.996094 212.109375 C 250.871094 209.933594 250.722656 208.160156 249.980469 206.757812 C 249.328125 205.527344 248.21875 204.5625 246.601562 203.164062 L 246.601562 203.152344 C 246.0625 202.695312 245.484375 202.191406 244.839844 201.621094 C 242.28125 199.304688 238.875 195.855469 235.464844 192.402344 L 235.464844 192.390625 L 235.464844 192.414062 L 235.464844 192.390625 L 235.410156 192.347656 C 228.554688 186.011719 221.695312 179.679688 217.71875 175.71875 C 213.738281 171.75 212.621094 170.164062 211.914062 167.527344 C 211.214844 164.925781 210.914062 161.289062 210.601562 157.675781 L 210.601562 157.667969 C 210.601562 157.667969 210.601562 157.65625 210.601562 157.644531 L 211.386719 144.832031 L 211.367188 144.8125 L 191.238281 143.144531 C 191.238281 143.144531 191.226562 143.144531 191.226562 143.144531 C 191.214844 143.144531 191.207031 143.144531 191.207031 143.160156 L 190.5625 150.824219 C 189.382812 167.570312 188.199219 184.316406 186.34375 197.140625 C 184.5 209.964844 181.976562 218.863281 179.53125 226.925781 C 179.371094 227.4375 179.242188 227.859375 179.082031 228.371094 L 179.082031 228.378906 C 178.941406 228.855469 178.792969 229.324219 178.648438 229.796875 C 176.546875 236.714844 174.824219 242.886719 175.660156 247.925781 C 176.605469 253.644531 180.875 257.917969 184.148438 261.144531 C 187.394531 264.355469 189.609375 266.496094 191.816406 268.640625 L 191.835938 268.660156 L 191.828125 268.648438 L 209.410156 284.242188 C 209.449219 284.273438 209.46875 284.324219 209.449219 284.367188 C 208.03125 289.496094 206.601562 294.597656 205.027344 300.65625 C 203.460938 306.699219 201.730469 313.679688 201.171875 319.039062 C 200.644531 323.996094 201.109375 327.589844 201.636719 331.082031 C 201.648438 331.09375 201.648438 331.09375 201.65625 331.09375 C 201.667969 331.09375 201.679688 331.09375 201.679688 331.082031 C 203.339844 322.550781 205.027344 314.058594 207.460938 307.152344 C 209.957031 300.054688 213.265625 294.628906 216.558594 289.226562 C 216.558594 289.226562 216.570312 289.226562 216.570312 289.226562 C 216.570312 289.21875 216.570312 289.207031 216.570312 289.207031 C 216.570312 289.195312 216.558594 289.183594 216.558594 289.183594 L 216.558594 289.175781 C 216.546875 289.136719 216.515625 289.03125 216.621094 288.96875 C 216.632812 288.957031 216.632812 288.957031 216.640625 288.957031 C 216.679688 288.949219 216.710938 288.9375 216.730469 288.9375 C 217.054688 288.9375 218.683594 289.6875 225.632812 293.363281 C 225.644531 293.375 225.667969 293.386719 225.667969 293.386719 L 226.785156 293.976562 C 227.15625 294.167969 227.714844 294.46875 228.117188 294.683594 C 237.898438 299.855469 254.59375 308.503906 267.574219 311.226562 C 271.042969 311.957031 274.253906 312.257812 277.199219 312.257812 C 283.757812 312.257812 289.046875 310.753906 293.1875 309.03125 C 294.765625 308.375 296.179688 307.6875 297.433594 307.03125 C 303.433594 303.921875 305.59375 301.804688 306.167969 300.160156 C 306.609375 298.894531 306.136719 297.886719 305.546875 296.632812 C 305.378906 296.269531 305.191406 295.894531 305.023438 295.488281 C 304.527344 294.277344 304.164062 292.828125 303.710938 291.0625 L 303.710938 291.050781 C 303.480469 290.160156 303.230469 289.195312 302.941406 288.121094 C 302.863281 287.863281 302.789062 287.597656 302.714844 287.332031 C 302.632812 287.03125 302.550781 286.769531 302.46875 286.449219 C 301.628906 283.425781 300.644531 279.359375 300.25 272.171875 C 299.773438 263.578125 300.164062 250.511719 300.539062 237.441406 L 300.539062 237.453125 L 300.539062 237.441406 L 299.773438 233.441406 C 299.773438 233.441406 299.773438 233.429688 299.773438 233.429688 L 299.773438 233.417969 L 299.765625 233.410156 C 298.507812 231.011719 297.246094 228.597656 296.890625 227.207031 C 296.5 225.734375 297.113281 225.328125 297.691406 224.949219 L 297.703125 224.949219 C 298.09375 224.71875 298.488281 224.46875 298.984375 224.265625 C 299.347656 224.117188 299.765625 223.984375 300.257812 223.898438 C 300.589844 223.835938 300.945312 223.796875 301.308594 223.761719 L 301.320312 223.761719 C 301.699219 223.722656 302.082031 223.671875 302.445312 223.609375 C 302.777344 223.546875 303.089844 223.472656 303.347656 223.363281 C 303.492188 223.300781 303.617188 223.234375 303.722656 223.164062 C 304.433594 222.636719 304.402344 221.566406 304.355469 220.375 L 304.355469 220.382812 L 304.355469 220.375 C 303.824219 215.492188 303.285156 210.648438 301.953125 206.929688 C 300.625 203.207031 298.5 200.601562 296.363281 197.988281 C 296.332031 197.945312 296.320312 197.898438 296.34375 197.855469 C 296.355469 197.804688 296.394531 197.773438 296.4375 197.773438 C 299.527344 197.246094 302.621094 196.722656 304.859375 196.453125 C 305.121094 196.421875 305.386719 196.390625 305.625 196.371094 L 305.636719 196.371094 L 305.644531 196.359375 L 305.65625 196.359375 C 305.882812 196.339844 306.082031 196.3125 306.289062 196.292969 C 307.128906 196.1875 307.8125 196.082031 308.414062 195.824219 C 308.839844 195.648438 309.230469 195.40625 309.605469 195.027344 C 310.484375 194.152344 311.253906 192.585938 312.050781 190.960938 C 312.296875 190.472656 312.546875 189.976562 312.789062 189.496094 C 313.078125 188.949219 313.367188 188.421875 313.648438 187.933594 C 313.894531 187.46875 314.144531 187.03125 314.359375 186.613281 C 314.785156 185.785156 315.117188 185.046875 315.238281 184.382812 C 315.503906 183.007812 314.9375 181.886719 314.347656 180.726562 C 310.570312 174.785156 306.78125 168.835938 303.027344 162.148438 C 299.285156 155.46875 295.535156 148.003906 295.164062 143.308594 C 294.832031 139.140625 297.132812 137.132812 298.90625 135.613281 L 298.90625 135.597656 L 298.914062 135.597656 C 299.152344 135.398438 299.378906 135.203125 299.585938 135.011719 C 301.367188 133.378906 301.953125 132.027344 302 131.011719 C 302.050781 129.984375 301.554688 129.25 301.039062 128.480469 C 301.019531 128.449219 301.007812 128.40625 301.019531 128.375 L 301.019531 128.359375 C 301.449219 126.347656 301.867188 124.355469 301.398438 121.222656 C 300.921875 118.070312 299.546875 113.769531 298.167969 109.460938 L 287.960938 72.390625 Z M 287.941406 72.367188 " fill-opacity="1" fill-rule="nonzero"/></g><path fill="#ffffff" d="M 245.835938 129.363281 L 245.679688 129.105469 L 245.730469 129.070312 C 249.359375 126.980469 252.972656 124.898438 256.453125 122.875 L 256.765625 122.679688 L 257.085938 122.5 C 260.332031 120.601562 263.46875 118.800781 266.152344 118.09375 C 269.023438 117.351562 271.375 117.867188 274.390625 118.671875 C 277.40625 119.472656 281.125 120.582031 284.84375 121.683594 L 284.832031 121.683594 L 287.234375 122.21875 L 287.226562 122.21875 C 288.15625 122.355469 289.183594 122.511719 289.777344 123.257812 C 289.796875 123.289062 289.828125 123.335938 289.847656 123.378906 C 290.355469 124.117188 290.460938 125.328125 290.570312 126.472656 L 290.441406 126.347656 L 292.09375 126.65625 L 291.972656 126.679688 L 293.722656 125.566406 C 293.765625 125.53125 293.820312 125.53125 293.867188 125.554688 C 293.917969 125.578125 293.949219 125.621094 293.960938 125.671875 C 294.117188 126.691406 294.304688 127.785156 293.746094 128.792969 C 293.265625 129.695312 292.199219 130.503906 291.007812 131.429688 C 290.871094 131.539062 290.730469 131.65625 290.59375 131.761719 C 290.550781 131.792969 290.503906 131.839844 290.460938 131.871094 C 290.410156 131.902344 290.375 131.933594 290.324219 131.964844 C 289.039062 132.984375 287.523438 134.121094 285.613281 133.605469 C 284.441406 133.285156 283.144531 132.351562 281.738281 131.332031 C 280.710938 130.605469 279.613281 129.820312 278.445312 129.167969 C 275.664062 127.621094 272.449219 126.832031 268.234375 126.59375 C 264.007812 126.359375 258.800781 126.667969 255.324219 127.214844 C 252.546875 127.652344 250.890625 128.234375 249.691406 128.652344 C 249.402344 128.761719 249.121094 128.855469 248.875 128.929688 C 247.585938 129.351562 246.78125 129.382812 245.980469 129.414062 C 245.890625 129.414062 245.816406 129.351562 245.816406 129.261719 C 245.816406 129.175781 245.878906 129.105469 245.96875 129.105469 C 246.761719 129.070312 247.535156 129.039062 248.777344 128.640625 C 249.027344 128.566406 249.296875 128.472656 249.597656 128.359375 C 250.796875 127.945312 252.480469 127.355469 255.28125 126.917969 C 258.765625 126.367188 264.007812 126.046875 268.246094 126.292969 C 272.492188 126.53125 275.765625 127.320312 278.597656 128.898438 C 279.777344 129.5625 280.894531 130.359375 281.910156 131.085938 C 283.339844 132.113281 284.59375 133.003906 285.691406 133.304688 C 287.425781 133.777344 288.820312 132.757812 290.140625 131.730469 C 290.179688 131.6875 290.230469 131.664062 290.269531 131.625 C 290.3125 131.589844 290.367188 131.558594 290.410156 131.527344 C 290.550781 131.40625 290.6875 131.300781 290.828125 131.191406 C 292.03125 130.246094 293.027344 129.46875 293.476562 128.640625 C 293.980469 127.742188 293.820312 126.753906 293.660156 125.714844 L 293.886719 125.820312 L 292.148438 126.9375 C 292.117188 126.957031 292.074219 126.96875 292.03125 126.957031 L 290.386719 126.648438 C 290.324219 126.636719 290.269531 126.574219 290.261719 126.511719 C 290.148438 125.328125 290.042969 124.210938 289.605469 123.546875 C 289.582031 123.507812 289.550781 123.472656 289.527344 123.441406 C 289.039062 122.820312 288.15625 122.667969 287.167969 122.519531 C 287.167969 122.519531 287.167969 122.519531 287.15625 122.519531 L 284.761719 121.984375 C 284.753906 121.984375 284.753906 121.984375 284.753906 121.972656 C 281.03125 120.882812 277.332031 119.773438 274.316406 118.972656 C 271.300781 118.167969 269.015625 117.660156 266.234375 118.394531 C 263.59375 119.078125 260.507812 120.859375 257.234375 122.769531 L 256.921875 122.949219 L 256.601562 123.132812 C 253.121094 125.167969 249.507812 127.25 245.878906 129.339844 L 245.835938 129.363281 C 245.765625 129.402344 245.679688 129.382812 245.625 129.304688 C 245.578125 129.242188 245.605469 129.144531 245.679688 129.105469 C 245.742188 129.0625 245.835938 129.082031 245.878906 129.144531 C 245.9375 129.21875 245.917969 129.304688 245.835938 129.363281 Z M 245.835938 129.363281 " fill-opacity="1" fill-rule="nonzero"/><path fill="#ffffff" d="M 246.3125 129.082031 Z M 246.3125 129.082031 Z M 246.3125 129.082031 L 246.3125 129.09375 Z M 246.3125 129.09375 Z M 246.3125 129.09375 Z M 268.949219 118.03125 C 268.070312 118.03125 267.179688 118.136719 266.226562 118.382812 C 263.59375 119.066406 260.496094 120.847656 257.234375 122.757812 L 256.910156 122.9375 L 256.601562 123.132812 C 253.253906 125.082031 249.796875 127.074219 246.3125 129.082031 L 246.3125 129.09375 C 246.996094 129.0625 247.71875 128.984375 248.777344 128.652344 C 249.039062 128.578125 249.296875 128.480469 249.597656 128.375 C 250.796875 127.953125 252.480469 127.363281 255.28125 126.925781 C 257.964844 126.5 261.6875 126.21875 265.199219 126.21875 C 266.234375 126.21875 267.265625 126.242188 268.246094 126.292969 C 272.492188 126.542969 275.753906 127.332031 278.585938 128.910156 C 279.777344 129.5625 280.882812 130.359375 281.902344 131.097656 L 281.910156 131.097656 C 283.339844 132.113281 284.582031 133.015625 285.691406 133.316406 C 285.992188 133.390625 286.277344 133.4375 286.566406 133.4375 C 287.921875 133.4375 289.058594 132.585938 290.140625 131.738281 C 290.171875 131.71875 290.148438 131.730469 290.171875 131.71875 C 290.191406 131.695312 290.238281 131.664062 290.261719 131.644531 L 290.28125 131.632812 C 290.335938 131.589844 290.355469 131.570312 290.410156 131.527344 L 290.417969 131.519531 C 290.550781 131.417969 290.699219 131.300781 290.828125 131.191406 C 292.042969 130.261719 293.039062 129.476562 293.488281 128.652344 C 293.949219 127.808594 293.855469 126.90625 293.703125 125.953125 L 293.691406 125.941406 L 293.679688 125.941406 L 292.136719 126.925781 C 292.117188 126.949219 292.085938 126.957031 292.0625 126.957031 C 292.054688 126.957031 292.042969 126.949219 292.03125 126.949219 L 290.386719 126.636719 C 290.324219 126.625 290.28125 126.574219 290.269531 126.511719 C 290.160156 125.328125 290.054688 124.203125 289.605469 123.539062 C 289.582031 123.507812 289.558594 123.472656 289.539062 123.441406 C 289.046875 122.808594 288.15625 122.65625 287.167969 122.511719 L 284.761719 121.972656 C 284.761719 121.972656 284.753906 121.972656 284.753906 121.972656 L 284.617188 121.929688 C 280.945312 120.839844 277.289062 119.753906 274.316406 118.960938 C 272.328125 118.425781 270.660156 118.03125 268.949219 118.03125 Z M 268.949219 118.03125 " fill-opacity="1" fill-rule="nonzero"/><path fill="#ffffff" d="M 257.007812 137.421875 C 256.933594 137.441406 256.859375 137.410156 256.828125 137.335938 C 256.804688 137.261719 256.828125 137.1875 256.890625 137.140625 C 258.628906 136.113281 260.390625 135.074219 263.714844 134.195312 C 267.03125 133.316406 271.921875 132.585938 275.40625 132.609375 C 278.917969 132.640625 281.03125 133.425781 283.113281 134.207031 C 283.167969 134.214844 283.199219 134.257812 283.207031 134.300781 C 283.21875 134.347656 283.21875 134.402344 283.1875 134.441406 C 282.574219 135.277344 281.941406 136.136719 280.625 137.1875 C 280.097656 137.605469 279.464844 138.042969 278.824219 138.496094 C 278.144531 138.964844 277.46875 139.449219 276.886719 139.910156 C 276.621094 140.113281 276.386719 140.316406 276.171875 140.519531 C 275.054688 141.558594 274.785156 142.429688 274.917969 143.402344 C 274.9375 143.609375 274.980469 143.816406 275.03125 144.015625 C 275.097656 144.316406 275.195312 144.605469 275.28125 144.90625 C 275.363281 145.183594 275.453125 145.464844 275.519531 145.722656 C 275.570312 145.964844 275.613281 146.203125 275.625 146.417969 C 275.664062 147.308594 275.144531 147.839844 274.667969 148.328125 C 274.636719 148.359375 274.59375 148.378906 274.542969 148.367188 C 274.496094 148.367188 274.453125 148.335938 274.433594 148.304688 L 273.261719 146.40625 L 273.339844 146.472656 C 270.710938 145.433594 268.070312 144.390625 266.097656 143.425781 C 264.121094 142.46875 262.804688 141.605469 261.503906 140.738281 C 261.503906 140.738281 261.492188 140.738281 261.492188 140.738281 L 256.953125 137.464844 C 256.878906 137.410156 256.871094 137.316406 256.921875 137.253906 C 256.964844 137.171875 257.066406 137.164062 257.128906 137.210938 L 261.675781 140.488281 L 261.667969 140.476562 C 262.972656 141.347656 264.269531 142.203125 266.226562 143.160156 C 268.1875 144.105469 270.816406 145.144531 273.457031 146.191406 C 273.476562 146.203125 273.511719 146.222656 273.519531 146.246094 L 274.691406 148.140625 L 274.453125 148.109375 C 274.925781 147.621094 275.355469 147.175781 275.324219 146.429688 C 275.3125 146.246094 275.269531 146.035156 275.21875 145.796875 C 275.15625 145.539062 275.074219 145.269531 274.992188 144.988281 C 274.894531 144.699219 274.804688 144.390625 274.734375 144.089844 C 274.679688 143.878906 274.636719 143.660156 274.605469 143.445312 C 274.472656 142.355469 274.785156 141.390625 275.964844 140.292969 C 276.183594 140.09375 276.429688 139.878906 276.699219 139.660156 C 277.289062 139.203125 277.972656 138.71875 278.648438 138.25 C 279.292969 137.796875 279.914062 137.359375 280.429688 136.953125 C 281.726562 135.925781 282.328125 135.097656 282.941406 134.257812 L 283.019531 134.496094 C 280.9375 133.710938 278.863281 132.941406 275.40625 132.917969 C 271.945312 132.886719 267.085938 133.617188 263.789062 134.484375 C 260.507812 135.367188 258.777344 136.382812 257.054688 137.410156 L 256.933594 137.132812 C 257.015625 137.109375 257.097656 137.164062 257.117188 137.242188 C 257.136719 137.328125 257.097656 137.410156 257.007812 137.421875 Z M 257.007812 137.421875 " fill-opacity="1" fill-rule="nonzero"/><path fill="#ffffff" d="M 269.871094 136.320312 L 269.988281 136.1875 L 269.355469 142.503906 C 269.347656 142.550781 269.324219 142.59375 269.292969 142.613281 C 269.261719 142.644531 269.207031 142.65625 269.167969 142.644531 C 268.164062 142.429688 267.136719 142.21875 265.839844 141.605469 C 264.527344 141.003906 262.953125 140.003906 261.375 139.007812 C 261.335938 138.988281 261.3125 138.945312 261.3125 138.890625 C 261.300781 138.847656 261.324219 138.796875 261.367188 138.765625 C 262.457031 137.894531 263.574219 137.003906 265.003906 136.566406 C 266.410156 136.113281 268.113281 136.113281 269.800781 136.113281 C 269.871094 136.113281 269.945312 136.175781 269.945312 136.265625 C 269.945312 136.351562 269.871094 136.425781 269.800781 136.425781 C 268.101562 136.425781 266.453125 136.425781 265.085938 136.851562 C 263.738281 137.285156 262.652344 138.132812 261.554688 139.007812 L 261.546875 138.753906 C 263.125 139.75 264.679688 140.738281 265.96875 141.328125 C 267.230469 141.929688 268.234375 142.128906 269.230469 142.34375 L 269.046875 142.46875 L 269.6875 136.15625 C 269.6875 136.09375 269.746094 136.039062 269.808594 136.019531 C 269.882812 135.996094 269.96875 136.050781 269.988281 136.136719 C 270.015625 136.207031 269.957031 136.296875 269.871094 136.320312 Z M 269.871094 136.320312 " fill-opacity="1" fill-rule="nonzero"/><path fill="#ffffff" d="M 269.839844 136.03125 C 269.90625 136.03125 269.96875 136.070312 269.976562 136.136719 C 269.976562 136.144531 269.988281 136.167969 269.976562 136.175781 L 269.988281 136.175781 L 269.976562 136.1875 L 269.347656 142.503906 C 269.335938 142.550781 269.3125 142.582031 269.28125 142.613281 C 269.261719 142.625 269.230469 142.632812 269.199219 142.632812 C 269.1875 142.632812 269.1875 142.632812 269.175781 142.632812 L 269.167969 142.632812 C 268.15625 142.417969 267.148438 142.203125 265.839844 141.605469 C 264.539062 140.996094 262.960938 139.992188 261.386719 139.007812 C 261.34375 138.976562 261.324219 138.933594 261.324219 138.890625 C 261.3125 138.847656 261.335938 138.808594 261.375 138.777344 L 261.375 138.765625 C 261.386719 138.765625 261.386719 138.765625 261.386719 138.753906 C 262.484375 137.894531 263.585938 137.015625 265.003906 136.578125 C 266.382812 136.136719 268.050781 136.125 269.6875 136.125 L 269.699219 136.125 L 269.699219 136.113281 C 269.726562 136.070312 269.757812 136.039062 269.808594 136.03125 C 269.820312 136.03125 269.832031 136.03125 269.839844 136.03125 Z M 275.226562 132.910156 C 271.769531 132.910156 267.03125 133.625 263.789062 134.484375 C 260.621094 135.324219 258.910156 136.296875 257.234375 137.285156 L 257.242188 137.304688 L 261.667969 140.488281 C 262.972656 141.359375 264.269531 142.21875 266.226562 143.160156 C 268.1875 144.113281 270.816406 145.152344 273.445312 146.191406 C 273.476562 146.203125 273.5 146.222656 273.519531 146.253906 L 274.585938 147.972656 L 274.59375 147.972656 C 275.011719 147.53125 275.355469 147.113281 275.324219 146.429688 C 275.324219 146.246094 275.28125 146.035156 275.226562 145.796875 C 275.164062 145.539062 275.074219 145.269531 275 144.988281 L 274.992188 144.988281 L 274.992188 144.980469 C 274.90625 144.691406 274.816406 144.390625 274.742188 144.089844 C 274.691406 143.878906 274.648438 143.652344 274.617188 143.445312 C 274.484375 142.355469 274.796875 141.402344 275.964844 140.292969 C 276.191406 140.09375 276.441406 139.886719 276.710938 139.671875 C 277.300781 139.203125 277.984375 138.71875 278.648438 138.257812 C 279.292969 137.796875 279.914062 137.359375 280.441406 136.953125 C 281.644531 135.996094 282.253906 135.210938 282.824219 134.433594 L 282.824219 134.410156 C 280.804688 133.65625 278.769531 132.929688 275.40625 132.910156 C 275.355469 132.910156 275.28125 132.910156 275.226562 132.910156 Z M 274.59375 147.972656 Z M 274.59375 147.972656 " fill-opacity="1" fill-rule="nonzero"/></svg>