<svg xmlns="http://www.w3.org/2000/svg" xmlns:xlink="http://www.w3.org/1999/xlink" width="500" zoomAndPan="magnify" viewBox="0 0 375 374.999991" height="500" preserveAspectRatio="xMidYMid meet" version="1.0"><defs><clipPath id="1bc00df8e5"><path d="M 88 259.132812 L 171 259.132812 L 171 307 L 88 307 Z M 88 259.132812 " clip-rule="nonzero"/></clipPath><clipPath id="d5c2101dd7"><path d="M 88 259.132812 L 169 259.132812 L 169 305.914062 L 88 305.914062 Z M 88 259.132812 " clip-rule="nonzero"/></clipPath><clipPath id="986825b248"><path d="M 102 227 L 205 227 L 205 320.351562 L 102 320.351562 Z M 102 227 " clip-rule="nonzero"/></clipPath><clipPath id="1d65e0e670"><path d="M 178 101 L 282.660156 101 L 282.660156 295 L 178 295 Z M 178 101 " clip-rule="nonzero"/></clipPath><clipPath id="f49d9b501a"><path d="M 178 102 L 282.660156 102 L 282.660156 294 L 178 294 Z M 178 102 " clip-rule="nonzero"/></clipPath></defs><g clip-path="url(#1bc00df8e5)"><path fill="#000000" d="M 169.96875 306.257812 L 169.867188 306.457031 C 162.703125 301.019531 155.546875 295.59375 146.570312 289.421875 C 137.574219 283.246094 126.769531 276.332031 116.734375 272.242188 C 106.699219 268.148438 97.4375 266.871094 88.148438 265.589844 C 88.101562 265.589844 88.0625 265.550781 88.054688 265.503906 C 88.046875 265.457031 88.070312 265.410156 88.109375 265.382812 C 93.253906 262.585938 98.429688 259.765625 102.890625 259.234375 C 107.359375 258.710938 111.097656 260.472656 115.535156 262.628906 C 119.980469 264.789062 125.164062 267.355469 129.320312 269.707031 C 133.480469 272.066406 136.621094 274.203125 141.082031 277.773438 C 145.535156 281.347656 151.324219 286.34375 156.347656 291.335938 C 161.382812 296.324219 165.652344 301.296875 169.921875 306.265625 C 169.960938 306.3125 169.960938 306.382812 169.914062 306.421875 C 169.867188 306.464844 169.796875 306.457031 169.753906 306.40625 C 165.476562 301.441406 161.214844 296.476562 156.191406 291.5 C 151.171875 286.519531 145.390625 281.515625 140.9375 277.953125 C 136.484375 274.386719 133.359375 272.257812 129.210938 269.90625 C 125.058594 267.5625 119.875 264.996094 115.4375 262.832031 C 110.984375 260.671875 107.304688 258.941406 102.914062 259.464844 C 98.507812 259.988281 93.378906 262.777344 88.21875 265.582031 L 88.179688 265.367188 C 97.460938 266.648438 106.753906 267.925781 116.820312 272.027344 C 126.878906 276.136719 137.703125 283.054688 146.695312 289.230469 C 155.679688 295.410156 162.84375 300.847656 170 306.273438 L 170 306.28125 C 170.050781 306.3125 170.058594 306.367188 170.035156 306.421875 C 170.007812 306.472656 169.953125 306.496094 169.898438 306.480469 C 169.84375 306.457031 169.8125 306.390625 169.828125 306.335938 C 169.84375 306.273438 169.90625 306.242188 169.96875 306.257812 Z M 169.96875 306.257812 " fill-opacity="1" fill-rule="nonzero"/></g><g clip-path="url(#d5c2101dd7)"><path fill="#000000" d="M 88.523438 265.402344 L 88.523438 265.417969 Z M 104.488281 259.347656 C 103.972656 259.347656 103.449219 259.378906 102.914062 259.441406 C 98.589844 259.949219 93.570312 262.644531 88.515625 265.390625 C 88.507812 265.390625 88.507812 265.402344 88.507812 265.402344 C 88.5 265.402344 88.5 265.410156 88.5 265.417969 C 88.5 265.425781 88.5 265.433594 88.507812 265.441406 C 88.515625 265.441406 88.515625 265.441406 88.523438 265.441406 C 97.691406 266.703125 106.875 268 116.8125 272.050781 C 126.871094 276.152344 137.695312 283.078125 146.679688 289.253906 C 155.226562 295.125 162.121094 300.328125 168.9375 305.492188 C 168.9375 305.5 168.945312 305.5 168.953125 305.5 C 168.953125 305.5 168.960938 305.5 168.960938 305.5 C 168.96875 305.492188 168.976562 305.484375 168.976562 305.476562 L 168.96875 305.460938 C 164.960938 300.804688 160.914062 296.148438 156.207031 291.476562 C 151.1875 286.496094 145.40625 281.5 140.953125 277.929688 C 136.503906 274.363281 133.367188 272.234375 129.21875 269.890625 C 125.066406 267.539062 119.890625 264.972656 115.445312 262.808594 C 111.542969 260.910156 108.21875 259.347656 104.488281 259.347656 Z M 104.488281 259.347656 " fill-opacity="1" fill-rule="nonzero"/></g><g clip-path="url(#986825b248)"><path fill="#000000" d="M 204.613281 320.136719 L 204.503906 320.335938 C 197.371094 316.070312 190.230469 311.8125 178.046875 300.8125 C 174.488281 297.605469 170.503906 293.820312 166.304688 289.839844 C 161.636719 285.40625 156.707031 280.734375 151.824219 276.324219 C 146.050781 271.121094 140.34375 266.289062 135.183594 262.667969 C 121.71875 253.210938 111.980469 251.996094 102.230469 250.773438 C 102.191406 250.773438 102.152344 250.742188 102.136719 250.707031 C 102.121094 250.667969 102.128906 250.628906 102.152344 250.597656 C 103.496094 248.777344 104.832031 246.964844 106.421875 244.203125 C 106.652344 243.796875 106.890625 243.375 107.136719 242.929688 C 108.542969 240.371094 110.046875 237.296875 111.152344 234.800781 C 111.335938 234.398438 111.511719 234 111.667969 233.625 C 111.820312 233.277344 111.972656 232.941406 112.105469 232.625 C 112.402344 231.964844 112.679688 231.363281 112.972656 230.828125 C 113.480469 229.90625 114.03125 229.175781 114.746094 228.691406 C 116.296875 227.660156 118.609375 227.769531 120.859375 227.875 C 120.925781 227.875 120.972656 227.921875 120.972656 227.984375 C 120.949219 229.058594 120.933594 230.082031 121.878906 230.988281 C 122.539062 231.617188 123.652344 232.1875 125.21875 232.992188 C 125.949219 233.363281 126.785156 233.792969 127.707031 234.292969 C 130.585938 235.867188 134.355469 238.195312 138.117188 240.523438 L 138.125 240.523438 C 143.117188 244.097656 148.109375 247.671875 153.257812 252.089844 C 158.390625 256.507812 163.679688 261.761719 169.644531 269.746094 C 175.617188 277.722656 182.261719 288.433594 186.199219 294.792969 L 186.636719 295.5 L 187.035156 296.132812 C 190.324219 301.449219 191.550781 303.402344 193.976562 306.644531 C 196.589844 310.148438 200.605469 315.15625 204.613281 320.160156 C 204.65625 320.210938 204.648438 320.28125 204.597656 320.320312 C 204.550781 320.359375 204.480469 320.351562 204.441406 320.304688 C 200.425781 315.296875 196.410156 310.285156 193.792969 306.78125 C 191.367188 303.53125 190.136719 301.570312 186.84375 296.253906 L 186.445312 295.617188 L 186.007812 294.910156 C 182.070312 288.554688 175.425781 277.851562 169.460938 269.882812 C 163.503906 261.914062 158.234375 256.667969 153.105469 252.265625 C 147.976562 247.855469 142.984375 244.28125 137.988281 240.714844 L 137.996094 240.714844 C 134.226562 238.386719 130.464844 236.058594 127.597656 234.492188 C 126.683594 233.992188 125.847656 233.5625 125.117188 233.1875 C 123.566406 232.394531 122.410156 231.804688 121.726562 231.15625 C 120.703125 230.167969 120.726562 229.050781 120.742188 227.984375 L 120.851562 228.097656 C 118.570312 227.992188 116.34375 227.898438 114.875 228.882812 C 114.199219 229.335938 113.671875 230.027344 113.171875 230.941406 C 112.886719 231.464844 112.609375 232.050781 112.3125 232.710938 C 112.179688 233.03125 112.027344 233.363281 111.875 233.714844 C 111.71875 234.09375 111.542969 234.484375 111.359375 234.898438 C 110.253906 237.390625 108.742188 240.476562 107.335938 243.042969 C 107.089844 243.488281 106.851562 243.90625 106.621094 244.3125 C 105.023438 247.085938 103.679688 248.914062 102.335938 250.726562 L 102.253906 250.550781 C 112.019531 251.773438 121.808594 252.996094 135.316406 262.476562 C 140.484375 266.109375 146.203125 270.945312 151.976562 276.152344 C 156.867188 280.570312 161.796875 285.25 166.464844 289.675781 C 170.660156 293.65625 174.644531 297.4375 178.199219 300.648438 C 190.367188 311.628906 197.492188 315.878906 204.621094 320.136719 C 204.671875 320.167969 204.695312 320.242188 204.664062 320.296875 C 204.628906 320.34375 204.558594 320.367188 204.511719 320.335938 C 204.457031 320.304688 204.433594 320.234375 204.464844 320.175781 C 204.496094 320.128906 204.558594 320.105469 204.613281 320.136719 Z M 204.613281 320.136719 " fill-opacity="1" fill-rule="nonzero"/></g><path fill="#000000" d="M 118.800781 228 C 117.28125 228 115.890625 228.160156 114.859375 228.851562 C 114.175781 229.3125 113.640625 230.011719 113.140625 230.925781 C 112.855469 231.449219 112.574219 232.042969 112.28125 232.695312 L 112.28125 232.703125 C 112.144531 233.023438 111.996094 233.355469 111.84375 233.699219 L 111.84375 233.707031 C 111.675781 234.078125 111.511719 234.476562 111.328125 234.882812 C 110.222656 237.375 108.710938 240.460938 107.304688 243.027344 C 107.066406 243.460938 106.820312 243.890625 106.589844 244.296875 C 105.039062 246.992188 103.726562 248.785156 102.421875 250.550781 C 102.414062 250.566406 102.414062 250.574219 102.414062 250.589844 C 102.421875 250.597656 102.429688 250.605469 102.445312 250.605469 C 112.144531 251.820312 121.878906 253.09375 135.292969 262.507812 C 140.46875 266.140625 146.179688 270.976562 151.953125 276.183594 C 156.84375 280.59375 161.773438 285.273438 166.441406 289.699219 C 170.636719 293.6875 174.621094 297.46875 178.175781 300.671875 C 190.007812 311.351562 197.070312 315.664062 204.011719 319.8125 C 204.011719 319.820312 204.019531 319.820312 204.027344 319.820312 C 204.035156 319.820312 204.035156 319.820312 204.042969 319.8125 C 204.050781 319.8125 204.058594 319.796875 204.058594 319.78125 C 204.058594 319.773438 204.058594 319.765625 204.050781 319.765625 C 200.179688 314.925781 196.351562 310.140625 193.816406 306.757812 C 191.390625 303.507812 190.167969 301.554688 186.875 296.238281 L 186.867188 296.238281 L 186.476562 295.59375 L 186.039062 294.894531 L 186.039062 294.886719 C 182.105469 288.539062 175.457031 277.835938 169.492188 269.859375 C 163.527344 261.886719 158.257812 256.644531 153.128906 252.234375 C 148 247.832031 143.015625 244.265625 138.019531 240.691406 C 138.019531 240.691406 138.019531 240.691406 138.011719 240.679688 C 134.25 238.355469 130.492188 236.035156 127.613281 234.460938 C 126.699219 233.960938 125.871094 233.539062 125.132812 233.15625 C 125.132812 233.15625 125.125 233.15625 125.125 233.15625 C 125.125 233.15625 125.125 233.15625 125.109375 233.148438 C 125.097656 233.140625 125.097656 233.140625 125.089844 233.140625 C 123.558594 232.355469 122.417969 231.765625 121.75 231.125 C 120.773438 230.195312 120.757812 229.128906 120.773438 228.097656 C 120.773438 228.097656 120.773438 228.085938 120.773438 228.085938 C 120.773438 228.070312 120.757812 228.054688 120.742188 228.054688 C 120.082031 228.023438 119.429688 228 118.800781 228 Z M 118.800781 228 " fill-opacity="1" fill-rule="nonzero"/><path fill="#000000" d="M 121.074219 228.054688 L 120.859375 228.007812 C 123.175781 223.582031 125.488281 219.15625 128.289062 214.136719 C 128.882812 213.070312 129.496094 211.972656 130.132812 210.863281 C 130.785156 209.710938 131.453125 208.527344 132.113281 207.332031 C 133.832031 204.265625 135.539062 201.105469 137.066406 197.949219 C 139.539062 192.847656 141.496094 187.78125 143.039062 183.800781 C 143.171875 183.457031 143.316406 183.101562 143.445312 182.773438 C 145.042969 178.660156 146.148438 175.941406 147.253906 173.222656 C 147.277344 173.167969 147.347656 173.144531 147.402344 173.167969 C 147.460938 173.191406 147.492188 173.253906 147.46875 173.3125 C 146.355469 176.027344 145.25 178.738281 143.652344 182.855469 C 143.523438 183.179688 143.386719 183.535156 143.253906 183.886719 C 141.710938 187.867188 139.746094 192.9375 137.273438 198.054688 C 135.746094 201.207031 134.019531 204.378906 132.3125 207.445312 C 131.644531 208.636719 130.976562 209.820312 130.324219 210.972656 C 129.695312 212.085938 129.082031 213.183594 128.488281 214.246094 C 125.6875 219.261719 123.375 223.6875 121.058594 228.113281 C 121.035156 228.160156 120.988281 228.183594 120.933594 228.167969 C 120.886719 228.152344 120.84375 228.113281 120.84375 228.054688 C 120.84375 227.992188 120.902344 227.945312 120.964844 227.945312 C 121.019531 227.945312 121.074219 227.992188 121.074219 228.054688 Z M 121.074219 228.054688 " fill-opacity="1" fill-rule="nonzero"/><path fill="#000000" d="M 194.628906 307.972656 L 194.4375 307.886719 C 195.121094 307.28125 195.804688 306.695312 196.359375 304.429688 C 196.917969 302.148438 197.347656 298.183594 197.785156 294.210938 C 197.785156 294.148438 197.839844 294.109375 197.902344 294.109375 C 197.96875 294.117188 198.015625 294.171875 198.007812 294.234375 C 197.578125 298.199219 197.140625 302.179688 196.574219 304.484375 C 196.011719 306.796875 195.296875 307.433594 194.589844 308.050781 C 194.554688 308.085938 194.507812 308.09375 194.46875 308.078125 C 194.429688 308.050781 194.40625 308.011719 194.40625 307.972656 C 194.40625 307.910156 194.453125 307.855469 194.515625 307.855469 C 194.578125 307.855469 194.628906 307.910156 194.628906 307.972656 Z M 194.628906 307.972656 " fill-opacity="1" fill-rule="nonzero"/><path fill="#000000" d="M 125.847656 218.871094 C 125.808594 218.855469 125.773438 218.824219 125.773438 218.777344 L 124.710938 208.191406 L 124.71875 208.199219 C 123.996094 203.617188 123.277344 199.046875 121.339844 193.652344 C 120.636719 191.6875 119.773438 189.625 118.800781 187.296875 C 117.554688 184.316406 116.128906 180.914062 114.652344 176.792969 C 114.109375 175.273438 113.5625 173.660156 113.003906 171.929688 C 109.761719 161.84375 106.453125 147.902344 104.71875 138.867188 C 102.996094 129.832031 102.851562 125.691406 103.105469 122.785156 C 103.367188 119.867188 104.027344 118.191406 104.6875 116.515625 L 104.679688 116.570312 C 104.097656 112.527344 103.519531 108.46875 103.804688 104.9375 C 104.089844 101.402344 105.253906 98.414062 106.40625 95.4375 C 108.105469 91.472656 109.816406 87.507812 111.414062 84.6875 C 111.597656 84.367188 111.773438 84.074219 111.957031 83.789062 C 113.65625 81.039062 115.230469 79.785156 117.992188 77.574219 L 118.285156 77.335938 L 118.507812 77.160156 L 118.730469 76.976562 C 121.664062 74.632812 125.855469 71.320312 132.335938 68.03125 C 139.148438 64.582031 148.484375 61.167969 156.140625 58.980469 C 163.808594 56.789062 169.796875 55.828125 175.78125 54.867188 C 175.789062 54.867188 175.789062 54.867188 175.796875 54.867188 C 177.207031 54.851562 178.613281 54.84375 180.449219 55.03125 C 181.078125 55.105469 181.761719 55.191406 182.414062 55.285156 C 183.042969 55.367188 183.648438 55.445312 184.171875 55.5 C 184.71875 55.566406 185.179688 55.597656 185.492188 55.574219 C 185.800781 55.550781 185.960938 55.484375 186.222656 55.359375 C 186.738281 55.128906 187.574219 54.753906 190.414062 54.316406 C 194.753906 53.65625 203.796875 52.863281 213.863281 53.355469 C 223.921875 53.855469 235.011719 55.636719 244.046875 58.480469 C 253.078125 61.324219 260.046875 65.226562 264.515625 68.222656 C 268.972656 71.21875 270.960938 73.324219 271.628906 75.800781 C 272.289062 78.273438 271.621094 81.078125 270.714844 83.875 C 269.816406 86.679688 268.664062 89.492188 267.203125 92.394531 C 266.351562 94.078125 265.386719 95.792969 264.578125 97.246094 C 263.988281 98.296875 263.480469 99.203125 263.136719 99.878906 C 262.820312 100.503906 262.644531 100.925781 262.519531 101.226562 C 262.445312 101.410156 262.390625 101.554688 262.328125 101.679688 C 262.3125 101.714844 262.296875 101.738281 262.28125 101.769531 C 262.175781 101.945312 262.058594 102.085938 261.867188 102.253906 C 261.285156 102.761719 259.988281 103.523438 258.710938 104.28125 C 258.667969 104.304688 258.628906 104.304688 258.597656 104.289062 L 258.550781 104.253906 C 256.070312 102.832031 253.589844 101.417969 251.15625 100.324219 C 248.707031 99.21875 246.304688 98.441406 243.886719 97.652344 L 243.894531 97.652344 C 239.300781 96.515625 234.710938 95.378906 230.734375 94.695312 C 226.75 94.003906 223.371094 93.765625 221.179688 93.648438 C 218.984375 93.527344 217.972656 93.527344 216.964844 93.527344 L 217.035156 93.332031 L 221.28125 96.929688 C 221.289062 96.929688 221.296875 96.9375 221.296875 96.945312 C 221.765625 97.550781 222.234375 98.144531 224.445312 100.757812 L 224.550781 100.878906 L 224.652344 101.007812 C 226.886719 103.652344 230.65625 108.140625 231.441406 112.210938 C 231.953125 114.832031 231.21875 117.269531 230.058594 119.3125 C 229.351562 120.550781 228.476562 121.65625 227.625 122.570312 C 225.367188 124.984375 223.199219 126.113281 221.042969 127.226562 L 221.050781 127.21875 L 221.050781 127.226562 C 218.902344 128.546875 216.757812 129.855469 215.03125 130.960938 C 213.304688 132.066406 212.007812 132.957031 211.023438 133.710938 C 210.324219 134.25 209.792969 134.71875 209.339844 135.503906 C 209.164062 135.824219 208.996094 136.195312 208.828125 136.648438 C 208.265625 138.238281 207.8125 140.789062 207.351562 143.363281 C 206.898438 145.523438 206.445312 147.679688 206.125 149.746094 C 205.808594 151.808594 205.625 153.796875 205.441406 155.78125 C 205.433594 155.847656 205.378906 155.894531 205.324219 155.886719 L 190.160156 154.628906 C 190.101562 154.628906 190.054688 154.574219 190.054688 154.511719 L 190.054688 154.503906 C 190.121094 153.296875 190.183594 152.128906 189.847656 151.300781 C 189.523438 150.476562 188.808594 149.984375 188.050781 149.457031 L 188.074219 149.472656 L 185.59375 148.550781 L 185.585938 148.550781 L 185.570312 148.542969 C 184.109375 147.878906 182.652344 147.210938 181.214844 146.683594 C 179.773438 146.167969 178.34375 145.789062 176.910156 145.40625 L 177.054688 145.277344 L 177.621094 148.648438 C 177.628906 148.695312 177.613281 148.742188 177.5625 148.765625 C 177.523438 148.789062 177.476562 148.78125 177.4375 148.75 C 176.839844 148.234375 176.234375 147.703125 175.679688 146.921875 C 175.449219 146.597656 175.21875 146.230469 174.972656 145.835938 C 174.652344 145.320312 174.296875 144.730469 173.820312 144.0625 C 173.761719 143.992188 173.707031 143.914062 173.644531 143.832031 C 172.6875 142.539062 171.289062 140.980469 169.054688 139.644531 C 166.820312 138.308594 163.769531 137.222656 160.660156 137.976562 C 157.949219 138.628906 155.171875 140.703125 153.183594 144.199219 C 152.898438 144.699219 152.628906 145.238281 152.375 145.804688 C 150.378906 150.269531 149.582031 156.59375 150.503906 162.082031 C 151.425781 167.574219 154.074219 172.246094 157.597656 176.808594 C 161.128906 181.367188 165.515625 185.800781 169.085938 187.714844 C 172.640625 189.625 175.386719 189.027344 177.207031 188.304688 C 179.027344 187.582031 179.917969 186.730469 180.816406 185.863281 C 180.847656 185.832031 180.894531 185.824219 180.933594 185.839844 C 180.976562 185.855469 181.007812 185.898438 181.007812 185.9375 L 181.148438 187.820312 C 181.148438 187.851562 181.132812 187.890625 181.101562 187.914062 C 179.542969 189.082031 177.96875 190.257812 176.125 191.023438 C 174.265625 191.785156 172.132812 192.125 169.09375 191.023438 C 166.066406 189.917969 162.128906 187.375 158.335938 184.179688 C 154.550781 180.996094 150.902344 177.148438 147.261719 173.3125 C 147.21875 173.261719 147.21875 173.191406 147.269531 173.152344 C 147.308594 173.105469 147.378906 173.105469 147.425781 173.152344 C 151.070312 176.988281 154.710938 180.828125 158.488281 184.011719 C 162.265625 187.191406 166.175781 189.71875 169.167969 190.808594 C 172.15625 191.894531 174.222656 191.554688 176.035156 190.816406 C 177.851562 190.058594 179.402344 188.898438 180.96875 187.730469 L 180.917969 187.835938 L 180.785156 185.960938 L 180.976562 186.03125 C 180.070312 186.898438 179.152344 187.78125 177.285156 188.519531 C 175.425781 189.257812 172.601562 189.863281 168.976562 187.914062 C 165.367188 185.976562 160.953125 181.511719 157.421875 176.941406 C 153.882812 172.367188 151.210938 167.660156 150.28125 162.125 C 149.351562 156.585938 150.15625 150.222656 152.167969 145.707031 C 152.421875 145.136719 152.699219 144.59375 152.992188 144.085938 C 155.003906 140.550781 157.820312 138.429688 160.601562 137.753906 C 163.792969 136.976562 166.917969 138.105469 169.175781 139.453125 C 171.441406 140.804688 172.855469 142.386719 173.828125 143.699219 C 173.890625 143.777344 173.945312 143.855469 174 143.9375 C 174.488281 144.601562 174.84375 145.199219 175.164062 145.714844 C 175.417969 146.121094 175.632812 146.480469 175.863281 146.789062 C 176.402344 147.550781 176.992188 148.058594 177.585938 148.585938 L 177.398438 148.6875 L 176.832031 145.320312 C 176.824219 145.277344 176.839844 145.238281 176.871094 145.214844 C 176.894531 145.191406 176.933594 145.175781 176.976562 145.191406 C 178.40625 145.566406 179.835938 145.945312 181.292969 146.480469 C 182.738281 147.003906 184.203125 147.671875 185.667969 148.335938 L 185.683594 148.347656 L 185.675781 148.347656 L 188.15625 149.257812 C 188.164062 149.257812 188.171875 149.265625 188.179688 149.277344 C 188.917969 149.785156 189.707031 150.316406 190.0625 151.214844 C 190.414062 152.105469 190.351562 153.328125 190.285156 154.511719 L 190.285156 154.527344 L 190.183594 154.410156 L 205.339844 155.664062 L 205.21875 155.757812 C 205.402344 153.773438 205.585938 151.785156 205.902344 149.710938 C 206.222656 147.636719 206.675781 145.476562 207.128906 143.316406 L 207.128906 143.324219 C 207.589844 140.757812 208.050781 138.183594 208.613281 136.570312 C 208.78125 136.109375 208.957031 135.726562 209.148438 135.394531 C 209.617188 134.558594 210.179688 134.074219 210.886719 133.527344 C 211.882812 132.765625 213.1875 131.875 214.910156 130.769531 C 216.636719 129.664062 218.785156 128.347656 220.929688 127.035156 L 220.929688 127.027344 L 220.9375 127.027344 C 223.09375 125.90625 225.226562 124.804688 227.460938 122.410156 C 228.300781 121.503906 229.160156 120.425781 229.859375 119.203125 C 231.007812 117.183594 231.714844 114.808594 231.21875 112.25 C 230.449219 108.253906 226.726562 103.8125 224.476562 101.15625 L 224.375 101.03125 L 224.269531 100.910156 C 222.058594 98.296875 221.589844 97.691406 221.121094 97.082031 L 221.136719 97.097656 L 216.882812 93.503906 C 216.851562 93.472656 216.835938 93.425781 216.851562 93.378906 C 216.867188 93.339844 216.914062 93.304688 216.964844 93.304688 C 217.972656 93.304688 218.992188 93.296875 221.195312 93.417969 C 223.394531 93.535156 226.777344 93.785156 230.773438 94.464844 C 234.757812 95.15625 239.363281 96.300781 243.949219 97.4375 L 243.960938 97.4375 C 246.367188 98.21875 248.785156 99.003906 251.25 100.117188 C 253.691406 101.21875 256.179688 102.644531 258.660156 104.066406 L 258.710938 104.089844 L 258.589844 104.089844 C 259.886719 103.324219 261.15625 102.570312 261.714844 102.085938 C 261.898438 101.925781 261.992188 101.808594 262.082031 101.65625 C 262.097656 101.632812 262.113281 101.601562 262.121094 101.578125 C 262.183594 101.457031 262.238281 101.324219 262.3125 101.148438 C 262.4375 100.839844 262.613281 100.410156 262.9375 99.773438 C 263.28125 99.097656 263.796875 98.183594 264.378906 97.136719 C 265.191406 95.683594 266.152344 93.972656 266.996094 92.289062 C 268.457031 89.40625 269.601562 86.59375 270.5 83.804688 C 271.398438 81.007812 272.050781 78.257812 271.40625 75.859375 C 270.773438 73.464844 268.847656 71.402344 264.386719 68.414062 C 259.933594 65.425781 252.992188 61.53125 243.984375 58.695312 C 234.972656 55.859375 223.898438 54.078125 213.847656 53.585938 C 203.804688 53.085938 194.777344 53.878906 190.445312 54.539062 C 187.628906 54.976562 186.8125 55.351562 186.316406 55.566406 C 186.046875 55.691406 185.855469 55.78125 185.507812 55.804688 C 185.171875 55.820312 184.695312 55.789062 184.148438 55.730469 C 183.613281 55.675781 183.011719 55.589844 182.390625 55.507812 C 181.730469 55.421875 181.054688 55.328125 180.425781 55.261719 C 178.597656 55.0625 177.207031 55.082031 175.796875 55.097656 L 175.824219 55.089844 C 169.835938 56.050781 163.855469 57.011719 156.207031 59.195312 C 148.554688 61.382812 139.238281 64.789062 132.4375 68.238281 C 125.980469 71.511719 121.800781 74.808594 118.875 77.152344 L 118.644531 77.335938 L 118.429688 77.511719 L 118.132812 77.75 C 115.375 79.957031 113.824219 81.199219 112.144531 83.90625 C 111.972656 84.183594 111.789062 84.488281 111.613281 84.796875 C 110.015625 87.601562 108.320312 91.558594 106.613281 95.523438 L 106.621094 95.515625 C 105.460938 98.496094 104.3125 101.457031 104.027344 104.953125 C 103.742188 108.449219 104.320312 112.488281 104.902344 116.539062 C 104.910156 116.5625 104.902344 116.578125 104.894531 116.59375 C 104.242188 118.265625 103.589844 119.925781 103.328125 122.800781 C 103.074219 125.683594 103.21875 129.792969 104.941406 138.820312 C 106.667969 147.84375 109.984375 161.78125 113.21875 171.863281 C 113.777344 173.589844 114.324219 175.203125 114.867188 176.710938 C 116.34375 180.828125 117.761719 184.226562 119.007812 187.207031 C 119.980469 189.535156 120.84375 191.609375 121.554688 193.582031 C 123.5 198.992188 124.21875 203.582031 124.941406 208.160156 L 124.941406 208.167969 L 125.996094 218.75 L 125.917969 218.65625 C 125.980469 218.679688 126.015625 218.742188 125.988281 218.800781 C 125.972656 218.863281 125.902344 218.894531 125.847656 218.871094 Z M 125.847656 218.871094 " fill-opacity="1" fill-rule="nonzero"/><path fill="#000000" d="M 182.023438 58.894531 C 186.105469 60.03125 190.191406 61.175781 194.570312 62.820312 C 198.953125 64.472656 203.644531 66.625 208.320312 68.769531 L 208.191406 68.953125 C 206.476562 67.292969 204.765625 65.632812 201.394531 63.90625 C 198.023438 62.175781 192.972656 60.386719 189.460938 59.5625 C 185.945312 58.742188 183.957031 58.894531 181.953125 59.046875 C 181.890625 59.054688 181.839844 59.003906 181.832031 58.941406 C 181.824219 58.878906 181.875 58.824219 181.9375 58.824219 C 183.949219 58.671875 185.96875 58.519531 189.507812 59.347656 C 193.046875 60.164062 198.101562 61.96875 201.496094 63.703125 C 204.902344 65.441406 206.632812 67.125 208.351562 68.792969 C 208.390625 68.835938 208.398438 68.898438 208.367188 68.9375 C 208.335938 68.984375 208.28125 69 208.226562 68.976562 C 203.550781 66.824219 198.867188 64.679688 194.492188 63.035156 C 190.121094 61.390625 186.046875 60.253906 181.96875 59.117188 C 181.90625 59.09375 181.875 59.039062 181.890625 58.972656 C 181.90625 58.910156 181.96875 58.878906 182.023438 58.894531 Z M 182.023438 58.894531 " fill-opacity="1" fill-rule="nonzero"/><path fill="#000000" d="M 204.566406 58.625 C 204.503906 58.601562 204.480469 58.535156 204.503906 58.480469 C 204.519531 58.425781 204.582031 58.394531 204.648438 58.410156 C 207.144531 59.308594 209.648438 60.199219 213.019531 62.089844 C 216.382812 63.980469 220.621094 66.871094 223.394531 69.851562 C 226.171875 72.832031 227.46875 75.890625 228.753906 78.933594 L 228.539062 78.964844 C 228.675781 77.320312 228.804688 75.691406 227.585938 73.171875 C 226.355469 70.644531 223.769531 67.230469 220.390625 64.6875 C 217.019531 62.144531 212.851562 60.46875 210.101562 59.617188 C 207.359375 58.757812 206.03125 58.71875 204.703125 58.679688 C 204.648438 58.679688 204.589844 58.625 204.597656 58.558594 C 204.597656 58.496094 204.65625 58.449219 204.710938 58.449219 C 206.054688 58.496094 207.398438 58.535156 210.164062 59.394531 C 212.933594 60.261719 217.121094 61.9375 220.527344 64.503906 C 223.929688 67.070312 226.546875 70.511719 227.785156 73.078125 C 229.035156 75.644531 228.898438 77.320312 228.761719 78.988281 C 228.761719 79.035156 228.722656 79.085938 228.675781 79.09375 C 228.621094 79.101562 228.574219 79.066406 228.550781 79.019531 C 227.261719 75.976562 225.972656 72.957031 223.230469 70.011719 C 220.476562 67.054688 216.265625 64.179688 212.910156 62.285156 C 209.554688 60.402344 207.0625 59.515625 204.566406 58.625 L 204.648438 58.417969 C 204.710938 58.441406 204.734375 58.503906 204.710938 58.558594 C 204.6875 58.625 204.621094 58.648438 204.566406 58.625 Z M 204.566406 58.625 " fill-opacity="1" fill-rule="nonzero"/><path fill="#000000" d="M 223.386719 58.910156 C 223.332031 58.878906 223.316406 58.816406 223.339844 58.765625 C 223.363281 58.710938 223.429688 58.6875 223.484375 58.703125 L 223.492188 58.703125 C 225.242188 59.378906 227 60.054688 230.019531 61.753906 C 233.035156 63.445312 237.328125 66.179688 239.640625 69.90625 C 241.957031 73.632812 242.28125 78.335938 242.605469 83.007812 L 242.375 83 C 242.75 80.371094 243.125 77.757812 242.917969 75.308594 C 242.710938 72.863281 241.921875 70.589844 241.136719 68.292969 C 241.121094 68.246094 241.136719 68.199219 241.167969 68.167969 C 241.207031 68.144531 241.253906 68.136719 241.304688 68.160156 C 242.402344 68.785156 243.515625 69.429688 244.453125 70.542969 C 245.382812 71.664062 246.136719 73.242188 246.878906 74.816406 L 246.664062 74.871094 C 246.449219 72.210938 246.234375 69.597656 243.1875 67.015625 C 240.125 64.425781 234.195312 61.875 230.417969 60.523438 C 226.648438 59.171875 225.042969 59.03125 223.4375 58.878906 C 223.371094 58.878906 223.324219 58.824219 223.332031 58.757812 C 223.339844 58.695312 223.386719 58.648438 223.453125 58.65625 C 225.074219 58.800781 226.703125 58.949219 230.488281 60.308594 C 234.273438 61.660156 240.238281 64.21875 243.332031 66.839844 C 246.449219 69.484375 246.671875 72.1875 246.886719 74.855469 C 246.894531 74.914062 246.863281 74.960938 246.804688 74.976562 C 246.75 74.992188 246.695312 74.960938 246.671875 74.914062 C 245.921875 73.339844 245.191406 71.78125 244.277344 70.695312 C 243.371094 69.605469 242.289062 68.984375 241.183594 68.359375 L 241.351562 68.222656 C 242.136719 70.511719 242.933594 72.816406 243.140625 75.285156 C 243.355469 77.765625 242.972656 80.410156 242.597656 83.03125 C 242.589844 83.097656 242.542969 83.136719 242.488281 83.136719 C 242.433594 83.128906 242.382812 83.089844 242.375 83.023438 C 242.050781 78.34375 241.734375 73.695312 239.449219 70.027344 C 237.167969 66.355469 232.921875 63.644531 229.910156 61.953125 C 226.902344 60.261719 225.152344 59.59375 223.40625 58.917969 L 223.5 58.710938 C 223.554688 58.742188 223.570312 58.816406 223.539062 58.863281 C 223.515625 58.917969 223.445312 58.941406 223.386719 58.910156 Z M 223.386719 58.910156 " fill-opacity="1" fill-rule="nonzero"/><path fill="#000000" d="M 259.558594 74.453125 C 260.277344 75.867188 261.007812 77.304688 260.953125 79.179688 C 260.910156 80.722656 260.339844 82.554688 259.832031 84.183594 C 259.726562 84.535156 259.625 84.867188 259.519531 85.195312 C 258.964844 87.054688 258.667969 88.515625 258.367188 89.976562 L 258.160156 89.90625 C 260.171875 86.085938 262.160156 82.292969 262.390625 79.601562 C 262.613281 76.929688 261.09375 75.332031 260.300781 74.699219 C 259.832031 74.316406 259.695312 74.347656 259.664062 74.363281 C 259.625 74.394531 259.601562 74.484375 259.574219 74.660156 C 259.566406 74.722656 259.503906 74.761719 259.441406 74.753906 C 259.386719 74.746094 259.335938 74.683594 259.351562 74.625 C 259.367188 74.492188 259.394531 74.285156 259.527344 74.179688 C 259.726562 74.046875 260.019531 74.179688 260.441406 74.523438 C 261.261719 75.175781 262.84375 76.84375 262.613281 79.617188 C 262.382812 82.367188 260.363281 86.210938 258.359375 90.007812 C 258.335938 90.066406 258.273438 90.082031 258.214844 90.066406 C 258.167969 90.050781 258.136719 89.992188 258.144531 89.9375 C 258.445312 88.46875 258.75 87.003906 259.304688 85.128906 C 259.402344 84.804688 259.511719 84.464844 259.617188 84.121094 C 260.125 82.476562 260.6875 80.679688 260.730469 79.179688 C 260.777344 77.367188 260.078125 75.96875 259.351562 74.554688 C 259.328125 74.5 259.351562 74.429688 259.410156 74.394531 C 259.464844 74.371094 259.527344 74.394531 259.558594 74.453125 Z M 259.558594 74.453125 " fill-opacity="1" fill-rule="nonzero"/><path fill="#000000" d="M 223.445312 58.78125 Z M 181.960938 58.917969 C 181.960938 58.917969 181.96875 58.925781 181.96875 58.933594 L 181.960938 58.933594 Z M 184.402344 58.832031 C 185.753906 58.832031 187.335938 58.972656 189.484375 59.472656 C 193.003906 60.292969 198.054688 62.089844 201.441406 63.820312 C 204.773438 65.519531 206.492188 67.164062 208.183594 68.808594 C 203.535156 66.671875 198.890625 64.542969 194.539062 62.90625 C 190.167969 61.269531 186.085938 60.125 182.015625 58.988281 C 182.007812 58.988281 182.007812 58.988281 182.007812 58.988281 C 182.007812 58.988281 182.015625 58.996094 182.015625 58.996094 L 182.007812 59.011719 L 181.976562 58.949219 C 182.757812 58.894531 183.535156 58.832031 184.402344 58.832031 Z M 259.601562 74.53125 Z M 259.488281 74.609375 C 259.496094 74.617188 259.503906 74.625 259.511719 74.632812 C 259.503906 74.625 259.496094 74.625 259.488281 74.625 L 259.480469 74.625 C 259.480469 74.625 259.488281 74.625 259.488281 74.625 L 259.488281 74.617188 C 259.488281 74.617188 259.488281 74.617188 259.488281 74.609375 L 259.480469 74.609375 C 259.488281 74.609375 259.488281 74.609375 259.488281 74.609375 Z M 259.601562 74.402344 L 259.65625 74.648438 L 259.601562 74.667969 L 259.535156 74.648438 Z M 204.859375 58.59375 C 206.140625 58.632812 207.476562 58.695312 210.125 59.523438 C 212.882812 60.378906 217.058594 62.054688 220.445312 64.605469 C 223.832031 67.15625 226.433594 70.589844 227.667969 73.132812 C 228.882812 75.628906 228.773438 77.273438 228.644531 78.902344 C 227.355469 75.882812 226.066406 72.863281 223.324219 69.914062 C 220.566406 66.949219 216.335938 64.058594 212.972656 62.175781 C 209.71875 60.347656 207.277344 59.449219 204.851562 58.59375 Z M 223.46875 58.789062 C 225.074219 58.933594 226.6875 59.085938 230.449219 60.425781 C 234.226562 61.777344 240.167969 64.335938 243.25 66.941406 C 246.28125 69.515625 246.535156 72.132812 246.75 74.761719 C 246.019531 73.21875 245.285156 71.6875 244.378906 70.605469 C 243.53125 69.589844 242.527344 68.976562 241.519531 68.390625 C 241.492188 68.382812 241.46875 68.375 241.453125 68.375 L 241.445312 68.375 C 241.40625 68.375 241.367188 68.398438 241.34375 68.429688 C 241.320312 68.46875 241.3125 68.507812 241.328125 68.546875 C 242.082031 70.75 242.8125 72.941406 243.011719 75.300781 C 243.210938 77.703125 242.863281 80.269531 242.496094 82.84375 C 242.179688 78.21875 241.835938 73.609375 239.5625 69.953125 C 237.265625 66.25 232.984375 63.535156 229.972656 61.835938 C 226.972656 60.148438 225.226562 59.472656 223.476562 58.808594 C 223.476562 58.800781 223.46875 58.800781 223.46875 58.800781 C 223.46875 58.800781 223.46875 58.789062 223.46875 58.789062 Z M 259.710938 74.261719 C 259.839844 74.261719 260.046875 74.371094 260.363281 74.625 C 261.167969 75.269531 262.707031 76.890625 262.476562 79.609375 C 262.253906 82.292969 260.292969 86.050781 258.304688 89.835938 C 258.589844 88.414062 258.890625 86.980469 259.433594 85.171875 C 259.527344 84.84375 259.632812 84.503906 259.742188 84.160156 L 259.742188 84.152344 C 260.25 82.523438 260.816406 80.703125 260.863281 79.179688 C 260.910156 77.429688 260.269531 76.066406 259.589844 74.722656 L 259.582031 74.722656 C 259.582031 74.699219 259.566406 74.675781 259.542969 74.648438 C 259.558594 74.660156 259.574219 74.667969 259.601562 74.667969 C 259.671875 74.667969 259.734375 74.601562 259.734375 74.53125 C 259.734375 74.46875 259.679688 74.410156 259.664062 74.410156 C 259.664062 74.410156 259.65625 74.410156 259.65625 74.410156 C 259.640625 74.402344 259.617188 74.394531 259.601562 74.394531 L 259.535156 74.410156 C 259.535156 74.410156 259.535156 74.410156 259.527344 74.421875 C 259.550781 74.355469 259.574219 74.316406 259.609375 74.292969 C 259.640625 74.269531 259.671875 74.261719 259.710938 74.261719 Z M 258.238281 89.953125 Z M 221.003906 127.140625 Z M 207.453125 53.300781 C 200.074219 53.300781 193.816406 53.894531 190.429688 54.414062 C 187.605469 54.84375 186.773438 55.214844 186.269531 55.445312 L 186.261719 55.445312 C 186.261719 55.445312 186.261719 55.445312 186.253906 55.453125 C 185.992188 55.574219 185.824219 55.644531 185.5 55.667969 C 185.429688 55.667969 185.355469 55.675781 185.277344 55.675781 C 184.972656 55.675781 184.601562 55.644531 184.171875 55.597656 L 184.164062 55.597656 C 183.628906 55.542969 183.027344 55.460938 182.40625 55.375 L 182.398438 55.375 C 181.746094 55.285156 181.070312 55.199219 180.441406 55.128906 C 179.074219 54.984375 177.945312 54.953125 176.871094 54.953125 C 176.515625 54.953125 176.164062 54.953125 175.804688 54.960938 L 175.789062 54.960938 C 169.804688 55.921875 163.824219 56.882812 156.167969 59.070312 C 148.507812 61.253906 139.183594 64.671875 132.382812 68.117188 C 125.910156 71.402344 121.71875 74.707031 118.785156 77.050781 L 118.5625 77.234375 L 118.347656 77.40625 L 118.046875 77.644531 C 115.289062 79.855469 113.730469 81.109375 112.035156 83.835938 C 111.851562 84.121094 111.675781 84.421875 111.503906 84.734375 C 111.496094 84.734375 111.496094 84.742188 111.496094 84.742188 C 109.894531 87.554688 108.195312 91.511719 106.492188 95.46875 C 106.492188 95.46875 106.492188 95.476562 106.492188 95.476562 C 105.339844 98.449219 104.1875 101.425781 103.902344 104.945312 C 103.613281 108.457031 104.195312 112.511719 104.773438 116.554688 C 104.117188 118.222656 103.457031 119.894531 103.199219 122.792969 C 102.9375 125.691406 103.082031 129.816406 104.816406 138.84375 C 106.539062 147.878906 109.855469 161.820312 113.09375 171.90625 C 113.648438 173.628906 114.199219 175.242188 114.746094 176.757812 C 116.21875 180.875 117.640625 184.277344 118.890625 187.253906 L 118.890625 187.261719 C 119.859375 189.589844 120.726562 191.65625 121.433594 193.621094 C 123.367188 199.023438 124.089844 203.597656 124.804688 208.183594 L 125.832031 218.386719 C 125.832031 218.449219 125.894531 218.503906 125.957031 218.503906 C 125.957031 218.503906 125.964844 218.503906 125.964844 218.503906 C 126.015625 218.503906 126.054688 218.472656 126.078125 218.433594 C 126.816406 217.058594 127.589844 215.660156 128.40625 214.199219 C 128.996094 213.132812 129.617188 212.046875 130.242188 210.933594 L 130.242188 210.925781 C 130.894531 209.773438 131.5625 208.589844 132.230469 207.40625 C 133.941406 204.339844 135.660156 201.167969 137.1875 198.015625 C 139.660156 192.90625 141.621094 187.835938 143.164062 183.855469 L 143.164062 183.847656 C 143.300781 183.496094 143.4375 183.15625 143.5625 182.820312 C 145.152344 178.730469 146.257812 176.027344 147.355469 173.328125 C 147.363281 173.320312 147.363281 173.304688 147.371094 173.285156 C 150.996094 177.109375 154.632812 180.9375 158.402344 184.109375 C 162.183594 187.296875 166.113281 189.828125 169.128906 190.933594 C 170.496094 191.433594 171.679688 191.632812 172.746094 191.632812 C 174.007812 191.632812 175.089844 191.347656 176.085938 190.933594 C 177.898438 190.1875 179.441406 189.042969 180.984375 187.882812 C 181.03125 187.859375 181.054688 187.8125 181.046875 187.765625 L 180.925781 186.191406 C 180.925781 186.128906 180.878906 186.078125 180.824219 186.0625 C 180.816406 186.0625 180.808594 186.0625 180.800781 186.0625 C 180.769531 186.0625 180.726562 186.078125 180.703125 186.101562 C 179.863281 186.914062 178.964844 187.707031 177.238281 188.390625 C 176.316406 188.765625 175.164062 189.089844 173.792969 189.089844 C 172.425781 189.089844 170.835938 188.765625 169.039062 187.796875 C 165.453125 185.871094 161.054688 181.429688 157.527344 176.863281 C 153.996094 172.292969 151.339844 167.613281 150.410156 162.101562 C 149.480469 156.59375 150.28125 150.253906 152.285156 145.761719 C 152.539062 145.199219 152.820312 144.660156 153.105469 144.152344 C 155.101562 140.636719 157.890625 138.550781 160.636719 137.882812 C 161.351562 137.707031 162.058594 137.636719 162.75 137.636719 C 165.128906 137.636719 167.371094 138.53125 169.109375 139.566406 C 171.355469 140.910156 172.761719 142.472656 173.722656 143.777344 C 173.777344 143.855469 173.835938 143.9375 173.898438 144.015625 C 174.375 144.675781 174.734375 145.261719 175.050781 145.78125 L 175.050781 145.789062 L 175.058594 145.796875 C 175.304688 146.199219 175.527344 146.550781 175.75 146.867188 C 176.234375 147.535156 176.746094 148.019531 177.261719 148.472656 C 177.285156 148.496094 177.316406 148.503906 177.347656 148.503906 C 177.363281 148.503906 177.378906 148.503906 177.40625 148.496094 C 177.453125 148.472656 177.476562 148.425781 177.476562 148.371094 L 177.476562 148.355469 L 176.96875 145.328125 C 178.390625 145.699219 179.804688 146.082031 181.246094 146.597656 C 182.691406 147.121094 184.148438 147.789062 185.609375 148.457031 C 185.609375 148.457031 185.617188 148.464844 185.617188 148.464844 L 185.632812 148.464844 L 188.109375 149.386719 L 188.117188 149.394531 C 188.125 149.394531 188.140625 149.402344 188.140625 149.402344 C 188.878906 149.910156 189.601562 150.425781 189.9375 151.261719 C 190.269531 152.097656 190.222656 153.242188 190.160156 154.410156 C 190.160156 154.449219 190.167969 154.480469 190.191406 154.511719 C 190.222656 154.535156 190.253906 154.550781 190.285156 154.550781 L 205.21875 155.78125 C 205.21875 155.78125 205.226562 155.78125 205.226562 155.78125 C 205.257812 155.78125 205.289062 155.773438 205.316406 155.75 C 205.347656 155.726562 205.363281 155.6875 205.363281 155.648438 C 205.539062 153.710938 205.71875 151.761719 206.03125 149.726562 C 206.347656 147.664062 206.800781 145.507812 207.253906 143.355469 L 207.253906 143.347656 L 207.261719 143.332031 L 207.261719 143.324219 C 207.714844 140.765625 208.175781 138.207031 208.742188 136.617188 C 208.910156 136.15625 209.074219 135.785156 209.257812 135.457031 C 209.71875 134.65625 210.261719 134.179688 210.96875 133.628906 C 211.960938 132.875 213.257812 131.984375 214.984375 130.882812 C 216.699219 129.777344 218.847656 128.464844 220.996094 127.148438 L 221.003906 127.148438 L 221.003906 127.140625 L 221.011719 127.140625 C 223.15625 126.027344 225.3125 124.90625 227.554688 122.507812 C 228.40625 121.59375 229.273438 120.496094 229.972656 119.265625 C 231.132812 117.230469 231.847656 114.824219 231.347656 112.226562 C 230.570312 108.195312 226.839844 103.730469 224.597656 101.085938 L 224.589844 101.085938 C 224.589844 101.078125 224.589844 101.070312 224.582031 101.070312 L 224.476562 100.941406 L 224.375 100.824219 C 222.203125 98.257812 221.710938 97.628906 221.25 97.03125 C 221.242188 97.015625 221.234375 97 221.21875 96.992188 L 217.011719 93.433594 C 217.136719 93.433594 217.265625 93.433594 217.402344 93.433594 C 218.292969 93.433594 219.300781 93.449219 221.1875 93.554688 C 223.378906 93.671875 226.761719 93.910156 230.75 94.601562 C 234.734375 95.292969 239.324219 96.429688 243.917969 97.566406 L 243.925781 97.566406 C 246.335938 98.34375 248.746094 99.128906 251.195312 100.234375 C 253.628906 101.332031 256.109375 102.746094 258.582031 104.167969 C 258.605469 104.183594 258.628906 104.183594 258.652344 104.183594 C 258.667969 104.183594 258.691406 104.183594 258.71875 104.167969 C 259.980469 103.421875 261.238281 102.675781 261.800781 102.183594 C 261.992188 102.023438 262.105469 101.886719 262.191406 101.722656 C 262.207031 101.695312 262.222656 101.664062 262.238281 101.640625 C 262.304688 101.515625 262.359375 101.371094 262.429688 101.195312 C 262.558594 100.886719 262.734375 100.464844 263.058594 99.828125 C 263.402344 99.164062 263.910156 98.25 264.488281 97.207031 L 264.496094 97.199219 C 265.308594 95.746094 266.261719 94.039062 267.113281 92.351562 C 268.578125 89.453125 269.722656 86.640625 270.628906 83.84375 C 271.527344 81.054688 272.1875 78.265625 271.535156 75.828125 C 270.882812 73.386719 268.925781 71.296875 264.472656 68.308594 C 264.472656 68.308594 264.464844 68.300781 264.457031 68.300781 C 260.003906 65.304688 253.039062 61.414062 244.023438 58.570312 C 234.996094 55.730469 223.914062 53.945312 213.855469 53.453125 C 211.660156 53.339844 209.511719 53.300781 207.453125 53.300781 Z M 207.453125 53.300781 " fill-opacity="1" fill-rule="nonzero"/><path fill="#000000" d="M 154.15625 156.992188 C 154.15625 156.976562 154.15625 156.957031 154.15625 156.941406 C 154.863281 153.78125 155.578125 150.585938 156.992188 148.371094 C 158.167969 146.535156 159.832031 145.359375 161.351562 145.007812 C 161.660156 144.9375 161.972656 144.898438 162.273438 144.898438 C 164.015625 144.90625 165.316406 146.175781 166.359375 147.648438 C 167.402344 149.117188 168.210938 150.824219 168.308594 152.105469 C 168.394531 153.398438 167.742188 154.226562 166.757812 155.28125 C 166.558594 155.488281 166.351562 155.703125 166.136719 155.933594 C 165.90625 156.179688 165.660156 156.433594 165.414062 156.703125 C 164.722656 157.445312 163.992188 158.269531 163.371094 159.152344 C 162.3125 160.644531 161.542969 162.296875 161.492188 164.03125 C 161.445312 165.746094 162.097656 167.558594 164.578125 169.839844 C 167.066406 172.117188 171.378906 174.84375 174.128906 175.75 C 175.335938 176.148438 176.234375 176.1875 176.902344 176.035156 C 177.738281 175.84375 178.222656 175.335938 178.484375 174.820312 C 178.964844 173.882812 178.742188 172.882812 178.40625 172.167969 C 178.074219 171.460938 177.621094 171.046875 176.886719 170.464844 C 176.148438 169.878906 175.128906 169.140625 174.113281 168.390625 C 174.089844 168.367188 174.074219 168.335938 174.074219 168.304688 L 174.074219 168.296875 C 174.035156 167.472656 174 166.660156 173.890625 165.9375 C 173.777344 165.222656 173.589844 164.601562 173.246094 164.109375 C 172.902344 163.617188 172.402344 163.234375 171.878906 162.847656 C 171.847656 162.824219 171.832031 162.78125 171.839844 162.742188 C 172.078125 159.382812 172.316406 156.019531 172.203125 153.453125 C 172.101562 150.894531 171.648438 149.132812 170.257812 147.179688 C 168.863281 145.214844 166.527344 143.0625 164.300781 142.332031 C 163.265625 141.988281 162.25 141.957031 161.292969 142.171875 C 160.207031 142.425781 159.195312 143 158.320312 143.824219 C 156.675781 145.375 155.507812 147.8125 154.917969 150.164062 C 154.335938 152.515625 154.320312 154.773438 154.3125 157.054688 C 154.3125 157.117188 154.257812 157.164062 154.195312 157.164062 C 154.128906 157.164062 154.082031 157.109375 154.082031 157.054688 C 154.097656 154.78125 154.105469 152.492188 154.703125 150.109375 C 155.300781 147.734375 156.476562 145.253906 158.167969 143.65625 C 159.070312 142.808594 160.109375 142.210938 161.246094 141.957031 C 162.242188 141.726562 163.296875 141.757812 164.371094 142.117188 C 166.664062 142.871094 169.03125 145.054688 170.445312 147.050781 C 171.863281 149.046875 172.324219 150.855469 172.433594 153.445312 C 172.546875 156.027344 172.300781 159.398438 172.0625 162.757812 L 172.011719 162.664062 C 172.53125 163.054688 173.0625 163.449219 173.429688 163.984375 C 173.800781 164.515625 174 165.167969 174.113281 165.90625 C 174.230469 166.636719 174.265625 167.472656 174.296875 168.289062 L 174.296875 168.296875 L 174.246094 168.210938 C 175.265625 168.949219 176.285156 169.703125 177.023438 170.285156 C 177.769531 170.871094 178.246094 171.316406 178.605469 172.070312 C 178.964844 172.816406 179.210938 173.898438 178.683594 174.925781 C 178.398438 175.496094 177.867188 176.042969 176.953125 176.257812 C 176.234375 176.417969 175.296875 176.371094 174.058594 175.964844 C 171.265625 175.050781 166.933594 172.300781 164.429688 170.003906 C 161.914062 167.691406 161.214844 165.824219 161.269531 164.023438 C 161.320312 162.234375 162.113281 160.527344 163.1875 159.015625 C 163.816406 158.125 164.546875 157.292969 165.246094 156.546875 C 165.492188 156.285156 165.738281 156.019531 165.976562 155.773438 C 166.191406 155.550781 166.398438 155.328125 166.589844 155.125 C 167.578125 154.066406 168.164062 153.304688 168.078125 152.121094 C 167.996094 150.902344 167.210938 149.234375 166.175781 147.773438 C 165.136719 146.320312 163.894531 145.128906 162.273438 145.128906 C 161.988281 145.128906 161.699219 145.160156 161.398438 145.230469 C 159.941406 145.558594 158.328125 146.691406 157.183594 148.496094 C 155.792969 150.675781 155.085938 153.8125 154.378906 156.992188 L 154.378906 156.941406 C 154.394531 157 154.351562 157.0625 154.289062 157.078125 C 154.234375 157.085938 154.171875 157.054688 154.15625 156.992188 Z M 154.15625 156.992188 " fill-opacity="1" fill-rule="nonzero"/><path fill="#000000" d="M 201.078125 162.839844 C 201.140625 162.863281 201.164062 162.925781 201.140625 162.988281 C 201.109375 163.046875 201.042969 163.070312 200.988281 163.046875 C 200.933594 163.019531 200.902344 162.949219 200.933594 162.894531 C 200.957031 162.839844 201.019531 162.808594 201.078125 162.839844 Z M 201.078125 162.839844 " fill-opacity="1" fill-rule="nonzero"/><path fill="#000000" d="M 162.511719 141.996094 C 162.097656 141.996094 161.683594 142.046875 161.285156 142.132812 C 160.191406 142.386719 159.171875 142.964844 158.296875 143.792969 C 156.636719 145.359375 155.472656 147.796875 154.886719 150.15625 C 154.359375 152.230469 154.289062 154.234375 154.273438 156.226562 C 154.273438 156.234375 154.28125 156.25 154.289062 156.257812 C 154.296875 156.265625 154.304688 156.265625 154.3125 156.265625 C 154.335938 156.265625 154.351562 156.257812 154.351562 156.234375 C 155.011719 153.3125 155.722656 150.433594 157.023438 148.394531 C 158.195312 146.558594 159.847656 145.390625 161.359375 145.046875 C 161.667969 144.976562 161.972656 144.9375 162.265625 144.9375 L 162.273438 144.9375 C 163.992188 144.945312 165.285156 146.199219 166.328125 147.671875 C 167.371094 149.132812 168.171875 150.839844 168.269531 152.105469 C 168.355469 153.382812 167.710938 154.195312 166.726562 155.25 C 166.535156 155.457031 166.328125 155.679688 166.113281 155.902344 C 165.882812 156.148438 165.628906 156.410156 165.382812 156.671875 C 164.691406 157.417969 163.957031 158.246094 163.339844 159.128906 C 162.273438 160.621094 161.5 162.289062 161.453125 164.03125 C 161.40625 165.761719 162.066406 167.582031 164.554688 169.863281 C 167.042969 172.152344 171.363281 174.882812 174.121094 175.789062 C 174.914062 176.050781 175.574219 176.15625 176.132812 176.15625 C 176.417969 176.15625 176.679688 176.132812 176.910156 176.074219 C 177.761719 175.878906 178.253906 175.367188 178.527344 174.835938 C 179.003906 173.882812 178.78125 172.875 178.4375 172.152344 C 178.105469 171.4375 177.652344 171.015625 176.910156 170.433594 C 176.171875 169.847656 175.15625 169.101562 174.136719 168.359375 C 174.121094 168.34375 174.113281 168.320312 174.113281 168.304688 L 174.113281 168.296875 C 174.074219 167.472656 174.042969 166.652344 173.929688 165.9375 C 173.820312 165.214844 173.628906 164.585938 173.277344 164.085938 C 172.929688 163.585938 172.425781 163.203125 171.902344 162.816406 C 171.886719 162.800781 171.871094 162.773438 171.878906 162.75 C 172.117188 159.382812 172.355469 156.019531 172.246094 153.453125 C 172.140625 150.886719 171.6875 149.117188 170.289062 147.152344 C 168.886719 145.183594 166.550781 143.03125 164.316406 142.292969 C 163.703125 142.09375 163.101562 141.996094 162.511719 141.996094 Z M 162.511719 141.996094 " fill-opacity="1" fill-rule="nonzero"/><path fill="#000000" d="M 173.589844 180.429688 C 173.636719 180.445312 173.667969 180.5 173.660156 180.558594 C 173.644531 180.613281 173.597656 180.652344 173.539062 180.644531 C 171.578125 180.515625 169.597656 180.382812 167.570312 179.597656 C 165.539062 178.808594 163.472656 177.371094 162.113281 175.988281 C 160.753906 174.597656 160.09375 173.253906 159.449219 171.9375 C 159.425781 171.886719 159.433594 171.832031 159.472656 171.800781 C 159.523438 171.769531 159.578125 171.761719 159.617188 171.792969 C 160.984375 172.808594 162.351562 173.820312 164.675781 175.273438 C 166.996094 176.71875 170.28125 178.601562 173.554688 180.484375 C 173.613281 180.515625 173.628906 180.589844 173.605469 180.644531 C 173.570312 180.699219 173.5 180.714844 173.445312 180.683594 C 170.167969 178.800781 166.886719 176.917969 164.554688 175.464844 C 162.226562 174.011719 160.859375 172.992188 159.480469 171.976562 L 159.648438 171.832031 C 160.300781 173.160156 160.9375 174.464844 162.28125 175.828125 C 163.617188 177.195312 165.660156 178.609375 167.648438 179.390625 C 169.644531 180.160156 171.59375 180.289062 173.554688 180.421875 L 173.507812 180.636719 C 173.445312 180.621094 173.421875 180.550781 173.4375 180.492188 C 173.460938 180.4375 173.523438 180.40625 173.589844 180.429688 Z M 173.589844 180.429688 " fill-opacity="1" fill-rule="nonzero"/><path fill="#000000" d="M 159.863281 172.246094 L 159.863281 172.253906 Z M 159.847656 172.253906 Z M 159.855469 172.253906 L 159.847656 172.253906 Z M 159.855469 172.246094 L 159.855469 172.253906 L 159.847656 172.261719 L 159.855469 172.261719 L 159.847656 172.261719 C 160.4375 173.4375 161.070312 174.613281 162.273438 175.828125 C 163.617188 177.195312 165.652344 178.617188 167.648438 179.398438 C 169.421875 180.082031 171.164062 180.261719 172.910156 180.382812 L 172.910156 180.375 L 172.921875 180.375 L 172.910156 180.375 C 169.820312 178.585938 166.757812 176.832031 164.5625 175.457031 C 162.449219 174.136719 161.121094 173.175781 159.863281 172.253906 Z M 159.855469 172.246094 " fill-opacity="1" fill-rule="nonzero"/><g clip-path="url(#1d65e0e670)"><path fill="#000000" d="M 190.429688 152.476562 C 190.4375 152.492188 190.445312 152.515625 190.4375 152.53125 L 189.785156 160.328125 L 189.785156 160.320312 C 188.910156 172.730469 188.035156 185.140625 186.660156 194.644531 C 185.285156 204.15625 183.425781 210.742188 181.601562 216.726562 C 181.492188 217.089844 181.386719 217.433594 181.277344 217.796875 C 181.171875 218.148438 181.0625 218.503906 180.960938 218.847656 C 179.402344 223.980469 178.113281 228.558594 178.734375 232.28125 C 179.441406 236.511719 182.597656 239.671875 185.023438 242.0625 C 187.441406 244.457031 189.078125 246.042969 190.722656 247.632812 L 190.714844 247.632812 L 203.75 259.179688 C 203.78125 259.210938 203.796875 259.25 203.78125 259.296875 C 202.722656 263.089844 201.671875 266.878906 200.503906 271.359375 C 199.34375 275.847656 198.0625 281.011719 197.640625 284.996094 C 197.226562 288.960938 197.65625 291.746094 198.09375 294.542969 L 197.871094 294.542969 C 199.136719 288.003906 200.410156 281.464844 202.277344 276.175781 C 204.144531 270.882812 206.609375 266.847656 209.066406 262.824219 L 209.164062 262.882812 L 209.058594 262.9375 C 209.050781 262.921875 209.035156 262.890625 209.019531 262.859375 C 209.011719 262.84375 208.988281 262.738281 209.074219 262.683594 C 209.082031 262.683594 209.089844 262.675781 209.097656 262.675781 C 209.117188 262.667969 209.140625 262.660156 209.164062 262.660156 C 209.402344 262.660156 210.601562 263.214844 215.769531 265.949219 C 216.050781 266.089844 216.328125 266.242188 216.621094 266.394531 C 216.941406 266.558594 217.273438 266.742188 217.609375 266.917969 C 224.859375 270.746094 237.222656 277.160156 246.84375 279.179688 C 255.132812 280.917969 261.378906 279.402344 265.816406 277.558594 C 266.996094 277.066406 268.042969 276.554688 268.964844 276.078125 C 273.410156 273.773438 275.011719 272.203125 275.429688 270.984375 C 275.757812 270.054688 275.414062 269.316406 274.96875 268.386719 C 274.84375 268.117188 274.707031 267.839844 274.589844 267.53125 C 274.214844 266.632812 273.945312 265.558594 273.609375 264.242188 C 273.441406 263.589844 273.261719 262.867188 273.039062 262.070312 C 272.980469 261.878906 272.933594 261.691406 272.871094 261.492188 C 272.816406 261.277344 272.75 261.0625 272.6875 260.832031 C 272.066406 258.589844 271.335938 255.585938 271.042969 250.25 C 270.691406 243.875 270.976562 234.183594 271.257812 224.488281 L 271.265625 224.519531 L 270.691406 221.523438 L 270.699219 221.554688 C 269.769531 219.769531 268.816406 217.964844 268.554688 216.925781 C 268.265625 215.835938 268.71875 215.527344 269.15625 215.246094 C 269.453125 215.066406 269.746094 214.882812 270.113281 214.730469 C 270.382812 214.621094 270.691406 214.523438 271.066406 214.460938 C 271.304688 214.414062 271.574219 214.390625 271.84375 214.359375 C 272.132812 214.324219 272.417969 214.292969 272.679688 214.246094 C 272.933594 214.199219 273.15625 214.144531 273.347656 214.0625 C 273.453125 214.023438 273.546875 213.96875 273.625 213.914062 C 274.144531 213.53125 274.128906 212.746094 274.085938 211.855469 L 274.085938 211.863281 C 273.691406 208.253906 273.292969 204.65625 272.304688 201.898438 C 271.320312 199.148438 269.753906 197.21875 268.164062 195.28125 C 268.140625 195.25 268.132812 195.207031 268.148438 195.167969 C 268.164062 195.128906 268.195312 195.105469 268.234375 195.097656 C 270.515625 194.707031 272.816406 194.320312 274.476562 194.121094 C 274.675781 194.097656 274.867188 194.074219 275.050781 194.058594 C 275.214844 194.03125 275.375 194.015625 275.535156 194 C 276.15625 193.921875 276.664062 193.84375 277.101562 193.660156 C 277.417969 193.523438 277.707031 193.339844 277.976562 193.070312 C 278.636719 192.421875 279.199219 191.261719 279.789062 190.066406 C 279.972656 189.695312 280.15625 189.328125 280.335938 188.972656 C 280.550781 188.566406 280.765625 188.175781 280.972656 187.8125 C 281.164062 187.46875 281.339844 187.144531 281.507812 186.835938 C 281.824219 186.222656 282.0625 185.683594 282.160156 185.179688 C 282.347656 184.171875 281.925781 183.347656 281.492188 182.480469 L 281.5 182.488281 C 278.691406 178.085938 275.882812 173.675781 273.101562 168.71875 C 270.328125 163.769531 267.558594 158.238281 267.273438 154.75 C 267.027344 151.652344 268.742188 150.164062 270.054688 149.027344 C 270.230469 148.878906 270.40625 148.734375 270.558594 148.59375 C 271.875 147.382812 272.304688 146.390625 272.347656 145.628906 C 272.378906 144.882812 272.019531 144.339844 271.628906 143.769531 C 271.613281 143.746094 271.605469 143.714844 271.613281 143.683594 L 271.621094 143.664062 C 271.933594 142.179688 272.242188 140.703125 271.902344 138.382812 C 271.550781 136.054688 270.523438 132.867188 269.507812 129.671875 C 269.507812 129.664062 269.507812 129.664062 269.5 129.664062 L 261.707031 101.339844 L 261.867188 101.410156 L 258.089844 103.476562 L 258.105469 103.292969 C 258.964844 104.023438 259.824219 104.773438 260.648438 107.226562 C 261.175781 108.792969 261.691406 111.058594 262.246094 113.488281 C 262.558594 114.855469 262.882812 116.277344 263.234375 117.660156 C 264.195312 121.503906 265.324219 125.058594 266.453125 128.617188 C 267.957031 133.035156 269.46875 137.476562 269.714844 140.417969 C 269.960938 143.386719 268.933594 144.839844 267.878906 146.265625 L 267.703125 146.503906 C 266.707031 147.84375 265.738281 149.203125 265.453125 151.398438 C 265.148438 153.734375 265.628906 157.007812 266.445312 159.875 C 267.265625 162.75 268.417969 165.207031 269.222656 166.765625 C 269.769531 167.820312 270.160156 168.464844 270.730469 169.417969 C 270.996094 169.863281 271.304688 170.378906 271.6875 171.03125 C 272.394531 172.246094 273.371094 173.945312 274.269531 175.519531 C 274.898438 176.625 275.503906 177.671875 275.949219 178.445312 C 276.988281 180.246094 277.226562 180.582031 277.832031 181.4375 L 277.910156 181.550781 C 278.570312 182.480469 279.710938 184.117188 279.757812 185.523438 C 279.796875 186.945312 278.714844 188.113281 277.679688 189.226562 L 277.6875 189.21875 C 277.269531 189.789062 276.824219 190.371094 276.273438 190.734375 C 276.140625 190.824219 276.003906 190.902344 275.859375 190.957031 C 275.414062 191.140625 274.9375 191.179688 274.546875 190.964844 C 274.230469 190.792969 273.992188 190.457031 273.761719 190.148438 C 273.609375 189.949219 273.46875 189.75 273.300781 189.574219 C 272.863281 189.121094 272.28125 188.820312 271.679688 188.511719 L 271.695312 188.519531 C 270.914062 188.257812 270.152344 187.996094 268.957031 187.867188 C 267.757812 187.738281 266.128906 187.738281 264.496094 187.746094 L 264.488281 187.746094 L 264.496094 187.746094 L 255.925781 187.796875 C 255.917969 187.796875 255.917969 187.796875 255.910156 187.796875 L 255.902344 187.796875 C 255.25 187.722656 254.582031 187.652344 254.082031 187.492188 C 253.566406 187.328125 253.214844 187.058594 253.007812 186.339844 C 252.808594 185.640625 252.738281 184.515625 252.761719 183.671875 C 252.792969 182.820312 252.929688 182.257812 253.054688 181.703125 L 253.253906 181.804688 C 252.578125 182.632812 251.910156 183.441406 251.585938 184.355469 C 251.25 185.261719 251.25 186.277344 252.085938 187.597656 C 252.929688 188.933594 254.628906 190.570312 256.347656 192.222656 C 256.371094 192.246094 256.386719 192.285156 256.378906 192.316406 C 256.371094 192.355469 256.347656 192.386719 256.316406 192.402344 L 256.292969 192.410156 C 256.125 192.484375 255.957031 192.5625 255.78125 192.632812 C 255.320312 192.824219 254.804688 193.007812 254.082031 193.175781 C 253.746094 193.246094 253.375 193.316406 252.96875 193.398438 C 252.492188 193.484375 251.972656 193.582031 251.433594 193.699219 C 251.050781 193.785156 250.652344 193.890625 250.257812 194 C 249.921875 194.105469 249.582031 194.214844 249.238281 194.359375 C 248.164062 194.804688 247.066406 195.535156 245.945312 196.988281 C 244.46875 198.910156 242.941406 202.105469 241.550781 205.648438 C 240.15625 209.191406 238.902344 213.078125 237.652344 216.972656 C 237.636719 217.011719 237.605469 217.042969 237.558594 217.042969 C 237.519531 217.050781 237.46875 217.035156 237.445312 216.996094 C 236.667969 215.796875 235.871094 214.589844 235.378906 212.777344 C 234.894531 210.980469 234.703125 208.597656 234.59375 206.59375 C 234.585938 206.453125 234.578125 206.300781 234.566406 206.15625 C 234.558594 206.015625 234.550781 205.871094 234.542969 205.738281 C 234.449219 204.125 234.335938 202.820312 233.789062 201.78125 C 233.3125 200.867188 232.492188 200.152344 231.292969 199.117188 C 230.894531 198.777344 230.464844 198.402344 229.988281 197.972656 C 228.085938 196.257812 225.558594 193.691406 223.03125 191.132812 L 223.03125 191.140625 L 223 191.109375 C 217.917969 186.40625 212.835938 181.710938 209.886719 178.777344 C 206.9375 175.835938 206.109375 174.660156 205.585938 172.707031 C 205.058594 170.769531 204.835938 168.074219 204.613281 165.390625 C 204.605469 165.390625 204.605469 165.382812 204.605469 165.375 L 205.21875 155.3125 C 205.21875 155.25 205.273438 155.203125 205.339844 155.210938 C 205.402344 155.210938 205.449219 155.265625 205.441406 155.328125 L 204.835938 165.390625 L 204.835938 165.375 C 205.058594 168.058594 205.289062 170.738281 205.800781 172.644531 C 206.308594 174.535156 207.097656 175.6875 210.046875 178.617188 C 212.988281 181.550781 218.070312 186.238281 223.148438 190.941406 L 223.191406 190.972656 C 225.71875 193.53125 228.246094 196.089844 230.140625 197.808594 C 230.617188 198.226562 231.046875 198.601562 231.441406 198.945312 C 232.628906 199.976562 233.488281 200.714844 233.996094 201.675781 C 234.566406 202.765625 234.679688 204.125 234.765625 205.730469 C 234.773438 205.863281 234.78125 206.007812 234.789062 206.140625 C 234.800781 206.285156 234.808594 206.4375 234.816406 206.585938 C 234.933594 208.582031 235.117188 210.949219 235.601562 212.722656 C 236.078125 214.484375 236.859375 215.675781 237.636719 216.867188 L 237.4375 216.902344 C 238.6875 213.015625 239.945312 209.121094 241.335938 205.570312 C 242.726562 202.019531 244.269531 198.800781 245.773438 196.847656 C 246.917969 195.359375 248.046875 194.613281 249.152344 194.152344 C 249.5 194.007812 249.851562 193.890625 250.191406 193.785156 C 250.597656 193.667969 250.996094 193.5625 251.386719 193.476562 C 251.925781 193.359375 252.441406 193.261719 252.921875 193.175781 C 253.332031 193.09375 253.707031 193.023438 254.035156 192.953125 C 254.742188 192.792969 255.242188 192.609375 255.695312 192.429688 C 255.871094 192.355469 256.039062 192.277344 256.203125 192.207031 L 256.21875 192.199219 L 256.1875 192.378906 C 254.480469 190.742188 252.753906 189.082031 251.894531 187.722656 C 251.019531 186.339844 251.019531 185.253906 251.371094 184.285156 C 251.710938 183.324219 252.402344 182.480469 253.078125 181.652344 C 253.109375 181.613281 253.167969 181.605469 253.214844 181.628906 C 253.261719 181.652344 253.285156 181.703125 253.277344 181.757812 C 253.144531 182.304688 253.015625 182.855469 252.992188 183.679688 C 252.960938 184.515625 253.039062 185.617188 253.230469 186.277344 C 253.414062 186.921875 253.699219 187.136719 254.152344 187.277344 C 254.621094 187.429688 255.265625 187.492188 255.925781 187.566406 L 255.933594 187.566406 L 255.925781 187.566406 L 264.488281 187.527344 L 264.496094 187.527344 C 266.128906 187.519531 267.765625 187.507812 268.984375 187.636719 C 270.199219 187.773438 270.984375 188.042969 271.765625 188.304688 C 271.773438 188.304688 271.78125 188.3125 271.78125 188.3125 C 272.378906 188.613281 272.996094 188.933594 273.46875 189.417969 C 273.640625 189.605469 273.792969 189.8125 273.945312 190.011719 C 274.183594 190.339844 274.398438 190.625 274.652344 190.765625 C 274.960938 190.933594 275.367188 190.917969 275.773438 190.75 C 275.898438 190.695312 276.027344 190.625 276.15625 190.542969 C 276.65625 190.210938 277.078125 189.65625 277.507812 189.082031 C 277.515625 189.082031 277.515625 189.074219 277.515625 189.074219 C 278.5625 187.929688 279.566406 186.84375 279.527344 185.53125 C 279.488281 184.203125 278.398438 182.632812 277.722656 181.675781 L 277.648438 181.566406 C 277.039062 180.707031 276.800781 180.367188 275.75 178.554688 C 275.304688 177.785156 274.707031 176.734375 274.070312 175.640625 C 273.171875 174.058594 272.203125 172.355469 271.488281 171.140625 C 271.105469 170.488281 270.804688 169.972656 270.53125 169.535156 C 269.960938 168.574219 269.570312 167.933594 269.023438 166.867188 C 268.21875 165.300781 267.050781 162.832031 266.230469 159.9375 C 265.414062 157.054688 264.917969 153.75 265.230469 151.375 C 265.515625 149.117188 266.527344 147.710938 267.519531 146.367188 L 267.695312 146.128906 C 268.734375 144.722656 269.730469 143.324219 269.492188 140.441406 C 269.246094 137.53125 267.742188 133.121094 266.238281 128.6875 C 265.109375 125.128906 263.972656 121.570312 263.011719 117.714844 C 262.667969 116.324219 262.34375 114.902344 262.023438 113.535156 C 261.46875 111.097656 260.960938 108.847656 260.433594 107.300781 C 259.625 104.890625 258.789062 104.183594 257.960938 103.46875 C 257.929688 103.445312 257.914062 103.40625 257.921875 103.367188 C 257.921875 103.332031 257.945312 103.300781 257.976562 103.277344 L 261.761719 101.210938 C 261.792969 101.195312 261.824219 101.195312 261.859375 101.203125 C 261.890625 101.21875 261.914062 101.253906 261.921875 101.285156 L 269.722656 129.601562 C 270.738281 132.789062 271.765625 136 272.125 138.351562 C 272.472656 140.710938 272.15625 142.21875 271.835938 143.714844 L 271.835938 143.730469 L 271.820312 143.640625 C 272.203125 144.207031 272.609375 144.800781 272.570312 145.644531 C 272.527344 146.480469 272.050781 147.527344 270.707031 148.757812 C 270.550781 148.902344 270.382812 149.046875 270.207031 149.203125 C 268.894531 150.332031 267.257812 151.746094 267.503906 154.734375 C 267.773438 158.160156 270.515625 163.640625 273.300781 168.605469 C 276.074219 173.558594 278.882812 177.960938 281.6875 182.367188 C 281.6875 182.367188 281.6875 182.367188 281.6875 182.375 C 282.125 183.226562 282.585938 184.125 282.378906 185.230469 C 282.277344 185.753906 282.023438 186.324219 281.703125 186.9375 C 281.539062 187.253906 281.363281 187.582031 281.171875 187.921875 C 280.964844 188.289062 280.75 188.675781 280.542969 189.074219 C 280.351562 189.433594 280.179688 189.796875 279.996094 190.164062 C 279.414062 191.347656 278.828125 192.546875 278.132812 193.230469 C 277.839844 193.523438 277.53125 193.722656 277.1875 193.867188 C 276.71875 194.066406 276.1875 194.152344 275.558594 194.222656 C 275.40625 194.238281 275.242188 194.261719 275.074219 194.28125 C 274.890625 194.304688 274.699219 194.320312 274.5 194.34375 C 272.847656 194.542969 270.566406 194.929688 268.273438 195.320312 L 268.339844 195.136719 C 269.921875 197.078125 271.519531 199.03125 272.519531 201.828125 C 273.515625 204.617188 273.914062 208.238281 274.316406 211.839844 C 274.316406 211.839844 274.316406 211.847656 274.316406 211.847656 C 274.351562 212.679688 274.398438 213.625 273.761719 214.09375 C 273.664062 214.167969 273.554688 214.222656 273.433594 214.277344 C 273.21875 214.367188 272.972656 214.421875 272.71875 214.46875 C 272.449219 214.515625 272.15625 214.546875 271.867188 214.582031 C 271.597656 214.613281 271.335938 214.644531 271.105469 214.683594 C 270.746094 214.746094 270.453125 214.835938 270.199219 214.945312 C 269.855469 215.089844 269.570312 215.261719 269.277344 215.4375 C 268.886719 215.683594 268.519531 215.90625 268.769531 216.867188 C 269.03125 217.878906 269.960938 219.648438 270.898438 221.453125 C 270.90625 221.460938 270.90625 221.46875 270.914062 221.476562 L 271.488281 224.472656 C 271.488281 224.480469 271.488281 224.488281 271.488281 224.496094 C 271.199219 234.191406 270.921875 243.875 271.273438 250.238281 C 271.558594 255.554688 272.289062 258.542969 272.910156 260.777344 C 272.972656 261.007812 273.03125 261.214844 273.09375 261.425781 C 273.148438 261.625 273.203125 261.824219 273.253906 262.015625 C 273.476562 262.808594 273.65625 263.53125 273.824219 264.183594 C 274.167969 265.511719 274.4375 266.570312 274.796875 267.441406 C 274.914062 267.746094 275.050781 268.023438 275.175781 268.292969 C 275.605469 269.207031 276.003906 270.03125 275.644531 271.058594 C 275.183594 272.367188 273.507812 273.972656 269.070312 276.277344 C 268.140625 276.761719 267.089844 277.269531 265.90625 277.765625 C 261.429688 279.621094 255.140625 281.148438 246.796875 279.402344 C 237.144531 277.375 224.75 270.945312 217.503906 267.117188 C 217.171875 266.941406 216.828125 266.757812 216.519531 266.601562 C 216.222656 266.441406 215.9375 266.289062 215.667969 266.148438 C 210.441406 263.390625 209.332031 262.890625 209.164062 262.890625 C 209.164062 262.890625 209.171875 262.890625 209.179688 262.882812 C 209.1875 262.882812 209.1875 262.882812 209.195312 262.882812 C 209.257812 262.84375 209.226562 262.769531 209.234375 262.785156 C 209.234375 262.785156 209.242188 262.800781 209.257812 262.824219 L 209.164062 262.882812 C 209.28125 262.859375 209.28125 262.90625 209.257812 262.9375 C 206.800781 266.964844 204.34375 270.976562 202.492188 276.246094 C 200.632812 281.523438 199.359375 288.046875 198.09375 294.585938 C 198.078125 294.640625 198.03125 294.679688 197.976562 294.679688 C 197.925781 294.679688 197.878906 294.640625 197.871094 294.585938 C 197.433594 291.78125 196.996094 288.96875 197.417969 284.96875 C 197.839844 280.972656 199.121094 275.785156 200.289062 271.304688 C 201.449219 266.816406 202.507812 263.03125 203.566406 259.234375 L 203.597656 259.355469 L 190.566406 247.800781 C 188.917969 246.203125 187.28125 244.613281 184.863281 242.230469 C 182.453125 239.847656 179.234375 236.636719 178.511719 232.324219 C 177.882812 228.523438 179.1875 223.902344 180.738281 218.785156 C 180.847656 218.433594 180.949219 218.09375 181.0625 217.734375 C 181.164062 217.378906 181.277344 217.019531 181.386719 216.652344 C 183.203125 210.6875 185.070312 204.109375 186.4375 194.613281 C 187.804688 185.117188 188.679688 172.714844 189.5625 160.304688 L 190.214844 152.515625 L 190.222656 152.566406 C 190.199219 152.507812 190.230469 152.445312 190.285156 152.421875 C 190.34375 152.398438 190.40625 152.421875 190.429688 152.476562 Z M 190.429688 152.476562 " fill-opacity="1" fill-rule="nonzero"/></g><g clip-path="url(#f49d9b501a)"><path fill="#000000" d="M 201.148438 162.988281 Z M 201.035156 162.839844 C 201.042969 162.839844 201.058594 162.847656 201.078125 162.847656 C 201.125 162.871094 201.148438 162.933594 201.125 162.980469 C 201.101562 163.019531 201.070312 163.039062 201.035156 163.039062 C 201.019531 163.039062 201.003906 163.039062 200.996094 163.027344 L 200.988281 163.027344 C 200.941406 163.003906 200.917969 162.949219 200.941406 162.902344 C 200.957031 162.863281 200.996094 162.839844 201.035156 162.839844 Z M 261.9375 102.175781 L 261.929688 102.183594 C 261.90625 102.199219 261.882812 102.222656 261.859375 102.246094 C 261.316406 102.714844 260.164062 103.40625 258.980469 104.105469 C 258.972656 104.113281 258.972656 104.121094 258.972656 104.128906 C 258.972656 104.128906 258.972656 104.136719 258.980469 104.136719 C 259.535156 104.75 260.09375 105.621094 260.632812 107.226562 C 261.15625 108.792969 261.675781 111.058594 262.230469 113.480469 L 262.230469 113.488281 C 262.230469 113.488281 262.238281 113.496094 262.238281 113.496094 C 262.550781 114.863281 262.875 116.277344 263.21875 117.660156 C 264.179688 121.503906 265.308594 125.066406 266.4375 128.625 C 266.4375 128.625 266.4375 128.632812 266.4375 128.632812 L 266.445312 128.640625 L 266.445312 128.648438 C 267.949219 133.058594 269.453125 137.484375 269.699219 140.425781 C 269.945312 143.378906 268.917969 144.832031 267.863281 146.257812 L 267.6875 146.496094 C 266.691406 147.835938 265.722656 149.203125 265.4375 151.398438 C 265.132812 153.734375 265.617188 157.007812 266.4375 159.882812 C 267.25 162.75 268.410156 165.214844 269.214844 166.773438 C 269.761719 167.828125 270.144531 168.472656 270.714844 169.425781 C 270.976562 169.863281 271.296875 170.386719 271.671875 171.039062 C 272.386719 172.246094 273.355469 173.953125 274.261719 175.527344 C 274.890625 176.640625 275.488281 177.671875 275.933594 178.453125 C 276.972656 180.253906 277.210938 180.589844 277.816406 181.445312 L 277.894531 181.558594 C 278.554688 182.496094 279.703125 184.125 279.742188 185.523438 C 279.78125 186.929688 278.714844 188.082031 277.699219 189.195312 C 277.679688 189.210938 277.679688 189.210938 277.671875 189.21875 C 277.671875 189.21875 277.671875 189.226562 277.671875 189.226562 L 277.664062 189.226562 C 277.246094 189.789062 276.808594 190.371094 276.265625 190.71875 C 276.132812 190.816406 275.996094 190.886719 275.851562 190.941406 C 275.621094 191.046875 275.382812 191.09375 275.152344 191.09375 C 274.9375 191.09375 274.738281 191.054688 274.554688 190.949219 C 274.246094 190.785156 274.007812 190.464844 273.777344 190.148438 L 273.769531 190.140625 C 273.625 189.941406 273.476562 189.742188 273.316406 189.566406 C 272.878906 189.113281 272.304688 188.8125 271.710938 188.511719 C 271.703125 188.511719 271.703125 188.503906 271.703125 188.503906 L 271.679688 188.503906 C 270.90625 188.242188 270.144531 187.976562 268.957031 187.851562 C 268.011719 187.746094 266.804688 187.730469 265.53125 187.730469 C 265.207031 187.730469 264.832031 187.730469 264.496094 187.730469 L 255.925781 187.78125 C 255.917969 187.78125 255.917969 187.78125 255.917969 187.78125 L 255.902344 187.78125 C 255.25 187.707031 254.582031 187.636719 254.089844 187.476562 C 253.574219 187.320312 253.230469 187.046875 253.023438 186.332031 C 252.824219 185.640625 252.753906 184.515625 252.777344 183.671875 C 252.800781 183.058594 252.871094 182.597656 252.960938 182.179688 L 252.953125 182.164062 L 252.9375 182.171875 C 252.371094 182.871094 251.847656 183.570312 251.570312 184.355469 C 251.242188 185.261719 251.234375 186.285156 252.070312 187.605469 C 252.921875 188.949219 254.621094 190.578125 256.339844 192.230469 C 256.363281 192.253906 256.371094 192.285156 256.363281 192.316406 C 256.355469 192.347656 256.339844 192.378906 256.308594 192.386719 L 256.292969 192.394531 C 256.125 192.476562 255.949219 192.546875 255.773438 192.625 C 255.3125 192.808594 254.804688 193 254.082031 193.160156 C 253.746094 193.230469 253.367188 193.300781 252.960938 193.382812 C 252.484375 193.46875 251.964844 193.5625 251.433594 193.683594 C 251.042969 193.769531 250.644531 193.875 250.257812 193.992188 C 249.914062 194.089844 249.574219 194.207031 249.238281 194.34375 C 248.15625 194.796875 247.058594 195.519531 245.9375 196.980469 C 244.453125 198.902344 242.925781 202.097656 241.535156 205.640625 C 240.140625 209.191406 238.894531 213.070312 237.636719 216.964844 C 237.628906 217.003906 237.597656 217.027344 237.558594 217.035156 C 237.550781 217.035156 237.550781 217.035156 237.542969 217.035156 C 237.511719 217.035156 237.480469 217.019531 237.460938 216.988281 L 237.453125 216.980469 C 236.675781 215.789062 235.878906 214.574219 235.394531 212.777344 C 234.902344 210.980469 234.71875 208.597656 234.609375 206.59375 C 234.601562 206.46875 234.59375 206.285156 234.585938 206.15625 C 234.578125 206.015625 234.566406 205.878906 234.558594 205.738281 C 234.464844 204.125 234.355469 202.8125 233.804688 201.773438 C 233.320312 200.859375 232.5 200.144531 231.300781 199.109375 L 231.300781 199.101562 C 230.902344 198.761719 230.472656 198.386719 229.996094 197.964844 C 228.097656 196.25 225.574219 193.691406 223.046875 191.132812 L 223.046875 191.125 L 223.046875 191.140625 L 223.046875 191.125 L 223.007812 191.09375 C 217.925781 186.398438 212.84375 181.703125 209.894531 178.769531 C 206.945312 175.828125 206.117188 174.652344 205.59375 172.699219 C 205.074219 170.769531 204.851562 168.074219 204.621094 165.398438 L 204.621094 165.390625 C 204.621094 165.390625 204.621094 165.382812 204.621094 165.375 L 205.203125 155.878906 L 205.1875 155.863281 L 190.269531 154.628906 C 190.269531 154.628906 190.261719 154.628906 190.261719 154.628906 C 190.253906 154.628906 190.246094 154.628906 190.246094 154.640625 L 189.769531 160.320312 C 188.894531 172.730469 188.019531 185.140625 186.644531 194.644531 C 185.277344 204.148438 183.40625 210.742188 181.59375 216.71875 C 181.476562 217.097656 181.378906 217.410156 181.261719 217.789062 L 181.261719 217.796875 C 181.15625 218.148438 181.046875 218.496094 180.941406 218.847656 C 179.382812 223.972656 178.105469 228.546875 178.726562 232.28125 C 179.425781 236.519531 182.589844 239.6875 185.015625 242.078125 C 187.421875 244.457031 189.0625 246.042969 190.699219 247.632812 L 190.714844 247.648438 L 190.707031 247.640625 L 203.738281 259.195312 C 203.765625 259.21875 203.78125 259.257812 203.765625 259.289062 C 202.714844 263.089844 201.65625 266.871094 200.488281 271.359375 C 199.328125 275.839844 198.046875 281.011719 197.632812 284.984375 C 197.242188 288.65625 197.585938 291.320312 197.976562 293.910156 C 197.984375 293.917969 197.984375 293.917969 197.992188 293.917969 C 198 293.917969 198.007812 293.917969 198.007812 293.910156 C 199.238281 287.585938 200.488281 281.292969 202.292969 276.175781 C 204.144531 270.914062 206.59375 266.894531 209.035156 262.890625 C 209.035156 262.890625 209.042969 262.890625 209.042969 262.890625 C 209.042969 262.882812 209.042969 262.875 209.042969 262.875 C 209.042969 262.867188 209.035156 262.859375 209.035156 262.859375 L 209.035156 262.851562 C 209.027344 262.824219 209.003906 262.746094 209.082031 262.699219 C 209.089844 262.691406 209.089844 262.691406 209.097656 262.691406 C 209.125 262.683594 209.148438 262.675781 209.164062 262.675781 C 209.402344 262.675781 210.609375 263.230469 215.761719 265.957031 C 215.769531 265.964844 215.785156 265.972656 215.785156 265.972656 L 216.613281 266.410156 C 216.890625 266.550781 217.304688 266.773438 217.601562 266.933594 C 224.851562 270.765625 237.222656 277.175781 246.84375 279.195312 C 249.414062 279.734375 251.792969 279.957031 253.976562 279.957031 C 258.835938 279.957031 262.757812 278.84375 265.824219 277.566406 C 266.996094 277.082031 268.042969 276.570312 268.972656 276.085938 C 273.417969 273.78125 275.019531 272.210938 275.445312 270.992188 C 275.773438 270.054688 275.421875 269.308594 274.984375 268.378906 C 274.859375 268.109375 274.722656 267.832031 274.597656 267.53125 C 274.230469 266.632812 273.960938 265.558594 273.625 264.25 L 273.625 264.242188 C 273.453125 263.582031 273.269531 262.867188 273.054688 262.070312 C 272.996094 261.878906 272.941406 261.683594 272.886719 261.484375 C 272.824219 261.261719 272.765625 261.070312 272.703125 260.832031 C 272.082031 258.589844 271.351562 255.578125 271.058594 250.25 C 270.707031 243.882812 270.996094 234.199219 271.273438 224.511719 L 271.273438 224.519531 L 271.273438 224.511719 L 270.707031 221.546875 C 270.707031 221.546875 270.707031 221.539062 270.707031 221.539062 L 270.707031 221.53125 L 270.699219 221.523438 C 269.769531 219.746094 268.832031 217.957031 268.570312 216.925781 C 268.28125 215.835938 268.734375 215.535156 269.164062 215.253906 L 269.171875 215.253906 C 269.460938 215.082031 269.753906 214.898438 270.121094 214.746094 C 270.390625 214.636719 270.699219 214.539062 271.066406 214.476562 C 271.3125 214.429688 271.574219 214.398438 271.84375 214.375 L 271.851562 214.375 C 272.132812 214.34375 272.417969 214.308594 272.6875 214.261719 C 272.933594 214.214844 273.164062 214.160156 273.355469 214.078125 C 273.460938 214.03125 273.554688 213.984375 273.632812 213.929688 C 274.160156 213.539062 274.136719 212.746094 274.101562 211.863281 L 274.101562 211.871094 L 274.101562 211.863281 C 273.707031 208.246094 273.308594 204.65625 272.320312 201.898438 C 271.335938 199.140625 269.761719 197.210938 268.179688 195.273438 C 268.15625 195.242188 268.148438 195.207031 268.164062 195.175781 C 268.171875 195.136719 268.203125 195.113281 268.234375 195.113281 C 270.523438 194.722656 272.816406 194.335938 274.476562 194.136719 C 274.667969 194.113281 274.867188 194.089844 275.042969 194.074219 L 275.050781 194.074219 L 275.058594 194.066406 L 275.066406 194.066406 C 275.234375 194.050781 275.382812 194.03125 275.535156 194.015625 C 276.15625 193.9375 276.664062 193.859375 277.109375 193.667969 C 277.425781 193.539062 277.714844 193.359375 277.992188 193.078125 C 278.644531 192.429688 279.214844 191.269531 279.804688 190.066406 C 279.988281 189.703125 280.171875 189.335938 280.351562 188.980469 C 280.566406 188.574219 280.78125 188.183594 280.988281 187.820312 C 281.171875 187.476562 281.355469 187.152344 281.515625 186.84375 C 281.832031 186.230469 282.078125 185.683594 282.167969 185.191406 C 282.363281 184.171875 281.945312 183.339844 281.507812 182.480469 C 278.707031 178.078125 275.898438 173.667969 273.117188 168.710938 C 270.34375 163.761719 267.566406 158.230469 267.289062 154.75 C 267.042969 151.660156 268.75 150.171875 270.0625 149.046875 L 270.0625 149.035156 L 270.070312 149.035156 C 270.246094 148.886719 270.414062 148.742188 270.566406 148.601562 C 271.886719 147.390625 272.320312 146.390625 272.355469 145.636719 C 272.394531 144.875 272.027344 144.332031 271.644531 143.761719 C 271.628906 143.738281 271.621094 143.707031 271.628906 143.683594 L 271.628906 143.671875 C 271.949219 142.179688 272.257812 140.703125 271.910156 138.382812 C 271.558594 136.046875 270.539062 132.859375 269.515625 129.664062 L 261.953125 102.191406 Z M 261.9375 102.175781 " fill-opacity="1" fill-rule="nonzero"/></g><path fill="#000000" d="M 230.734375 144.414062 L 230.617188 144.222656 L 230.65625 144.199219 C 233.34375 142.648438 236.023438 141.105469 238.601562 139.605469 L 238.832031 139.460938 L 239.070312 139.328125 C 241.476562 137.921875 243.800781 136.585938 245.789062 136.0625 C 247.917969 135.511719 249.660156 135.894531 251.894531 136.492188 C 254.128906 137.085938 256.886719 137.90625 259.640625 138.722656 L 259.632812 138.722656 L 261.414062 139.121094 L 261.40625 139.121094 C 262.097656 139.222656 262.859375 139.335938 263.296875 139.890625 C 263.3125 139.914062 263.335938 139.949219 263.351562 139.980469 C 263.726562 140.527344 263.804688 141.425781 263.886719 142.273438 L 263.789062 142.179688 L 265.015625 142.410156 L 264.925781 142.425781 L 266.222656 141.601562 C 266.253906 141.574219 266.292969 141.574219 266.328125 141.59375 C 266.367188 141.609375 266.390625 141.640625 266.398438 141.679688 C 266.515625 142.433594 266.652344 143.246094 266.238281 143.992188 C 265.882812 144.660156 265.09375 145.261719 264.210938 145.945312 C 264.109375 146.027344 264.003906 146.113281 263.902344 146.191406 C 263.871094 146.214844 263.835938 146.25 263.804688 146.273438 C 263.765625 146.296875 263.742188 146.320312 263.703125 146.34375 C 262.75 147.097656 261.628906 147.941406 260.210938 147.558594 C 259.34375 147.320312 258.382812 146.628906 257.339844 145.875 C 256.578125 145.335938 255.765625 144.753906 254.898438 144.269531 C 252.839844 143.125 250.457031 142.539062 247.332031 142.363281 C 244.199219 142.1875 240.339844 142.417969 237.765625 142.824219 C 235.707031 143.148438 234.480469 143.578125 233.589844 143.886719 C 233.375 143.96875 233.167969 144.039062 232.984375 144.09375 C 232.03125 144.40625 231.433594 144.429688 230.839844 144.453125 C 230.773438 144.453125 230.71875 144.40625 230.71875 144.339844 C 230.71875 144.277344 230.765625 144.222656 230.832031 144.222656 C 231.417969 144.199219 231.992188 144.175781 232.914062 143.878906 C 233.097656 143.824219 233.296875 143.753906 233.519531 143.671875 C 234.410156 143.363281 235.65625 142.925781 237.734375 142.601562 C 240.316406 142.195312 244.199219 141.957031 247.339844 142.140625 C 250.488281 142.316406 252.914062 142.902344 255.011719 144.070312 C 255.886719 144.5625 256.714844 145.152344 257.46875 145.691406 C 258.527344 146.453125 259.457031 147.113281 260.269531 147.335938 C 261.554688 147.6875 262.589844 146.929688 263.566406 146.167969 C 263.597656 146.136719 263.632812 146.121094 263.664062 146.089844 C 263.695312 146.066406 263.734375 146.042969 263.765625 146.019531 C 263.871094 145.929688 263.972656 145.851562 264.078125 145.769531 C 264.96875 145.070312 265.707031 144.492188 266.039062 143.878906 C 266.414062 143.214844 266.292969 142.480469 266.175781 141.710938 L 266.34375 141.789062 L 265.054688 142.617188 C 265.03125 142.632812 265 142.640625 264.96875 142.632812 L 263.75 142.402344 C 263.703125 142.394531 263.664062 142.347656 263.65625 142.300781 C 263.574219 141.425781 263.496094 140.597656 263.171875 140.105469 C 263.152344 140.074219 263.128906 140.050781 263.113281 140.027344 C 262.75 139.566406 262.097656 139.453125 261.363281 139.34375 C 261.363281 139.34375 261.363281 139.34375 261.355469 139.34375 L 259.582031 138.945312 C 259.574219 138.945312 259.574219 138.945312 259.574219 138.9375 C 256.816406 138.128906 254.074219 137.308594 251.839844 136.714844 C 249.605469 136.117188 247.910156 135.742188 245.851562 136.285156 C 243.894531 136.792969 241.605469 138.113281 239.179688 139.527344 L 238.949219 139.660156 L 238.710938 139.796875 C 236.132812 141.304688 233.453125 142.847656 230.765625 144.398438 L 230.734375 144.414062 C 230.679688 144.445312 230.617188 144.429688 230.578125 144.371094 C 230.542969 144.324219 230.5625 144.253906 230.617188 144.222656 C 230.664062 144.191406 230.734375 144.207031 230.765625 144.253906 C 230.808594 144.308594 230.792969 144.371094 230.734375 144.414062 Z M 230.734375 144.414062 " fill-opacity="1" fill-rule="nonzero"/><path fill="#000000" d="M 231.085938 144.207031 Z M 231.085938 144.207031 Z M 231.085938 144.207031 L 231.085938 144.214844 Z M 231.085938 144.214844 Z M 231.085938 144.214844 Z M 247.863281 136.015625 C 247.210938 136.015625 246.550781 136.09375 245.84375 136.277344 C 243.894531 136.785156 241.597656 138.105469 239.179688 139.519531 L 238.941406 139.652344 L 238.710938 139.796875 C 236.230469 141.242188 233.667969 142.71875 231.085938 144.207031 L 231.085938 144.214844 C 231.59375 144.191406 232.128906 144.132812 232.914062 143.886719 C 233.105469 143.832031 233.296875 143.761719 233.519531 143.683594 C 234.410156 143.371094 235.65625 142.933594 237.734375 142.609375 C 239.722656 142.292969 242.480469 142.085938 245.082031 142.085938 C 245.851562 142.085938 246.613281 142.101562 247.339844 142.140625 C 250.488281 142.324219 252.90625 142.910156 255.003906 144.078125 C 255.886719 144.5625 256.707031 145.152344 257.460938 145.699219 L 257.46875 145.699219 C 258.527344 146.453125 259.449219 147.121094 260.269531 147.34375 C 260.492188 147.398438 260.703125 147.433594 260.917969 147.433594 C 261.921875 147.433594 262.765625 146.804688 263.566406 146.175781 C 263.589844 146.160156 263.574219 146.167969 263.589844 146.160156 C 263.605469 146.144531 263.640625 146.121094 263.65625 146.105469 L 263.671875 146.097656 C 263.710938 146.066406 263.726562 146.050781 263.765625 146.019531 L 263.773438 146.011719 C 263.871094 145.9375 263.980469 145.851562 264.078125 145.769531 C 264.976562 145.082031 265.714844 144.5 266.046875 143.886719 C 266.390625 143.261719 266.320312 142.59375 266.207031 141.886719 L 266.199219 141.878906 L 266.191406 141.878906 L 265.046875 142.609375 C 265.03125 142.625 265.007812 142.632812 264.992188 142.632812 C 264.984375 142.632812 264.976562 142.625 264.96875 142.625 L 263.75 142.394531 C 263.703125 142.386719 263.671875 142.347656 263.664062 142.300781 C 263.582031 141.425781 263.503906 140.589844 263.171875 140.097656 C 263.152344 140.074219 263.136719 140.050781 263.121094 140.027344 C 262.757812 139.558594 262.097656 139.445312 261.363281 139.335938 L 259.582031 138.9375 C 259.582031 138.9375 259.574219 138.9375 259.574219 138.9375 L 259.472656 138.90625 C 256.753906 138.097656 254.042969 137.292969 251.839844 136.707031 C 250.367188 136.308594 249.128906 136.015625 247.863281 136.015625 Z M 247.863281 136.015625 " fill-opacity="1" fill-rule="nonzero"/><path fill="#000000" d="M 239.011719 150.386719 C 238.957031 150.402344 238.902344 150.378906 238.878906 150.324219 C 238.863281 150.269531 238.878906 150.214844 238.925781 150.179688 C 240.214844 149.417969 241.519531 148.648438 243.984375 147.996094 C 246.441406 147.34375 250.066406 146.804688 252.648438 146.820312 C 255.25 146.84375 256.816406 147.425781 258.359375 148.003906 C 258.398438 148.011719 258.421875 148.042969 258.429688 148.074219 C 258.4375 148.109375 258.4375 148.148438 258.414062 148.179688 C 257.960938 148.796875 257.492188 149.433594 256.515625 150.214844 C 256.125 150.523438 255.65625 150.847656 255.179688 151.183594 C 254.675781 151.53125 254.175781 151.890625 253.746094 152.230469 C 253.546875 152.382812 253.375 152.53125 253.214844 152.683594 C 252.386719 153.453125 252.1875 154.097656 252.285156 154.820312 C 252.300781 154.972656 252.332031 155.125 252.371094 155.273438 C 252.417969 155.496094 252.492188 155.710938 252.554688 155.933594 C 252.617188 156.140625 252.683594 156.347656 252.730469 156.539062 C 252.769531 156.71875 252.800781 156.894531 252.808594 157.054688 C 252.839844 157.714844 252.453125 158.109375 252.101562 158.46875 C 252.078125 158.492188 252.046875 158.507812 252.007812 158.5 C 251.972656 158.5 251.941406 158.476562 251.925781 158.453125 L 251.058594 157.046875 L 251.117188 157.09375 C 249.167969 156.324219 247.210938 155.550781 245.75 154.835938 C 244.285156 154.128906 243.308594 153.488281 242.34375 152.84375 C 242.34375 152.84375 242.335938 152.84375 242.335938 152.84375 L 238.972656 150.417969 C 238.917969 150.378906 238.910156 150.308594 238.949219 150.261719 C 238.980469 150.203125 239.054688 150.195312 239.101562 150.230469 L 242.472656 152.660156 L 242.464844 152.652344 C 243.433594 153.296875 244.394531 153.929688 245.84375 154.640625 C 247.296875 155.339844 249.246094 156.109375 251.203125 156.886719 C 251.21875 156.894531 251.242188 156.910156 251.25 156.925781 L 252.117188 158.332031 L 251.941406 158.308594 C 252.292969 157.945312 252.609375 157.617188 252.585938 157.0625 C 252.578125 156.925781 252.546875 156.769531 252.507812 156.59375 C 252.460938 156.402344 252.402344 156.203125 252.339844 155.996094 C 252.269531 155.78125 252.203125 155.550781 252.148438 155.328125 C 252.109375 155.171875 252.078125 155.011719 252.054688 154.851562 C 251.957031 154.042969 252.1875 153.328125 253.0625 152.515625 C 253.222656 152.367188 253.40625 152.207031 253.605469 152.046875 C 254.042969 151.707031 254.550781 151.347656 255.050781 151 C 255.527344 150.664062 255.988281 150.339844 256.371094 150.039062 C 257.332031 149.277344 257.777344 148.664062 258.230469 148.042969 L 258.289062 148.21875 C 256.746094 147.636719 255.210938 147.066406 252.648438 147.050781 C 250.082031 147.027344 246.480469 147.566406 244.039062 148.210938 C 241.605469 148.863281 240.324219 149.617188 239.046875 150.378906 L 238.957031 150.171875 C 239.019531 150.15625 239.078125 150.195312 239.09375 150.253906 C 239.109375 150.316406 239.078125 150.378906 239.011719 150.386719 Z M 239.011719 150.386719 " fill-opacity="1" fill-rule="nonzero"/><path fill="#000000" d="M 248.546875 149.570312 L 248.632812 149.472656 L 248.164062 154.152344 C 248.15625 154.1875 248.140625 154.21875 248.117188 154.234375 C 248.09375 154.257812 248.054688 154.265625 248.023438 154.257812 C 247.28125 154.097656 246.519531 153.941406 245.558594 153.488281 C 244.585938 153.042969 243.417969 152.300781 242.25 151.5625 C 242.21875 151.546875 242.203125 151.515625 242.203125 151.476562 C 242.195312 151.445312 242.210938 151.40625 242.242188 151.382812 C 243.050781 150.738281 243.878906 150.078125 244.9375 149.753906 C 245.980469 149.417969 247.242188 149.417969 248.492188 149.417969 C 248.546875 149.417969 248.601562 149.464844 248.601562 149.53125 C 248.601562 149.59375 248.546875 149.648438 248.492188 149.648438 C 247.234375 149.648438 246.011719 149.648438 245 149.964844 C 244 150.285156 243.195312 150.914062 242.382812 151.5625 L 242.375 151.375 C 243.546875 152.113281 244.699219 152.84375 245.652344 153.28125 C 246.589844 153.726562 247.332031 153.875 248.070312 154.035156 L 247.933594 154.128906 L 248.410156 149.449219 C 248.410156 149.402344 248.453125 149.363281 248.5 149.347656 C 248.554688 149.332031 248.617188 149.371094 248.632812 149.433594 C 248.652344 149.488281 248.609375 149.554688 248.546875 149.570312 Z M 248.546875 149.570312 " fill-opacity="1" fill-rule="nonzero"/><path fill="#000000" d="M 248.523438 149.355469 C 248.570312 149.355469 248.617188 149.386719 248.625 149.433594 C 248.625 149.441406 248.632812 149.457031 248.625 149.464844 L 248.632812 149.464844 L 248.625 149.472656 L 248.15625 154.152344 C 248.148438 154.1875 248.132812 154.210938 248.109375 154.234375 C 248.09375 154.242188 248.070312 154.25 248.046875 154.25 C 248.039062 154.25 248.039062 154.25 248.03125 154.25 L 248.023438 154.25 C 247.273438 154.089844 246.527344 153.929688 245.558594 153.488281 C 244.59375 153.035156 243.425781 152.292969 242.257812 151.5625 C 242.226562 151.539062 242.210938 151.507812 242.210938 151.476562 C 242.203125 151.445312 242.21875 151.414062 242.25 151.390625 L 242.25 151.382812 C 242.257812 151.382812 242.257812 151.382812 242.257812 151.375 C 243.070312 150.738281 243.886719 150.085938 244.9375 149.761719 C 245.960938 149.433594 247.195312 149.425781 248.410156 149.425781 L 248.417969 149.425781 L 248.417969 149.417969 C 248.4375 149.386719 248.460938 149.363281 248.5 149.355469 C 248.507812 149.355469 248.515625 149.355469 248.523438 149.355469 Z M 252.515625 147.042969 C 249.953125 147.042969 246.441406 147.574219 244.039062 148.210938 C 241.691406 148.832031 240.421875 149.554688 239.179688 150.285156 L 239.1875 150.300781 L 242.464844 152.660156 C 243.433594 153.304688 244.394531 153.941406 245.84375 154.640625 C 247.296875 155.347656 249.246094 156.117188 251.195312 156.886719 C 251.21875 156.894531 251.234375 156.910156 251.25 156.933594 L 252.039062 158.207031 L 252.046875 158.207031 C 252.355469 157.878906 252.609375 157.570312 252.585938 157.0625 C 252.585938 156.925781 252.554688 156.769531 252.515625 156.59375 C 252.46875 156.402344 252.402344 156.203125 252.347656 155.996094 L 252.339844 155.996094 L 252.339844 155.988281 C 252.277344 155.773438 252.210938 155.550781 252.15625 155.328125 C 252.117188 155.171875 252.085938 155.003906 252.0625 154.851562 C 251.964844 154.042969 252.195312 153.335938 253.0625 152.515625 C 253.230469 152.367188 253.414062 152.214844 253.613281 152.054688 C 254.050781 151.707031 254.558594 151.347656 255.050781 151.007812 C 255.527344 150.664062 255.988281 150.339844 256.378906 150.039062 C 257.269531 149.332031 257.722656 148.75 258.144531 148.171875 L 258.144531 148.15625 C 256.648438 147.597656 255.140625 147.058594 252.648438 147.042969 C 252.609375 147.042969 252.554688 147.042969 252.515625 147.042969 Z M 252.046875 158.207031 Z M 252.046875 158.207031 " fill-opacity="1" fill-rule="nonzero"/></svg>