<svg xmlns="http://www.w3.org/2000/svg" xmlns:xlink="http://www.w3.org/1999/xlink" width="500" zoomAndPan="magnify" viewBox="0 0 375 374.999991" height="500" preserveAspectRatio="xMidYMid meet" version="1.0"><defs><clipPath id="360cb34758"><path d="M 18.816406 6.132812 L 362.109375 6.132812 L 362.109375 365 L 18.816406 365 Z M 18.816406 6.132812 " clip-rule="nonzero"/></clipPath></defs><g clip-path="url(#360cb34758)"><path fill="#ffffff" d="M 300.097656 42.050781 L 283.410156 42.050781 L 283.410156 17.164062 C 283.410156 11.167969 278.539062 6.347656 272.578125 6.347656 C 266.59375 6.347656 261.769531 11.222656 261.769531 17.164062 L 261.769531 42.089844 L 112.953125 42.089844 L 112.953125 17.164062 C 112.953125 11.167969 108.082031 6.347656 102.125 6.347656 C 96.125 6.347656 91.292969 11.222656 91.292969 17.164062 L 91.292969 42.089844 L 80.789062 42.089844 C 46.554688 42.089844 18.816406 69.78125 18.816406 103.96875 L 18.816406 302.972656 C 18.816406 337.160156 46.554688 364.84375 80.789062 364.84375 L 300.097656 364.84375 C 334.324219 364.84375 362.070312 337.160156 362.070312 302.972656 L 362.070312 103.96875 C 362.109375 69.78125 334.324219 42.050781 300.097656 42.050781 Z M 261.710938 53.484375 L 261.710938 75.960938 C 261.710938 81.9375 266.59375 86.765625 272.535156 86.765625 C 278.539062 86.765625 283.367188 81.894531 283.367188 75.960938 L 283.367188 54.332031 C 290.304688 58.347656 295.003906 65.851562 295.003906 74.4375 C 295.003906 87.253906 284.582031 97.664062 271.746094 97.664062 C 258.890625 97.664062 248.46875 87.253906 248.46875 74.4375 C 248.5625 65.179688 253.941406 57.230469 261.710938 53.484375 Z M 91.253906 53.886719 L 91.253906 75.960938 C 91.253906 81.9375 96.125 86.765625 102.085938 86.765625 C 108.082031 86.765625 112.910156 81.894531 112.910156 75.960938 L 112.910156 53.886719 C 120.292969 57.765625 125.304688 65.5 125.304688 74.378906 C 125.304688 87.210938 114.878906 97.625 102.042969 97.625 C 89.207031 97.625 78.777344 87.210938 78.777344 74.378906 C 78.863281 65.5 83.917969 57.765625 91.253906 53.886719 Z M 340.410156 302.929688 C 340.410156 325.140625 322.34375 343.140625 300.136719 343.140625 L 80.789062 343.140625 C 58.546875 343.140625 40.515625 325.085938 40.515625 302.929688 L 40.515625 138.09375 L 340.410156 138.09375 Z M 340.410156 302.929688 " fill-opacity="1" fill-rule="nonzero"/></g><path fill="#ffffff" d="M 113.261719 200.5 L 83.246094 200.5 C 80.832031 200.5 78.863281 198.53125 78.863281 196.125 L 78.863281 166.148438 C 78.863281 163.734375 80.832031 161.765625 83.246094 161.765625 L 113.261719 161.765625 C 115.6875 161.765625 117.652344 163.734375 117.652344 166.148438 L 117.652344 196.125 C 117.597656 198.53125 115.6875 200.5 113.261719 200.5 Z M 113.261719 200.5 " fill-opacity="1" fill-rule="nonzero"/><path fill="#ffffff" d="M 113.261719 261.972656 L 83.246094 261.972656 C 80.832031 261.972656 78.863281 260.003906 78.863281 257.589844 L 78.863281 227.617188 C 78.863281 225.207031 80.832031 223.238281 83.246094 223.238281 L 113.261719 223.238281 C 115.6875 223.238281 117.652344 225.207031 117.652344 227.617188 L 117.652344 257.589844 C 117.597656 260.046875 115.6875 261.972656 113.261719 261.972656 Z M 113.261719 261.972656 " fill-opacity="1" fill-rule="nonzero"/><path fill="#ffffff" d="M 113.261719 323.480469 L 83.246094 323.480469 C 80.832031 323.480469 78.863281 321.519531 78.863281 319.105469 L 78.863281 289.128906 C 78.863281 286.714844 80.832031 284.753906 83.246094 284.753906 L 113.261719 284.753906 C 115.6875 284.753906 117.652344 286.714844 117.652344 289.128906 L 117.652344 319.144531 C 117.597656 321.519531 115.6875 323.480469 113.261719 323.480469 Z M 113.261719 323.480469 " fill-opacity="1" fill-rule="nonzero"/><path fill="#ffffff" d="M 174.824219 200.5 L 144.8125 200.5 C 142.398438 200.5 140.429688 198.53125 140.429688 196.125 L 140.429688 166.148438 C 140.429688 163.734375 142.398438 161.765625 144.8125 161.765625 L 174.824219 161.765625 C 177.246094 161.765625 179.210938 163.734375 179.210938 166.148438 L 179.210938 196.125 C 179.210938 198.53125 177.246094 200.5 174.824219 200.5 Z M 174.824219 200.5 " fill-opacity="1" fill-rule="nonzero"/><path fill="#ffffff" d="M 174.824219 261.972656 L 144.8125 261.972656 C 142.398438 261.972656 140.429688 260.003906 140.429688 257.589844 L 140.429688 227.617188 C 140.429688 225.207031 142.398438 223.238281 144.8125 223.238281 L 174.824219 223.238281 C 177.246094 223.238281 179.210938 225.207031 179.210938 227.617188 L 179.210938 257.589844 C 179.210938 260.046875 177.246094 261.972656 174.824219 261.972656 Z M 174.824219 261.972656 " fill-opacity="1" fill-rule="nonzero"/><path fill="#ffffff" d="M 174.824219 323.480469 L 144.8125 323.480469 C 142.398438 323.480469 140.429688 321.519531 140.429688 319.105469 L 140.429688 289.128906 C 140.429688 286.714844 142.398438 284.753906 144.8125 284.753906 L 174.824219 284.753906 C 177.246094 284.753906 179.210938 286.714844 179.210938 289.128906 L 179.210938 319.144531 C 179.210938 321.519531 177.246094 323.480469 174.824219 323.480469 Z M 174.824219 323.480469 " fill-opacity="1" fill-rule="nonzero"/><path fill="#ffffff" d="M 236.433594 200.5 L 206.417969 200.5 C 203.996094 200.5 202.027344 198.53125 202.027344 196.125 L 202.027344 166.148438 C 202.027344 163.734375 203.996094 161.765625 206.417969 161.765625 L 236.433594 161.765625 C 238.855469 161.765625 240.820312 163.734375 240.820312 166.148438 L 240.820312 196.125 C 240.777344 198.53125 238.855469 200.5 236.433594 200.5 Z M 236.433594 200.5 " fill-opacity="1" fill-rule="nonzero"/><path fill="#ffffff" d="M 236.433594 261.972656 L 206.417969 261.972656 C 203.996094 261.972656 202.027344 260.003906 202.027344 257.589844 L 202.027344 227.617188 C 202.027344 225.207031 203.996094 223.238281 206.417969 223.238281 L 236.433594 223.238281 C 238.855469 223.238281 240.820312 225.207031 240.820312 227.617188 L 240.820312 257.589844 C 240.777344 260.046875 238.855469 261.972656 236.433594 261.972656 Z M 236.433594 261.972656 " fill-opacity="1" fill-rule="nonzero"/><path fill="#ffffff" d="M 236.433594 323.480469 L 206.417969 323.480469 C 203.996094 323.480469 202.027344 321.519531 202.027344 319.105469 L 202.027344 289.128906 C 202.027344 286.714844 203.996094 284.753906 206.417969 284.753906 L 236.433594 284.753906 C 238.855469 284.753906 240.820312 286.714844 240.820312 289.128906 L 240.820312 319.144531 C 240.777344 321.519531 238.855469 323.480469 236.433594 323.480469 Z M 236.433594 323.480469 " fill-opacity="1" fill-rule="nonzero"/><path fill="#ffffff" d="M 298.050781 200.5 L 268.015625 200.5 C 265.601562 200.5 263.636719 198.53125 263.636719 196.125 L 263.636719 166.148438 C 263.636719 163.734375 265.601562 161.765625 268.015625 161.765625 L 298.050781 161.765625 C 300.464844 161.765625 302.429688 163.734375 302.429688 166.148438 L 302.429688 196.125 C 302.386719 198.53125 300.417969 200.5 298.050781 200.5 Z M 298.050781 200.5 " fill-opacity="1" fill-rule="nonzero"/><path fill="#ffffff" d="M 298.050781 261.972656 L 268.015625 261.972656 C 265.601562 261.972656 263.636719 260.003906 263.636719 257.589844 L 263.636719 227.617188 C 263.636719 225.207031 265.601562 223.238281 268.015625 223.238281 L 298.050781 223.238281 C 300.464844 223.238281 302.429688 225.207031 302.429688 227.617188 L 302.429688 257.589844 C 302.386719 260.046875 300.417969 261.972656 298.050781 261.972656 Z M 298.050781 261.972656 " fill-opacity="1" fill-rule="nonzero"/></svg>