<svg xmlns="http://www.w3.org/2000/svg" xmlns:xlink="http://www.w3.org/1999/xlink" width="500" zoomAndPan="magnify" viewBox="0 0 375 374.999991" height="500" preserveAspectRatio="xMidYMid meet" version="1.0"><defs><clipPath id="935c65d6d4"><path d="M 82.367188 83.183594 L 296.328125 83.183594 L 296.328125 306.894531 L 82.367188 306.894531 Z M 82.367188 83.183594 " clip-rule="nonzero"/></clipPath></defs><g clip-path="url(#935c65d6d4)"><path fill="#000000" d="M 257.679688 105.570312 L 247.277344 105.570312 L 247.277344 90.058594 C 247.277344 86.320312 244.242188 83.316406 240.527344 83.316406 C 236.796875 83.316406 233.789062 86.355469 233.789062 90.058594 L 233.789062 105.59375 L 141.039062 105.59375 L 141.039062 90.058594 C 141.039062 86.320312 138.003906 83.316406 134.289062 83.316406 C 130.550781 83.316406 127.539062 86.355469 127.539062 90.058594 L 127.539062 105.59375 L 120.992188 105.59375 C 99.65625 105.59375 82.367188 122.851562 82.367188 144.160156 L 82.367188 268.191406 C 82.367188 289.5 99.65625 306.753906 120.992188 306.753906 L 257.679688 306.753906 C 279.011719 306.753906 296.304688 289.5 296.304688 268.191406 L 296.304688 144.160156 C 296.328125 122.851562 279.011719 105.570312 257.679688 105.570312 Z M 233.753906 112.695312 L 233.753906 126.703125 C 233.753906 130.429688 236.796875 133.4375 240.5 133.4375 C 244.242188 133.4375 247.25 130.402344 247.25 126.703125 L 247.25 113.222656 C 251.574219 115.726562 254.503906 120.402344 254.503906 125.753906 C 254.503906 133.742188 248.007812 140.230469 240.007812 140.230469 C 231.996094 140.230469 225.5 133.742188 225.5 125.753906 C 225.558594 119.984375 228.910156 115.03125 233.753906 112.695312 Z M 127.515625 112.945312 L 127.515625 126.703125 C 127.515625 130.429688 130.550781 133.4375 134.265625 133.4375 C 138.003906 133.4375 141.011719 130.402344 141.011719 126.703125 L 141.011719 112.945312 C 145.613281 115.363281 148.738281 120.183594 148.738281 125.71875 C 148.738281 133.714844 142.238281 140.207031 134.238281 140.207031 C 126.238281 140.207031 119.738281 133.714844 119.738281 125.71875 C 119.792969 120.183594 122.941406 115.363281 127.515625 112.945312 Z M 282.804688 268.164062 C 282.804688 282.007812 271.542969 293.226562 257.703125 293.226562 L 120.992188 293.226562 C 107.128906 293.226562 95.890625 281.972656 95.890625 268.164062 L 95.890625 165.429688 L 282.804688 165.429688 Z M 282.804688 268.164062 " fill-opacity="1" fill-rule="nonzero"/></g><path fill="#000000" d="M 141.230469 204.324219 L 122.523438 204.324219 C 121.019531 204.324219 119.792969 203.097656 119.792969 201.597656 L 119.792969 182.914062 C 119.792969 181.410156 121.019531 180.183594 122.523438 180.183594 L 141.230469 180.183594 C 142.742188 180.183594 143.96875 181.410156 143.96875 182.914062 L 143.96875 201.597656 C 143.933594 203.097656 142.742188 204.324219 141.230469 204.324219 Z M 141.230469 204.324219 " fill-opacity="1" fill-rule="nonzero"/><path fill="#000000" d="M 141.230469 242.636719 L 122.523438 242.636719 C 121.019531 242.636719 119.792969 241.410156 119.792969 239.90625 L 119.792969 221.226562 C 119.792969 219.722656 121.019531 218.496094 122.523438 218.496094 L 141.230469 218.496094 C 142.742188 218.496094 143.96875 219.722656 143.96875 221.226562 L 143.96875 239.90625 C 143.933594 241.4375 142.742188 242.636719 141.230469 242.636719 Z M 141.230469 242.636719 " fill-opacity="1" fill-rule="nonzero"/><path fill="#000000" d="M 141.230469 280.972656 L 122.523438 280.972656 C 121.019531 280.972656 119.792969 279.75 119.792969 278.246094 L 119.792969 259.5625 C 119.792969 258.058594 121.019531 256.835938 122.523438 256.835938 L 141.230469 256.835938 C 142.742188 256.835938 143.96875 258.058594 143.96875 259.5625 L 143.96875 278.269531 C 143.933594 279.75 142.742188 280.972656 141.230469 280.972656 Z M 141.230469 280.972656 " fill-opacity="1" fill-rule="nonzero"/><path fill="#000000" d="M 179.601562 204.324219 L 160.894531 204.324219 C 159.390625 204.324219 158.164062 203.097656 158.164062 201.597656 L 158.164062 182.914062 C 158.164062 181.410156 159.390625 180.183594 160.894531 180.183594 L 179.601562 180.183594 C 181.109375 180.183594 182.335938 181.410156 182.335938 182.914062 L 182.335938 201.597656 C 182.335938 203.097656 181.109375 204.324219 179.601562 204.324219 Z M 179.601562 204.324219 " fill-opacity="1" fill-rule="nonzero"/><path fill="#000000" d="M 179.601562 242.636719 L 160.894531 242.636719 C 159.390625 242.636719 158.164062 241.410156 158.164062 239.90625 L 158.164062 221.226562 C 158.164062 219.722656 159.390625 218.496094 160.894531 218.496094 L 179.601562 218.496094 C 181.109375 218.496094 182.335938 219.722656 182.335938 221.226562 L 182.335938 239.90625 C 182.335938 241.4375 181.109375 242.636719 179.601562 242.636719 Z M 179.601562 242.636719 " fill-opacity="1" fill-rule="nonzero"/><path fill="#000000" d="M 179.601562 280.972656 L 160.894531 280.972656 C 159.390625 280.972656 158.164062 279.75 158.164062 278.246094 L 158.164062 259.5625 C 158.164062 258.058594 159.390625 256.835938 160.894531 256.835938 L 179.601562 256.835938 C 181.109375 256.835938 182.335938 258.058594 182.335938 259.5625 L 182.335938 278.269531 C 182.335938 279.75 181.109375 280.972656 179.601562 280.972656 Z M 179.601562 280.972656 " fill-opacity="1" fill-rule="nonzero"/><path fill="#000000" d="M 218 204.324219 L 199.292969 204.324219 C 197.78125 204.324219 196.554688 203.097656 196.554688 201.597656 L 196.554688 182.914062 C 196.554688 181.410156 197.78125 180.183594 199.292969 180.183594 L 218 180.183594 C 219.507812 180.183594 220.734375 181.410156 220.734375 182.914062 L 220.734375 201.597656 C 220.707031 203.097656 219.507812 204.324219 218 204.324219 Z M 218 204.324219 " fill-opacity="1" fill-rule="nonzero"/><path fill="#000000" d="M 218 242.636719 L 199.292969 242.636719 C 197.78125 242.636719 196.554688 241.410156 196.554688 239.90625 L 196.554688 221.226562 C 196.554688 219.722656 197.78125 218.496094 199.292969 218.496094 L 218 218.496094 C 219.507812 218.496094 220.734375 219.722656 220.734375 221.226562 L 220.734375 239.90625 C 220.707031 241.4375 219.507812 242.636719 218 242.636719 Z M 218 242.636719 " fill-opacity="1" fill-rule="nonzero"/><path fill="#000000" d="M 218 280.972656 L 199.292969 280.972656 C 197.78125 280.972656 196.554688 279.75 196.554688 278.246094 L 196.554688 259.5625 C 196.554688 258.058594 197.78125 256.835938 199.292969 256.835938 L 218 256.835938 C 219.507812 256.835938 220.734375 258.058594 220.734375 259.5625 L 220.734375 278.269531 C 220.707031 279.75 219.507812 280.972656 218 280.972656 Z M 218 280.972656 " fill-opacity="1" fill-rule="nonzero"/><path fill="#000000" d="M 256.402344 204.324219 L 237.683594 204.324219 C 236.179688 204.324219 234.953125 203.097656 234.953125 201.597656 L 234.953125 182.914062 C 234.953125 181.410156 236.179688 180.183594 237.683594 180.183594 L 256.402344 180.183594 C 257.90625 180.183594 259.132812 181.410156 259.132812 182.914062 L 259.132812 201.597656 C 259.105469 203.097656 257.878906 204.324219 256.402344 204.324219 Z M 256.402344 204.324219 " fill-opacity="1" fill-rule="nonzero"/><path fill="#000000" d="M 256.402344 242.636719 L 237.683594 242.636719 C 236.179688 242.636719 234.953125 241.410156 234.953125 239.90625 L 234.953125 221.226562 C 234.953125 219.722656 236.179688 218.496094 237.683594 218.496094 L 256.402344 218.496094 C 257.90625 218.496094 259.132812 219.722656 259.132812 221.226562 L 259.132812 239.90625 C 259.105469 241.4375 257.878906 242.636719 256.402344 242.636719 Z M 256.402344 242.636719 " fill-opacity="1" fill-rule="nonzero"/></svg>