<svg xmlns="http://www.w3.org/2000/svg" xmlns:xlink="http://www.w3.org/1999/xlink" width="500" zoomAndPan="magnify" viewBox="0 0 375 374.999991" height="500" preserveAspectRatio="xMidYMid meet" version="1.0"><defs><clipPath id="f312840ab8"><path d="M 73 64.78125 L 285.199219 64.78125 L 285.199219 283.519531 L 73 283.519531 Z M 73 64.78125 " clip-rule="nonzero"/></clipPath></defs><path fill="#000000" d="M 261.445312 203.882812 C 261.445312 203.421875 261.261719 202.984375 260.933594 202.65625 L 154.136719 96.183594 C 153.460938 95.507812 152.355469 95.507812 151.675781 96.183594 C 149.921875 97.941406 147.589844 98.90625 145.09375 98.90625 C 142.605469 98.90625 140.265625 97.941406 138.507812 96.183594 C 137.832031 95.507812 136.734375 95.507812 136.058594 96.183594 L 95.683594 136.433594 C 95.351562 136.753906 95.171875 137.199219 95.171875 137.660156 C 95.171875 138.121094 95.351562 138.554688 95.683594 138.882812 C 98.902344 142.097656 99.328125 147.121094 96.675781 150.824219 C 96.1875 151.511719 96.265625 152.457031 96.867188 153.058594 L 184.945312 240.878906 L 203.886719 259.753906 C 204.488281 260.355469 205.433594 260.433594 206.121094 259.945312 C 209.84375 257.3125 214.878906 257.738281 218.105469 260.9375 C 218.4375 261.273438 218.890625 261.441406 219.332031 261.441406 C 219.777344 261.441406 220.21875 261.265625 220.558594 260.9375 L 260.933594 220.695312 C 261.253906 220.363281 261.4375 219.921875 261.4375 219.460938 C 261.4375 219 261.253906 218.558594 260.933594 218.234375 C 257.304688 214.621094 257.304688 208.730469 260.933594 205.113281 C 261.261719 204.785156 261.445312 204.339844 261.445312 203.882812 Z M 208.582031 181.140625 C 208.582031 188.5625 205.6875 195.539062 200.425781 200.777344 C 200.425781 200.789062 200.425781 200.789062 200.425781 200.789062 C 195.171875 206.035156 188.1875 208.929688 180.742188 208.929688 C 173.308594 208.929688 166.316406 206.035156 161.054688 200.789062 C 150.207031 189.960938 150.207031 172.328125 161.054688 161.484375 C 166.488281 156.070312 173.621094 153.359375 180.742188 153.359375 C 187.875 153.359375 195.007812 156.070312 200.425781 161.484375 C 205.6875 166.734375 208.582031 173.71875 208.582031 181.140625 Z M 208.582031 181.140625 " fill-opacity="1" fill-rule="nonzero"/><g clip-path="url(#f312840ab8)"><path fill="#000000" d="M 284.832031 96.453125 C 284.605469 96.054688 284.222656 95.757812 283.78125 95.636719 L 205.453125 74.140625 L 203.113281 66.207031 C 202.84375 65.285156 201.886719 64.753906 200.957031 65.03125 L 152.695312 79.152344 L 146.328125 72.800781 C 145.648438 72.125 144.554688 72.125 143.875 72.800781 L 131.230469 85.425781 L 110.6875 91.429688 C 110.242188 91.554688 109.878906 91.855469 109.652344 92.257812 C 109.433594 92.664062 109.382812 93.132812 109.511719 93.578125 L 112.574219 104.003906 L 73.539062 142.933594 C 73.210938 143.265625 73.027344 143.699219 73.027344 144.160156 C 73.027344 144.628906 73.210938 145.0625 73.539062 145.394531 L 145.996094 217.628906 L 154.730469 247.320312 C 154.730469 247.328125 154.730469 247.328125 154.738281 247.328125 L 161.496094 270.257812 C 161.722656 271.015625 162.410156 271.503906 163.167969 271.503906 C 163.324219 271.503906 163.488281 271.484375 163.652344 271.433594 L 191.71875 263.210938 L 211.585938 283.015625 C 211.921875 283.355469 212.367188 283.527344 212.8125 283.527344 C 213.261719 283.527344 213.707031 283.355469 214.046875 283.015625 L 284.378906 212.902344 C 284.703125 212.578125 284.886719 212.136719 284.886719 211.675781 C 284.886719 211.214844 284.703125 210.773438 284.378906 210.449219 L 260.472656 186.605469 L 285 97.773438 C 285.121094 97.324219 285.058594 96.855469 284.832031 96.453125 Z M 200.269531 68.847656 L 224.300781 150.546875 L 214.027344 140.292969 L 198.964844 89.136719 C 198.695312 88.214844 197.730469 87.695312 196.808594 87.957031 C 194.574219 88.609375 192.222656 88.355469 190.179688 87.242188 C 188.136719 86.132812 186.648438 84.296875 185.996094 82.074219 C 185.875 81.636719 185.570312 81.265625 185.160156 81.039062 C 184.761719 80.820312 184.285156 80.769531 183.839844 80.898438 L 161.113281 87.554688 L 155.496094 81.953125 Z M 113.339844 94.273438 L 126.082031 90.546875 L 115.375 101.214844 Z M 164.339844 267.609375 L 158.070312 246.355469 C 158.070312 246.347656 158.070312 246.347656 158.070312 246.347656 L 151.121094 222.738281 L 188.910156 260.414062 Z M 212.8125 279.332031 L 77.226562 144.160156 L 133.316406 88.234375 C 133.335938 88.214844 133.351562 88.214844 133.371094 88.199219 L 145.101562 76.484375 L 159.375 90.726562 C 159.390625 90.746094 159.417969 90.753906 159.433594 90.769531 L 280.691406 211.675781 Z M 257.992188 182.539062 L 257.644531 183.792969 L 252.261719 178.421875 L 269.917969 114.511719 C 270.039062 114.066406 269.976562 113.589844 269.75 113.191406 C 269.515625 112.789062 269.144531 112.496094 268.699219 112.371094 C 266.550781 111.78125 264.757812 110.390625 263.65625 108.453125 C 262.550781 106.523438 262.261719 104.273438 262.855469 102.144531 C 262.976562 101.695312 262.925781 101.222656 262.691406 100.824219 C 262.464844 100.425781 262.089844 100.128906 261.644531 100.007812 L 211.382812 86.199219 C 210.515625 85.964844 209.628906 86.445312 209.3125 87.269531 L 206.601562 78.050781 L 281.1875 98.523438 Z M 257.992188 182.539062 " fill-opacity="1" fill-rule="nonzero"/></g><path fill="#000000" d="M 192.058594 167.402344 L 189.007812 170.515625 C 187.789062 169.75 186.386719 169.332031 184.917969 169.332031 C 182.902344 169.332031 180.933594 170.140625 179.527344 171.554688 C 178.097656 172.980469 177.273438 174.953125 177.273438 176.960938 C 177.273438 178.976562 178.097656 180.949219 179.527344 182.367188 C 180.300781 183.148438 180.753906 184.21875 180.753906 185.304688 C 180.753906 186.40625 180.308594 187.457031 179.515625 188.265625 C 177.960938 189.839844 175.160156 189.839844 173.613281 188.265625 C 172.820312 187.46875 172.394531 186.414062 172.394531 185.304688 C 172.394531 184.207031 172.828125 183.140625 173.601562 182.375 C 174.28125 181.695312 174.28125 180.59375 173.601562 179.914062 C 172.925781 179.238281 171.828125 179.238281 171.140625 179.914062 C 169.734375 181.332031 168.914062 183.296875 168.914062 185.304688 C 168.914062 186.746094 169.332031 188.128906 170.082031 189.328125 L 166.96875 192.445312 C 166.289062 193.125 166.296875 194.21875 166.976562 194.894531 C 167.316406 195.234375 167.757812 195.398438 168.203125 195.398438 C 168.644531 195.398438 169.097656 195.226562 169.4375 194.886719 L 172.523438 191.792969 C 173.726562 192.542969 175.109375 192.957031 176.558594 192.957031 C 178.628906 192.957031 180.5625 192.160156 181.996094 190.699219 C 183.429688 189.238281 184.230469 187.328125 184.230469 185.304688 C 184.230469 183.304688 183.40625 181.339844 181.980469 179.914062 C 181.203125 179.140625 180.753906 178.066406 180.753906 176.960938 C 180.753906 175.867188 181.203125 174.789062 181.988281 174.007812 C 183.527344 172.460938 186.273438 172.433594 187.917969 174.050781 C 189.511719 175.675781 189.492188 178.308594 187.882812 179.914062 C 187.207031 180.59375 187.207031 181.695312 187.882812 182.375 C 188.5625 183.050781 189.660156 183.050781 190.335938 182.375 C 192.859375 179.855469 193.234375 175.988281 191.433594 173 L 194.546875 169.835938 C 195.214844 169.148438 195.207031 168.046875 194.511719 167.378906 C 193.832031 166.707031 192.726562 166.714844 192.058594 167.402344 Z M 192.058594 167.402344 " fill-opacity="1" fill-rule="nonzero"/></svg>