<svg xmlns="http://www.w3.org/2000/svg" xmlns:xlink="http://www.w3.org/1999/xlink" width="500" zoomAndPan="magnify" viewBox="0 0 375 374.999991" height="500" preserveAspectRatio="xMidYMid meet" version="1.0"><defs><clipPath id="fd992c5093"><path d="M 0.203125 10.019531 L 347.308594 10.019531 L 347.308594 367.820312 L 0.203125 367.820312 Z M 0.203125 10.019531 " clip-rule="nonzero"/></clipPath></defs><path fill="#ffffff" d="M 308.453125 237.554688 C 308.453125 236.800781 308.152344 236.082031 307.613281 235.546875 L 132.921875 61.382812 C 131.816406 60.277344 130.007812 60.277344 128.894531 61.382812 C 126.027344 64.257812 122.210938 65.835938 118.128906 65.835938 C 114.058594 65.835938 110.230469 64.257812 107.355469 61.382812 C 106.25 60.277344 104.457031 60.277344 103.351562 61.382812 L 37.308594 127.222656 C 36.765625 127.746094 36.46875 128.476562 36.46875 129.230469 C 36.46875 129.984375 36.765625 130.691406 37.308594 131.230469 C 42.570312 136.488281 43.269531 144.707031 38.929688 150.761719 C 38.132812 151.886719 38.257812 153.433594 39.242188 154.417969 L 183.316406 298.070312 L 214.300781 328.945312 C 215.285156 329.929688 216.832031 330.054688 217.953125 329.257812 C 224.042969 324.949219 232.28125 325.648438 237.558594 330.878906 C 238.101562 331.429688 238.84375 331.703125 239.566406 331.703125 C 240.292969 331.703125 241.015625 331.417969 241.570312 330.878906 L 307.613281 265.054688 C 308.136719 264.511719 308.4375 263.789062 308.4375 263.035156 C 308.4375 262.28125 308.136719 261.558594 307.613281 261.027344 C 301.679688 255.117188 301.679688 245.484375 307.613281 239.566406 C 308.152344 239.027344 308.453125 238.300781 308.453125 237.554688 Z M 221.980469 200.351562 C 221.980469 212.492188 217.246094 223.90625 208.640625 232.472656 C 208.640625 232.492188 208.640625 232.492188 208.640625 232.492188 C 200.042969 241.074219 188.621094 245.808594 176.441406 245.808594 C 164.28125 245.808594 152.84375 241.074219 144.238281 232.492188 C 126.492188 214.78125 126.492188 185.9375 144.238281 168.199219 C 153.125 159.34375 164.792969 154.910156 176.441406 154.910156 C 188.109375 154.910156 199.777344 159.34375 208.640625 168.199219 C 217.246094 176.789062 221.980469 188.210938 221.980469 200.351562 Z M 221.980469 200.351562 " fill-opacity="1" fill-rule="nonzero"/><g clip-path="url(#fd992c5093)"><path fill="#ffffff" d="M 346.707031 61.824219 C 346.335938 61.171875 345.710938 60.6875 344.988281 60.488281 L 216.863281 25.328125 L 213.035156 12.351562 C 212.59375 10.84375 211.027344 9.972656 209.507812 10.425781 L 130.5625 33.527344 L 120.148438 23.136719 C 119.035156 22.03125 117.246094 22.03125 116.136719 23.136719 L 95.453125 43.789062 L 61.847656 53.609375 C 61.121094 53.8125 60.527344 54.304688 60.15625 54.960938 C 59.796875 55.628906 59.714844 56.394531 59.925781 57.121094 L 64.9375 74.175781 L 1.085938 137.855469 C 0.546875 138.398438 0.246094 139.109375 0.246094 139.863281 C 0.246094 140.628906 0.546875 141.339844 1.085938 141.882812 L 119.605469 260.039062 L 133.894531 308.605469 C 133.894531 308.617188 133.894531 308.617188 133.90625 308.617188 L 144.960938 346.125 C 145.332031 347.367188 146.453125 348.164062 147.695312 348.164062 C 147.949219 348.164062 148.21875 348.132812 148.488281 348.050781 L 194.394531 334.597656 L 226.894531 366.996094 C 227.445312 367.550781 228.171875 367.832031 228.902344 367.832031 C 229.636719 367.832031 230.363281 367.550781 230.917969 366.996094 L 345.964844 252.308594 C 346.496094 251.777344 346.796875 251.054688 346.796875 250.300781 C 346.796875 249.546875 346.496094 248.824219 345.964844 248.292969 L 306.859375 209.292969 L 346.980469 63.984375 C 347.179688 63.25 347.078125 62.484375 346.707031 61.824219 Z M 208.382812 16.667969 L 247.691406 150.308594 L 230.886719 133.535156 L 206.25 49.855469 C 205.808594 48.347656 204.230469 47.5 202.722656 47.925781 C 199.066406 48.996094 195.21875 48.578125 191.878906 46.757812 C 188.535156 44.945312 186.101562 41.941406 185.035156 38.304688 C 184.835938 37.589844 184.339844 36.980469 183.667969 36.613281 C 183.015625 36.253906 182.238281 36.171875 181.507812 36.382812 L 144.332031 47.269531 L 135.144531 38.105469 Z M 66.1875 58.257812 L 87.03125 52.164062 L 69.515625 69.613281 Z M 149.613281 341.792969 L 139.355469 307.027344 C 139.355469 307.015625 139.355469 307.015625 139.355469 307.015625 L 127.988281 268.394531 L 189.800781 330.023438 Z M 228.902344 360.96875 L 7.117188 139.863281 L 98.863281 48.382812 C 98.898438 48.347656 98.921875 48.347656 98.953125 48.324219 L 118.140625 29.160156 L 141.488281 52.457031 C 141.515625 52.488281 141.558594 52.503906 141.585938 52.527344 L 339.933594 250.300781 Z M 302.804688 202.640625 L 302.234375 204.691406 L 293.429688 195.90625 L 322.3125 91.363281 C 322.507812 90.636719 322.40625 89.855469 322.035156 89.203125 C 321.652344 88.546875 321.046875 88.066406 320.316406 87.863281 C 316.804688 86.898438 313.871094 84.625 312.066406 81.453125 C 310.261719 78.296875 309.785156 74.617188 310.757812 71.136719 C 310.957031 70.398438 310.875 69.625 310.488281 68.976562 C 310.121094 68.324219 309.507812 67.835938 308.777344 67.640625 L 226.5625 45.050781 C 225.144531 44.667969 223.691406 45.453125 223.175781 46.804688 L 218.742188 31.722656 L 340.746094 65.210938 Z M 302.804688 202.640625 " fill-opacity="1" fill-rule="nonzero"/></g><path fill="#ffffff" d="M 194.953125 177.878906 L 189.960938 182.972656 C 187.96875 181.71875 185.675781 181.035156 183.273438 181.035156 C 179.976562 181.035156 176.753906 182.359375 174.453125 184.671875 C 172.117188 187.003906 170.765625 190.230469 170.765625 193.515625 C 170.765625 196.8125 172.117188 200.039062 174.453125 202.359375 C 175.71875 203.636719 176.460938 205.386719 176.460938 207.164062 C 176.460938 208.964844 175.730469 210.683594 174.433594 212.007812 C 171.890625 214.582031 167.3125 214.582031 164.78125 212.007812 C 163.484375 210.703125 162.785156 208.980469 162.785156 207.164062 C 162.785156 205.367188 163.496094 203.625 164.761719 202.371094 C 165.871094 201.261719 165.871094 199.457031 164.761719 198.347656 C 163.65625 197.242188 161.859375 197.242188 160.734375 198.347656 C 158.433594 200.664062 157.09375 203.878906 157.09375 207.164062 C 157.09375 209.523438 157.777344 211.785156 159.003906 213.746094 L 153.910156 218.84375 C 152.800781 219.957031 152.8125 221.746094 153.925781 222.851562 C 154.480469 223.40625 155.203125 223.675781 155.929688 223.675781 C 156.652344 223.675781 157.394531 223.394531 157.949219 222.835938 L 162.996094 217.777344 C 164.964844 219.003906 167.226562 219.679688 169.597656 219.679688 C 172.984375 219.679688 176.148438 218.378906 178.492188 215.988281 C 180.835938 213.597656 182.148438 210.472656 182.148438 207.164062 C 182.148438 203.894531 180.800781 200.679688 178.46875 198.347656 C 177.195312 197.082031 176.460938 195.324219 176.460938 193.515625 C 176.460938 191.726562 177.195312 189.964844 178.480469 188.683594 C 180.996094 186.15625 185.488281 186.109375 188.179688 188.753906 C 190.785156 191.414062 190.753906 195.71875 188.121094 198.347656 C 187.015625 199.457031 187.015625 201.261719 188.121094 202.371094 C 189.234375 203.476562 191.027344 203.476562 192.132812 202.371094 C 196.261719 198.25 196.875 191.925781 193.929688 187.035156 L 199.023438 181.859375 C 200.113281 180.738281 200.101562 178.933594 198.964844 177.84375 C 197.851562 176.742188 196.046875 176.753906 194.953125 177.878906 Z M 194.953125 177.878906 " fill-opacity="1" fill-rule="nonzero"/></svg>