<svg xmlns="http://www.w3.org/2000/svg" xmlns:xlink="http://www.w3.org/1999/xlink" width="500" zoomAndPan="magnify" viewBox="0 0 375 374.999991" height="500" preserveAspectRatio="xMidYMid meet" version="1.0"><defs><clipPath id="092621a268"><path d="M 118.445312 86.871094 L 256.445312 86.871094 L 256.445312 285 L 118.445312 285 Z M 118.445312 86.871094 " clip-rule="nonzero"/></clipPath></defs><g clip-path="url(#092621a268)"><path fill="#040404" d="M 187.445312 86.9375 C 225.554688 86.9375 256.445312 117.816406 256.445312 155.90625 C 256.445312 169.160156 252.703125 181.539062 246.222656 192.046875 C 238.445312 204.921875 230.667969 217.800781 222.890625 230.675781 C 213.421875 246.0625 205.757812 258.515625 196.289062 273.90625 C 187.9375 287.472656 187.375 287.804688 178.980469 274.167969 C 169.558594 258.855469 161.636719 245.988281 152.214844 230.675781 C 144.457031 217.945312 136.699219 205.214844 128.941406 192.484375 C 122.292969 181.878906 118.445312 169.34375 118.445312 155.90625 C 118.445312 117.816406 149.335938 86.9375 187.445312 86.9375 Z M 187.445312 121.515625 C 204.53125 121.515625 218.378906 135.359375 218.378906 152.433594 C 218.378906 169.511719 204.53125 183.355469 187.445312 183.355469 C 170.359375 183.355469 156.511719 169.511719 156.511719 152.433594 C 156.511719 135.359375 170.359375 121.515625 187.445312 121.515625 Z M 187.445312 121.515625 " fill-opacity="1" fill-rule="evenodd"/></g></svg>