<svg xmlns="http://www.w3.org/2000/svg" xmlns:xlink="http://www.w3.org/1999/xlink" width="500" zoomAndPan="magnify" viewBox="0 0 375 374.999991" height="500" preserveAspectRatio="xMidYMid meet" version="1.0"><defs><clipPath id="e4101ca6b7"><path d="M 6.679688 6.679688 L 368.179688 6.679688 L 368.179688 368.179688 L 6.679688 368.179688 Z M 6.679688 6.679688 " clip-rule="nonzero"/></clipPath></defs><g clip-path="url(#e4101ca6b7)"><path fill="#ffffff" d="M 44.339844 21.738281 C 31.882812 21.738281 21.738281 31.882812 21.738281 44.339844 L 21.738281 330.617188 C 21.738281 343.074219 31.882812 353.25 44.339844 353.25 L 330.617188 353.25 C 343.074219 353.25 353.25 343.074219 353.25 330.617188 L 353.25 44.339844 C 353.25 31.882812 343.074219 21.738281 330.617188 21.738281 Z M 330.617188 368.308594 L 44.339844 368.308594 C 23.597656 368.308594 6.679688 351.421875 6.679688 330.617188 L 6.679688 44.339844 C 6.679688 23.597656 23.597656 6.679688 44.339844 6.679688 L 330.617188 6.679688 C 351.421875 6.679688 368.308594 23.597656 368.308594 44.339844 L 368.308594 330.617188 C 368.308594 351.421875 351.421875 368.308594 330.617188 368.308594 " fill-opacity="1" fill-rule="nonzero"/></g><path fill="#ffffff" d="M 149.835938 89.542969 L 308.046875 89.542969 L 308.046875 104.601562 L 149.835938 104.601562 L 149.835938 89.542969 " fill-opacity="1" fill-rule="nonzero"/><path fill="#ffffff" d="M 66.941406 89.542969 L 112.144531 89.542969 L 112.144531 104.601562 L 66.941406 104.601562 L 66.941406 89.542969 " fill-opacity="1" fill-rule="nonzero"/><path fill="#ffffff" d="M 66.941406 179.949219 L 172.4375 179.949219 L 172.4375 195.007812 L 66.941406 195.007812 L 66.941406 179.949219 " fill-opacity="1" fill-rule="nonzero"/><path fill="#ffffff" d="M 210.097656 179.949219 L 308.046875 179.949219 L 308.046875 195.007812 L 210.097656 195.007812 L 210.097656 179.949219 " fill-opacity="1" fill-rule="nonzero"/><path fill="#ffffff" d="M 127.234375 82.03125 C 118.917969 82.03125 112.144531 88.773438 112.144531 97.085938 C 112.144531 105.402344 118.917969 112.144531 127.234375 112.144531 C 135.515625 112.144531 142.289062 105.402344 142.289062 97.085938 C 142.289062 88.773438 135.515625 82.03125 127.234375 82.03125 Z M 127.234375 127.234375 C 110.601562 127.234375 97.085938 113.71875 97.085938 97.085938 C 97.085938 80.457031 110.601562 66.941406 127.234375 66.941406 C 143.863281 66.941406 157.378906 80.457031 157.378906 97.085938 C 157.347656 113.71875 143.832031 127.234375 127.234375 127.234375 " fill-opacity="1" fill-rule="nonzero"/><path fill="#ffffff" d="M 66.941406 270.355469 L 232.699219 270.355469 L 232.699219 285.414062 L 66.941406 285.414062 L 66.941406 270.355469 " fill-opacity="1" fill-rule="nonzero"/><path fill="#ffffff" d="M 270.355469 270.355469 L 308.015625 270.355469 L 308.015625 285.414062 L 270.355469 285.414062 L 270.355469 270.355469 " fill-opacity="1" fill-rule="nonzero"/><path fill="#ffffff" d="M 247.753906 262.8125 C 239.441406 262.8125 232.699219 269.585938 232.699219 277.902344 C 232.699219 286.214844 239.441406 292.957031 247.753906 292.957031 C 256.070312 292.957031 262.8125 286.214844 262.8125 277.902344 C 262.8125 269.585938 256.070312 262.8125 247.753906 262.8125 Z M 247.753906 308.046875 C 231.125 308.046875 217.609375 294.5 217.609375 277.902344 C 217.609375 261.269531 231.125 247.753906 247.753906 247.753906 C 264.386719 247.753906 277.902344 261.269531 277.902344 277.902344 C 277.902344 294.5 264.386719 308.046875 247.753906 308.046875 " fill-opacity="1" fill-rule="nonzero"/><path fill="#ffffff" d="M 187.496094 172.4375 C 179.179688 172.4375 172.4375 179.179688 172.4375 187.496094 C 172.4375 195.808594 179.179688 202.550781 187.496094 202.550781 C 195.808594 202.550781 202.582031 195.808594 202.582031 187.496094 C 202.582031 179.179688 195.808594 172.4375 187.496094 172.4375 Z M 187.496094 217.609375 C 170.863281 217.609375 157.347656 204.125 157.347656 187.496094 C 157.347656 170.863281 170.863281 157.347656 187.496094 157.347656 C 204.125 157.347656 217.640625 170.863281 217.640625 187.496094 C 217.640625 204.125 204.125 217.609375 187.496094 217.609375 " fill-opacity="1" fill-rule="nonzero"/></svg>