<svg xmlns="http://www.w3.org/2000/svg" xmlns:xlink="http://www.w3.org/1999/xlink" width="500" zoomAndPan="magnify" viewBox="0 0 375 374.999991" height="500" preserveAspectRatio="xMidYMid meet" version="1.0"><defs><clipPath id="9f92d77682"><path d="M 17.832031 27 L 356.832031 27 L 356.832031 366.972656 L 17.832031 366.972656 Z M 17.832031 27 " clip-rule="nonzero"/></clipPath></defs><path fill="#ffffff" d="M 198.488281 91.058594 L 190.203125 91.058594 L 190.203125 63.832031 L 198.488281 63.832031 L 198.488281 91.058594 " fill-opacity="1" fill-rule="nonzero"/><path fill="#ffffff" d="M 198.488281 315.964844 L 190.203125 315.964844 L 190.203125 288.738281 L 198.488281 288.738281 L 198.488281 315.964844 " fill-opacity="1" fill-rule="nonzero"/><path fill="#ffffff" d="M 293.1875 194.042969 L 293.1875 185.753906 L 320.414062 185.753906 L 320.414062 194.042969 L 293.1875 194.042969 " fill-opacity="1" fill-rule="nonzero"/><path fill="#ffffff" d="M 68.285156 194.042969 L 68.285156 185.753906 L 95.511719 185.753906 L 95.511719 194.042969 L 68.285156 194.042969 " fill-opacity="1" fill-rule="nonzero"/><path fill="#ffffff" d="M 293.253906 242.84375 L 296.144531 236.921875 L 308.667969 243.039062 L 305.769531 248.960938 L 293.253906 242.84375 " fill-opacity="1" fill-rule="nonzero"/><path fill="#ffffff" d="M 79.246094 138.257812 L 81.960938 132.691406 L 94.191406 138.671875 L 91.476562 144.230469 L 79.246094 138.257812 " fill-opacity="1" fill-rule="nonzero"/><path fill="#ffffff" d="M 247.410156 289.273438 L 253.109375 285.964844 L 260.101562 298.007812 L 254.402344 301.324219 L 247.410156 289.273438 " fill-opacity="1" fill-rule="nonzero"/><path fill="#ffffff" d="M 127.800781 83.28125 L 133.15625 80.171875 L 139.988281 91.945312 L 134.632812 95.050781 L 127.800781 83.28125 " fill-opacity="1" fill-rule="nonzero"/><path fill="#ffffff" d="M 140.671875 289.367188 L 146.5625 292.332031 L 140.3125 304.78125 L 134.421875 301.820312 L 140.671875 289.367188 " fill-opacity="1" fill-rule="nonzero"/><path fill="#ffffff" d="M 247.597656 76.515625 L 253.125 79.292969 L 247.011719 91.457031 L 241.480469 88.675781 L 247.597656 76.515625 " fill-opacity="1" fill-rule="nonzero"/><path fill="#ffffff" d="M 93.199219 239.984375 L 96.273438 245.820312 L 83.945312 252.308594 L 80.871094 246.472656 L 93.199219 239.984375 " fill-opacity="1" fill-rule="nonzero"/><path fill="#ffffff" d="M 303.957031 128.988281 L 306.835938 134.460938 L 294.792969 140.800781 L 291.910156 135.332031 L 303.957031 128.988281 " fill-opacity="1" fill-rule="nonzero"/><path fill="#ffffff" d="M 211.617188 194.042969 C 211.617188 203.582031 203.886719 211.3125 194.347656 211.3125 C 184.808594 211.3125 177.070312 203.582031 177.070312 194.042969 C 177.070312 184.5 184.808594 176.765625 194.347656 176.765625 C 203.886719 176.765625 211.617188 184.5 211.617188 194.042969 " fill-opacity="1" fill-rule="nonzero"/><path fill="#ffffff" d="M 195.234375 199.738281 C 192.160156 199.738281 189.683594 197 189.683594 193.625 C 189.683594 190.257812 192.160156 187.519531 195.234375 187.519531 L 285.464844 187.519531 C 288.53125 187.519531 291.015625 190.257812 291.015625 193.625 C 291.015625 197 288.53125 199.738281 285.464844 199.738281 L 195.234375 199.738281 " fill-opacity="1" fill-rule="nonzero"/><path fill="#ffffff" d="M 198.03125 191.492188 C 195.824219 193.621094 193.332031 194.609375 192.457031 193.707031 C 191.582031 192.800781 192.660156 190.34375 194.863281 188.210938 L 259.773438 125.539062 C 261.980469 123.402344 264.480469 122.414062 265.347656 123.3125 C 266.222656 124.214844 265.144531 126.675781 262.945312 128.804688 L 198.03125 191.492188 " fill-opacity="1" fill-rule="nonzero"/><path fill="#ffffff" d="M 198.59375 189.398438 C 200.300781 191.109375 199.753906 194.421875 197.371094 196.808594 C 194.988281 199.195312 191.664062 199.742188 189.960938 198.039062 L 139.707031 147.777344 C 137.996094 146.074219 138.546875 142.757812 140.929688 140.371094 C 143.316406 137.984375 146.628906 137.433594 148.339844 139.140625 L 198.59375 189.398438 " fill-opacity="1" fill-rule="nonzero"/><g clip-path="url(#9f92d77682)"><path fill="#ffffff" d="M 207.773438 340.648438 C 118.734375 340.980469 45.351562 288.335938 44.210938 181.816406 C 43.367188 102.625 120.0625 33.121094 197.988281 28.070312 C 194.519531 27.859375 191.023438 27.71875 187.5 27.71875 C 93.800781 27.71875 17.847656 103.667969 17.847656 197.367188 C 17.847656 291.058594 93.800781 367.011719 187.5 367.011719 C 281.191406 367.011719 357.148438 291.058594 357.148438 197.367188 C 357.148438 193.839844 357.007812 190.351562 356.796875 186.871094 C 351.746094 264.796875 286.976562 340.363281 207.773438 340.648438 " fill-opacity="1" fill-rule="nonzero"/></g><path fill="#ffffff" d="M 169.558594 8.097656 L 205.070312 30.089844 L 173.066406 52.066406 L 181.121094 29.09375 L 169.558594 8.097656 " fill-opacity="1" fill-rule="nonzero"/></svg>