<svg xmlns="http://www.w3.org/2000/svg" xmlns:xlink="http://www.w3.org/1999/xlink" width="500" zoomAndPan="magnify" viewBox="0 0 375 374.999991" height="500" preserveAspectRatio="xMidYMid meet" version="1.0"><path fill="#000000" d="M 182.523438 190.679688 C 182.523438 190.617188 182.582031 190.617188 182.582031 190.5625 C 176.957031 185.332031 175.121094 179.453125 180.101562 172.746094 L 187.4375 162.878906 C 187.734375 162.464844 187.675781 161.933594 187.257812 161.640625 C 186.84375 161.34375 186.253906 161.410156 185.960938 161.8125 L 168.203125 184.449219 C 168.019531 184.679688 167.671875 184.746094 167.433594 184.5625 C 167.195312 184.386719 167.140625 184.039062 167.3125 183.800781 L 184.894531 160.167969 C 185.015625 159.992188 184.949219 159.753906 184.832031 159.644531 C 184.65625 159.523438 184.417969 159.523438 184.296875 159.699219 L 166.128906 182.917969 C 165.953125 183.15625 165.597656 183.210938 165.359375 183.035156 C 165.117188 182.863281 165.0625 182.503906 165.238281 182.273438 L 182.820312 158.644531 C 182.9375 158.46875 182.882812 158.230469 182.761719 158.109375 C 182.582031 157.992188 182.351562 157.992188 182.230469 158.175781 L 164.054688 181.335938 C 163.878906 181.566406 163.519531 181.628906 163.289062 181.445312 C 163.050781 181.273438 162.988281 180.921875 163.171875 180.683594 L 180.75 157.054688 C 180.863281 156.878906 180.808594 156.640625 180.6875 156.53125 C 180.511719 156.410156 180.273438 156.410156 180.15625 156.585938 L 161.984375 179.746094 C 161.8125 179.976562 161.453125 180.039062 161.214844 179.867188 C 160.976562 179.683594 160.921875 179.332031 161.09375 179.09375 L 178.675781 155.527344 C 178.796875 155.355469 178.738281 155.117188 178.621094 154.996094 C 178.4375 154.878906 178.207031 154.878906 178.089844 155.058594 L 160.148438 178.214844 C 159.972656 178.453125 159.617188 178.507812 159.378906 178.332031 C 159.148438 178.15625 159.082031 177.808594 159.265625 177.570312 L 176.785156 153.996094 C 176.902344 153.820312 176.839844 153.589844 176.71875 153.472656 C 176.546875 153.351562 176.308594 153.351562 176.1875 153.527344 L 158.082031 176.632812 C 157.898438 176.863281 157.550781 176.925781 157.3125 176.742188 C 157.070312 176.570312 157.015625 176.21875 157.191406 175.980469 L 174.707031 152.414062 C 174.828125 152.230469 174.773438 152 174.652344 151.882812 C 174.476562 151.761719 174.238281 151.761719 174.121094 151.945312 L 156.007812 175.042969 C 155.832031 175.28125 155.472656 175.335938 155.234375 175.164062 C 155.003906 174.988281 154.941406 174.628906 155.117188 174.398438 L 172.640625 150.878906 C 172.761719 150.707031 172.695312 150.476562 172.578125 150.355469 C 172.402344 150.238281 172.164062 150.238281 172.042969 150.410156 L 153.9375 173.453125 C 153.757812 173.691406 153.40625 173.746094 153.167969 173.574219 C 152.929688 173.398438 152.875 173.039062 153.046875 172.808594 L 170.566406 149.300781 C 170.683594 149.117188 170.683594 148.886719 170.511719 148.765625 C 170.335938 148.648438 170.097656 148.648438 169.976562 148.824219 L 151.917969 171.863281 C 151.746094 172.101562 151.394531 172.160156 151.15625 171.984375 C 150.917969 171.808594 150.863281 171.460938 151.035156 171.222656 L 168.5 147.710938 C 168.617188 147.535156 168.554688 147.296875 168.433594 147.179688 C 168.261719 147.058594 168.019531 147.058594 167.902344 147.242188 L 149.851562 170.285156 C 149.675781 170.515625 149.320312 170.578125 149.082031 170.394531 C 148.84375 170.21875 148.785156 169.871094 148.960938 169.632812 L 166.421875 146.175781 C 166.542969 146 166.488281 145.769531 166.367188 145.652344 C 166.183594 145.53125 165.953125 145.53125 165.835938 145.707031 L 147.777344 168.695312 C 147.601562 168.933594 147.242188 168.988281 147.011719 168.8125 C 146.773438 168.640625 146.710938 168.28125 146.894531 168.050781 L 164.355469 144.59375 C 164.476562 144.421875 164.410156 144.183594 164.292969 144.0625 C 164.117188 143.945312 163.878906 143.945312 163.757812 144.125 L 145.765625 167.105469 C 145.589844 167.34375 145.230469 167.398438 145 167.222656 C 144.761719 167.050781 144.699219 166.691406 144.882812 166.460938 L 162.34375 143.007812 C 162.457031 142.832031 162.398438 142.59375 162.28125 142.472656 C 162.105469 142.363281 161.867188 142.363281 161.746094 142.539062 L 143.753906 165.515625 C 143.578125 165.753906 143.21875 165.808594 142.980469 165.636719 C 142.75 165.460938 142.6875 165.109375 142.871094 164.871094 L 160.269531 141.480469 C 160.386719 141.296875 160.332031 141.066406 160.214844 140.949219 C 160.03125 140.828125 159.800781 140.828125 159.679688 141.003906 L 141.6875 163.933594 C 141.503906 164.164062 141.152344 164.230469 140.914062 164.046875 C 140.675781 163.871094 140.621094 163.523438 140.796875 163.285156 L 158.203125 139.890625 C 158.3125 139.71875 158.3125 139.476562 158.136719 139.359375 C 157.960938 139.25 157.722656 139.25 157.605469 139.421875 L 139.609375 162.347656 C 139.4375 162.585938 139.078125 162.640625 138.839844 162.464844 C 138.609375 162.289062 138.546875 161.933594 138.726562 161.703125 L 156.125 138.300781 C 156.246094 138.128906 156.246094 137.890625 156.070312 137.777344 C 155.886719 137.660156 155.648438 137.660156 155.539062 137.832031 L 137.597656 160.757812 C 137.425781 160.996094 137.066406 161.050781 136.828125 160.875 C 136.597656 160.703125 136.535156 160.34375 136.707031 160.113281 L 154.113281 136.777344 C 154.234375 136.601562 154.167969 136.363281 154.050781 136.246094 C 153.875 136.125 153.636719 136.125 153.519531 136.308594 L 135.585938 159.167969 C 135.414062 159.40625 135.054688 159.460938 134.816406 159.285156 C 134.578125 159.113281 134.523438 158.761719 134.695312 158.523438 L 152.039062 135.1875 C 152.15625 135.011719 152.15625 134.773438 151.984375 134.65625 C 151.808594 134.542969 151.570312 134.542969 151.449219 134.71875 L 133.511719 157.585938 C 133.335938 157.816406 132.980469 157.878906 132.75 157.707031 C 132.511719 157.523438 132.445312 157.171875 132.628906 156.933594 L 149.972656 133.597656 C 150.089844 133.425781 150.027344 133.195312 149.90625 133.074219 C 149.734375 132.957031 149.496094 132.957031 149.375 133.128906 L 131.445312 155.996094 C 131.269531 156.234375 130.910156 156.292969 130.671875 156.117188 C 130.433594 155.941406 130.378906 155.585938 130.554688 155.355469 L 147.894531 132.074219 C 148.015625 131.898438 147.960938 131.660156 147.839844 131.539062 C 147.664062 131.429688 147.425781 131.429688 147.308594 131.605469 L 129.433594 154.410156 C 129.257812 154.648438 128.898438 154.703125 128.660156 154.527344 C 128.421875 154.351562 128.367188 153.996094 128.542969 153.765625 L 145.882812 130.484375 C 146.003906 130.308594 145.949219 130.070312 145.828125 129.960938 C 145.644531 129.839844 145.414062 129.839844 145.296875 130.015625 L 127.597656 153.175781 C 127.421875 153.40625 127.0625 153.472656 126.824219 153.296875 C 126.59375 153.113281 126.53125 152.761719 126.707031 152.523438 L 143.992188 129.308594 C 144.109375 129.132812 144.109375 128.894531 143.9375 128.785156 C 143.753906 128.664062 143.515625 128.664062 143.402344 128.839844 L 125.527344 151.652344 C 125.34375 151.882812 124.996094 151.945312 124.757812 151.761719 C 124.519531 151.585938 124.464844 151.238281 124.636719 151 L 141.917969 127.78125 C 142.035156 127.609375 141.980469 127.371094 141.859375 127.25 C 141.6875 127.140625 141.449219 127.140625 141.328125 127.3125 L 123.453125 150.0625 C 123.277344 150.292969 122.921875 150.355469 122.683594 150.179688 C 122.453125 150 122.386719 149.648438 122.5625 149.410156 L 139.847656 126.195312 C 139.96875 126.019531 139.90625 125.78125 139.792969 125.667969 C 139.609375 125.550781 139.371094 125.550781 139.261719 125.726562 L 121.441406 148.472656 C 121.265625 148.710938 120.910156 148.765625 120.671875 148.59375 C 120.429688 148.417969 120.375 148.058594 120.550781 147.828125 L 137.773438 124.667969 C 137.894531 124.492188 137.835938 124.253906 137.71875 124.136719 C 137.542969 124.015625 137.304688 124.015625 137.183594 124.199219 L 119.367188 146.949219 C 119.191406 147.179688 118.832031 147.242188 118.601562 147.058594 C 118.363281 146.882812 118.300781 146.535156 118.484375 146.296875 L 135.707031 123.132812 C 135.824219 122.960938 135.761719 122.730469 135.644531 122.609375 C 135.46875 122.492188 135.230469 122.492188 135.109375 122.664062 L 117.296875 145.359375 C 117.125 145.597656 116.765625 145.652344 116.527344 145.476562 C 116.289062 145.300781 116.234375 144.945312 116.40625 144.714844 L 133.632812 121.554688 C 133.75 121.378906 133.695312 121.140625 133.574219 121.019531 C 133.402344 120.902344 133.160156 120.902344 133.042969 121.085938 L 115.285156 143.769531 C 115.105469 144.007812 114.753906 144.0625 114.515625 143.886719 C 114.277344 143.714844 114.222656 143.355469 114.394531 143.125 L 131.621094 120.019531 C 131.738281 119.84375 131.738281 119.613281 131.5625 119.496094 C 131.390625 119.375 131.148438 119.375 131.03125 119.550781 L 113.273438 142.242188 C 113.09375 142.472656 112.742188 142.539062 112.503906 142.363281 C 112.265625 142.179688 112.210938 141.832031 112.382812 141.59375 L 129.550781 118.496094 C 129.671875 118.320312 129.609375 118.082031 129.488281 117.960938 C 129.3125 117.851562 129.074219 117.851562 128.957031 118.023438 L 111.199219 140.65625 C 111.023438 140.894531 110.667969 140.949219 110.429688 140.773438 C 110.199219 140.597656 110.132812 140.242188 110.316406 140.011719 L 127.476562 116.90625 C 127.597656 116.730469 127.539062 116.492188 127.421875 116.378906 C 127.238281 116.261719 127.007812 116.261719 126.886719 116.4375 L 109.132812 139.066406 C 108.949219 139.304688 108.597656 139.359375 108.359375 139.183594 C 108.121094 139.007812 108.066406 138.660156 108.242188 138.421875 L 125.410156 115.378906 C 125.527344 115.203125 125.464844 114.964844 125.34375 114.847656 C 125.226562 114.734375 124.933594 114.734375 124.8125 114.910156 L 107.121094 137.539062 C 106.9375 137.777344 106.585938 137.832031 106.347656 137.660156 C 106.109375 137.484375 106.054688 137.125 106.230469 136.894531 L 123.398438 113.855469 C 123.507812 113.671875 123.453125 113.441406 123.332031 113.320312 C 123.160156 113.203125 122.921875 113.203125 122.800781 113.378906 L 105.101562 135.949219 C 104.925781 136.1875 104.566406 136.246094 104.335938 136.070312 C 104.097656 135.894531 104.035156 135.539062 104.21875 135.308594 L 121.320312 112.265625 C 121.441406 112.089844 121.386719 111.851562 121.265625 111.734375 C 121.082031 111.613281 120.851562 111.613281 120.734375 111.796875 L 103.207031 134.425781 C 103.035156 134.65625 102.675781 134.71875 102.445312 134.542969 C 102.207031 134.363281 102.144531 134.011719 102.324219 133.78125 L 119.429688 110.792969 C 119.550781 110.621094 119.484375 110.382812 119.367188 110.261719 C 119.253906 110.152344 118.953125 110.152344 118.832031 110.324219 L 101.140625 132.898438 C 100.957031 133.128906 100.609375 133.195312 100.371094 133.011719 C 100.132812 132.835938 100.074219 132.488281 100.25 132.246094 L 117.355469 109.269531 C 117.472656 109.085938 117.472656 108.855469 117.296875 108.738281 C 117.125 108.617188 116.886719 108.617188 116.765625 108.792969 L 99.128906 131.308594 C 98.945312 131.539062 98.597656 131.605469 98.359375 131.429688 C 98.121094 131.246094 98.0625 130.898438 98.238281 130.660156 L 115.34375 107.679688 C 115.460938 107.503906 115.40625 107.265625 115.285156 107.148438 C 115.105469 107.027344 114.875 107.027344 114.753906 107.210938 L 96.757812 130.132812 L 96.28125 129.777344 L 113.503906 106.855469 C 113.808594 106.503906 113.6875 105.972656 113.332031 105.679688 C 112.972656 105.382812 112.449219 105.449219 112.144531 105.796875 L 93.207031 127.371094 C 91.257812 129.960938 91.789062 133.597656 94.390625 135.480469 L 174.058594 196.320312 Z M 182.523438 190.679688 " fill-opacity="1" fill-rule="nonzero"/><path fill="#000000" d="M 259.113281 257.804688 L 204.71875 209.898438 L 201.878906 217.65625 L 257.460938 260.101562 C 258.167969 260.625 259.179688 260.394531 259.589844 259.566406 C 259.820312 258.980469 259.648438 258.21875 259.113281 257.804688 Z M 259.113281 257.804688 " fill-opacity="1" fill-rule="nonzero"/><path fill="#000000" d="M 139.730469 248.875 C 141.742188 250.398438 144.285156 251.160156 146.832031 248.222656 C 148.492188 246.285156 148.429688 244.8125 148.078125 243.875 C 148.667969 243.230469 149.265625 242.523438 149.796875 241.816406 C 151.210938 239.761719 152.15625 237.582031 152.636719 235.351562 C 153.289062 232.410156 154.050781 229.589844 155.058594 227.007812 C 161.746094 217.542969 172.457031 209.367188 182.351562 210.195312 C 183.058594 210.25 183.765625 210.3125 184.480469 210.3125 C 182.523438 203.964844 182.351562 199.140625 183.175781 195.027344 L 159.441406 210.78125 C 153.582031 214.660156 146.296875 215.542969 139.4375 213.722656 C 139.371094 213.722656 139.316406 213.660156 139.261719 213.660156 C 131.683594 211.785156 123.574219 214.898438 119.367188 221.421875 C 112.796875 231.648438 117.769531 245.226562 129.488281 248.753906 C 132.867188 249.875 136.414062 249.8125 139.730469 248.875 Z M 124.105469 226.417969 C 126.886719 220.59375 133.871094 218.070312 139.730469 220.832031 C 145.589844 223.597656 148.132812 230.535156 145.351562 236.351562 C 142.570312 242.167969 135.585938 244.703125 129.726562 241.9375 C 123.867188 239.171875 121.320312 232.234375 124.105469 226.417969 Z M 124.105469 226.417969 " fill-opacity="1" fill-rule="nonzero"/><path fill="#000000" d="M 282.378906 129.308594 L 216.261719 173.105469 L 205.371094 202.789062 C 207.445312 200.851562 209.457031 198.671875 211.761719 196.496094 C 219.460938 189.441406 227.09375 182.394531 234.789062 175.335938 C 250.828125 160.582031 266.867188 145.890625 282.847656 131.136719 C 283.023438 130.953125 283.261719 130.777344 283.445312 130.601562 C 284.210938 129.894531 283.261719 128.71875 282.378906 129.308594 Z M 282.378906 129.308594 " fill-opacity="1" fill-rule="nonzero"/><path fill="#000000" d="M 240.824219 94.625 C 240.707031 94.863281 240.585938 95.101562 240.46875 95.332031 C 229.875 114.257812 219.277344 133.25 208.628906 152.175781 C 203.53125 161.226562 198.445312 170.339844 193.417969 179.390625 C 187.910156 189.144531 181.515625 194.730469 187.027344 211.078125 C 190.160156 220.363281 184.710938 232.648438 177.078125 241.347656 C 174.773438 242.9375 172.164062 244.34375 169.445312 245.695312 C 167.371094 246.695312 165.476562 248.167969 163.824219 249.984375 C 158.550781 255.867188 157.78125 264.445312 161.8125 271.207031 C 163.824219 274.5625 166.660156 277.023438 169.859375 278.496094 C 173.707031 280.257812 176.839844 283.078125 178.96875 286.726562 C 180.75 289.785156 183.351562 292.726562 187.027344 293.726562 C 189.449219 294.371094 193.59375 289.253906 190.753906 287.257812 C 190.101562 286.789062 189.277344 286.203125 188.386719 285.550781 C 185.363281 283.375 185.363281 278.90625 188.386719 276.730469 C 189.277344 276.085938 190.160156 275.324219 190.929688 274.5 C 196.3125 268.921875 197.441406 260.332031 193.832031 253.457031 C 193.769531 253.394531 193.769531 253.339844 193.710938 253.285156 C 190.332031 247.109375 189.449219 239.878906 191.875 233.292969 L 242.425781 95.394531 C 242.78125 94.394531 241.359375 93.742188 240.824219 94.625 Z M 186.722656 254.691406 C 190.808594 259.6875 189.984375 267.039062 184.949219 271.089844 C 179.917969 275.148438 172.523438 274.324219 168.433594 269.324219 C 164.355469 264.335938 165.183594 256.984375 170.214844 252.925781 C 175.242188 248.875 182.644531 249.691406 186.722656 254.691406 Z M 196.082031 201.4375 C 194.953125 202.726562 192.996094 202.910156 191.699219 201.789062 C 190.398438 200.667969 190.222656 198.730469 191.34375 197.441406 C 192.464844 196.148438 194.421875 195.972656 195.722656 197.085938 C 196.964844 198.203125 197.148438 200.144531 196.082031 201.4375 Z M 196.082031 201.4375 " fill-opacity="1" fill-rule="nonzero"/></svg>