<svg xmlns="http://www.w3.org/2000/svg" xmlns:xlink="http://www.w3.org/1999/xlink" width="500" zoomAndPan="magnify" viewBox="0 0 375 374.999991" height="500" preserveAspectRatio="xMidYMid meet" version="1.0"><path fill="#ffffff" d="M 179.140625 192.839844 C 179.140625 192.734375 179.238281 192.734375 179.238281 192.640625 C 169.792969 183.859375 166.707031 173.984375 175.074219 162.71875 L 187.394531 146.148438 C 187.890625 145.453125 187.792969 144.5625 187.09375 144.070312 C 186.398438 143.570312 185.40625 143.679688 184.914062 144.355469 L 155.089844 182.375 C 154.78125 182.761719 154.199219 182.875 153.796875 182.566406 C 153.398438 182.269531 153.304688 181.6875 153.59375 181.285156 L 183.121094 141.59375 C 183.328125 141.300781 183.214844 140.898438 183.019531 140.714844 C 182.722656 140.511719 182.324219 140.511719 182.117188 140.808594 L 151.605469 179.804688 C 151.3125 180.203125 150.714844 180.296875 150.3125 180 C 149.90625 179.710938 149.816406 179.109375 150.109375 178.722656 L 179.640625 139.035156 C 179.835938 138.742188 179.746094 138.339844 179.539062 138.136719 C 179.238281 137.941406 178.851562 137.941406 178.648438 138.25 L 148.121094 177.144531 C 147.828125 177.535156 147.222656 177.636719 146.835938 177.328125 C 146.4375 177.042969 146.332031 176.449219 146.640625 176.050781 L 176.164062 136.367188 C 176.351562 136.070312 176.261719 135.671875 176.058594 135.488281 C 175.761719 135.285156 175.363281 135.285156 175.164062 135.578125 L 144.644531 174.476562 C 144.355469 174.863281 143.753906 174.96875 143.355469 174.679688 C 142.953125 174.371094 142.863281 173.78125 143.148438 173.378906 L 172.679688 133.800781 C 172.882812 133.511719 172.785156 133.113281 172.585938 132.910156 C 172.277344 132.710938 171.890625 132.710938 171.695312 133.015625 L 141.5625 171.90625 C 141.265625 172.304688 140.671875 172.398438 140.269531 172.101562 C 139.882812 171.804688 139.773438 171.222656 140.078125 170.820312 L 169.503906 131.230469 C 169.699219 130.933594 169.59375 130.546875 169.390625 130.351562 C 169.101562 130.148438 168.703125 130.148438 168.5 130.441406 L 138.09375 169.246094 C 137.785156 169.632812 137.199219 169.738281 136.800781 169.429688 C 136.394531 169.140625 136.300781 168.550781 136.597656 168.152344 L 166.011719 128.574219 C 166.214844 128.265625 166.125 127.878906 165.921875 127.679688 C 165.625 127.476562 165.226562 127.476562 165.027344 127.785156 L 134.609375 166.578125 C 134.3125 166.976562 133.710938 167.070312 133.308594 166.78125 C 132.921875 166.484375 132.816406 165.882812 133.113281 165.496094 L 162.542969 125.996094 C 162.746094 125.707031 162.632812 125.320312 162.4375 125.117188 C 162.144531 124.917969 161.742188 124.917969 161.539062 125.207031 L 131.132812 163.90625 C 130.828125 164.308594 130.238281 164.398438 129.839844 164.109375 C 129.4375 163.816406 129.347656 163.210938 129.636719 162.824219 L 159.058594 123.34375 C 159.257812 123.035156 159.257812 122.648438 158.96875 122.445312 C 158.671875 122.25 158.273438 122.25 158.070312 122.542969 L 127.738281 161.238281 C 127.449219 161.636719 126.859375 161.734375 126.460938 161.441406 C 126.058594 161.144531 125.96875 160.5625 126.257812 160.160156 L 155.589844 120.675781 C 155.785156 120.378906 155.679688 119.980469 155.476562 119.78125 C 155.1875 119.578125 154.78125 119.578125 154.585938 119.886719 L 124.269531 158.585938 C 123.972656 158.972656 123.378906 159.078125 122.976562 158.769531 C 122.578125 158.476562 122.476562 157.890625 122.773438 157.492188 L 152.097656 118.097656 C 152.300781 117.800781 152.210938 117.414062 152.007812 117.21875 C 151.699219 117.011719 151.3125 117.011719 151.113281 117.308594 L 120.785156 155.917969 C 120.492188 156.316406 119.886719 156.410156 119.5 156.113281 C 119.101562 155.824219 118.996094 155.222656 119.304688 154.835938 L 148.628906 115.4375 C 148.832031 115.148438 148.71875 114.75 148.523438 114.546875 C 148.226562 114.351562 147.828125 114.351562 147.625 114.652344 L 117.40625 153.246094 C 117.113281 153.648438 116.507812 153.738281 116.121094 153.445312 C 115.722656 153.15625 115.617188 152.550781 115.925781 152.164062 L 145.25 112.777344 C 145.441406 112.480469 145.339844 112.078125 145.144531 111.875 C 144.847656 111.691406 144.449219 111.691406 144.246094 111.988281 L 114.027344 150.578125 C 113.734375 150.976562 113.128906 151.070312 112.730469 150.78125 C 112.34375 150.484375 112.238281 149.894531 112.546875 149.492188 L 141.765625 110.210938 C 141.960938 109.902344 141.871094 109.515625 141.675781 109.316406 C 141.367188 109.113281 140.980469 109.113281 140.773438 109.410156 L 110.558594 147.917969 C 110.25 148.308594 109.660156 148.417969 109.257812 148.109375 C 108.859375 147.816406 108.765625 147.230469 109.0625 146.832031 L 138.296875 107.539062 C 138.480469 107.25 138.480469 106.84375 138.183594 106.648438 C 137.890625 106.464844 137.488281 106.464844 137.292969 106.753906 L 107.066406 145.257812 C 106.777344 145.65625 106.175781 145.75 105.777344 145.453125 C 105.386719 145.15625 105.285156 144.5625 105.585938 144.171875 L 134.804688 104.871094 C 135.007812 104.582031 135.007812 104.179688 134.714844 103.992188 C 134.40625 103.792969 134.003906 103.792969 133.820312 104.082031 L 103.6875 142.585938 C 103.402344 142.984375 102.796875 143.078125 102.398438 142.78125 C 102.007812 142.492188 101.90625 141.890625 102.195312 141.503906 L 131.425781 102.3125 C 131.628906 102.015625 131.519531 101.617188 131.320312 101.417969 C 131.027344 101.214844 130.625 101.214844 130.429688 101.523438 L 100.3125 139.914062 C 100.023438 140.316406 99.417969 140.40625 99.019531 140.113281 C 98.617188 139.824219 98.527344 139.234375 98.816406 138.832031 L 127.941406 99.640625 C 128.140625 99.347656 128.140625 98.945312 127.851562 98.75 C 127.554688 98.558594 127.15625 98.558594 126.953125 98.855469 L 96.828125 137.257812 C 96.53125 137.644531 95.933594 137.75 95.546875 137.460938 C 95.148438 137.152344 95.035156 136.5625 95.34375 136.164062 L 124.472656 96.972656 C 124.667969 96.683594 124.566406 96.296875 124.359375 96.09375 C 124.074219 95.894531 123.671875 95.894531 123.46875 96.183594 L 93.355469 134.589844 C 93.0625 134.988281 92.457031 135.085938 92.058594 134.792969 C 91.65625 134.496094 91.566406 133.898438 91.859375 133.511719 L 120.984375 94.414062 C 121.1875 94.117188 121.09375 93.71875 120.890625 93.515625 C 120.59375 93.332031 120.195312 93.332031 120 93.625 L 89.976562 131.925781 C 89.683594 132.324219 89.078125 132.417969 88.679688 132.121094 C 88.277344 131.828125 88.1875 131.230469 88.480469 130.84375 L 117.605469 91.742188 C 117.808594 91.449219 117.714844 91.046875 117.511719 90.863281 C 117.203125 90.660156 116.816406 90.660156 116.621094 90.957031 L 86.894531 129.851562 C 86.597656 130.238281 85.996094 130.351562 85.59375 130.054688 C 85.207031 129.746094 85.105469 129.15625 85.398438 128.757812 L 114.429688 89.769531 C 114.625 89.472656 114.625 89.074219 114.335938 88.890625 C 114.027344 88.683594 113.628906 88.683594 113.4375 88.980469 L 83.417969 127.292969 C 83.109375 127.679688 82.523438 127.785156 82.125 127.476562 C 81.726562 127.183594 81.632812 126.597656 81.921875 126.199219 L 110.945312 87.203125 C 111.140625 86.914062 111.050781 86.515625 110.847656 86.3125 C 110.558594 86.128906 110.15625 86.128906 109.953125 86.414062 L 79.933594 124.625 C 79.640625 125.011719 79.042969 125.117188 78.640625 124.820312 C 78.253906 124.519531 78.144531 123.929688 78.4375 123.527344 L 107.46875 84.539062 C 107.671875 84.242188 107.566406 83.84375 107.375 83.652344 C 107.066406 83.457031 106.667969 83.457031 106.484375 83.753906 L 76.554688 121.953125 C 76.261719 122.355469 75.664062 122.445312 75.261719 122.15625 C 74.855469 121.863281 74.765625 121.257812 75.058594 120.871094 L 103.984375 81.972656 C 104.1875 81.679688 104.089844 81.277344 103.894531 81.082031 C 103.597656 80.878906 103.195312 80.878906 102.992188 81.1875 L 73.070312 119.394531 C 72.777344 119.78125 72.171875 119.886719 71.785156 119.578125 C 71.386719 119.285156 71.28125 118.699219 71.589844 118.300781 L 100.515625 79.394531 C 100.710938 79.105469 100.605469 78.71875 100.410156 78.515625 C 100.113281 78.320312 99.714844 78.320312 99.511719 78.609375 L 69.59375 116.726562 C 69.304688 117.125 68.703125 117.21875 68.300781 116.921875 C 67.902344 116.625 67.808594 116.03125 68.097656 115.640625 L 97.03125 76.746094 C 97.226562 76.449219 97.136719 76.050781 96.933594 75.847656 C 96.644531 75.648438 96.238281 75.648438 96.039062 75.957031 L 66.214844 114.054688 C 65.914062 114.453125 65.324219 114.546875 64.921875 114.25 C 64.523438 113.960938 64.433594 113.359375 64.71875 112.972656 L 93.652344 74.167969 C 93.847656 73.871094 93.847656 73.484375 93.554688 73.289062 C 93.265625 73.085938 92.859375 73.085938 92.660156 73.378906 L 62.835938 111.488281 C 62.535156 111.875 61.945312 111.988281 61.546875 111.691406 C 61.144531 111.382812 61.054688 110.800781 61.339844 110.402344 L 90.175781 71.609375 C 90.378906 71.3125 90.273438 70.914062 90.070312 70.710938 C 89.773438 70.527344 89.375 70.527344 89.175781 70.816406 L 59.355469 108.824219 C 59.058594 109.226562 58.460938 109.316406 58.0625 109.023438 C 57.675781 108.726562 57.5625 108.128906 57.871094 107.742188 L 86.691406 68.9375 C 86.894531 68.644531 86.796875 68.242188 86.597656 68.054688 C 86.289062 67.855469 85.902344 67.855469 85.699219 68.152344 L 55.882812 106.15625 C 55.574219 106.554688 54.984375 106.648438 54.585938 106.351562 C 54.183594 106.058594 54.09375 105.472656 54.386719 105.074219 L 83.21875 66.375 C 83.417969 66.078125 83.3125 65.679688 83.109375 65.480469 C 82.914062 65.292969 82.421875 65.292969 82.21875 65.585938 L 52.503906 103.589844 C 52.195312 103.992188 51.605469 104.082031 51.207031 103.792969 C 50.804688 103.5 50.714844 102.894531 51.007812 102.507812 L 79.84375 63.816406 C 80.027344 63.507812 79.933594 63.121094 79.730469 62.917969 C 79.441406 62.71875 79.042969 62.71875 78.839844 63.015625 L 49.113281 100.921875 C 48.816406 101.320312 48.214844 101.417969 47.828125 101.125 C 47.425781 100.828125 47.320312 100.230469 47.628906 99.84375 L 76.351562 61.144531 C 76.554688 60.851562 76.464844 60.449219 76.261719 60.253906 C 75.953125 60.050781 75.566406 60.050781 75.367188 60.359375 L 45.929688 98.363281 C 45.644531 98.75 45.039062 98.855469 44.652344 98.558594 C 44.25 98.257812 44.148438 97.667969 44.449219 97.28125 L 73.175781 58.671875 C 73.378906 58.382812 73.269531 57.984375 73.070312 57.78125 C 72.882812 57.59375 72.375 57.59375 72.171875 57.882812 L 42.460938 95.796875 C 42.152344 96.183594 41.570312 96.296875 41.167969 95.988281 C 40.769531 95.691406 40.667969 95.109375 40.964844 94.703125 L 69.691406 56.113281 C 69.890625 55.804688 69.890625 55.417969 69.59375 55.222656 C 69.304688 55.015625 68.90625 55.015625 68.703125 55.3125 L 39.082031 93.125 C 38.773438 93.515625 38.191406 93.625 37.789062 93.332031 C 37.390625 93.023438 37.292969 92.4375 37.585938 92.039062 L 66.316406 53.441406 C 66.511719 53.148438 66.417969 52.746094 66.214844 52.550781 C 65.914062 52.347656 65.527344 52.347656 65.324219 52.65625 L 35.101562 91.152344 L 34.300781 90.554688 L 63.222656 52.058594 C 63.734375 51.46875 63.53125 50.574219 62.9375 50.085938 C 62.332031 49.585938 61.453125 49.695312 60.941406 50.28125 L 29.136719 86.515625 C 25.863281 90.863281 26.753906 96.972656 31.125 100.132812 L 164.925781 202.3125 Z M 179.140625 192.839844 " fill-opacity="1" fill-rule="nonzero"/><path fill="#ffffff" d="M 307.769531 305.574219 L 216.417969 225.117188 L 211.648438 238.144531 L 304.996094 309.429688 C 306.183594 310.308594 307.882812 309.921875 308.570312 308.53125 C 308.957031 307.546875 308.667969 306.269531 307.769531 305.574219 Z M 307.769531 305.574219 " fill-opacity="1" fill-rule="nonzero"/><path fill="#ffffff" d="M 107.269531 290.574219 C 110.648438 293.132812 114.921875 294.414062 119.199219 289.480469 C 121.984375 286.226562 121.882812 283.753906 121.289062 282.179688 C 122.28125 281.097656 123.285156 279.910156 124.175781 278.722656 C 126.550781 275.269531 128.140625 271.609375 128.945312 267.863281 C 130.042969 262.925781 131.320312 258.1875 133.015625 253.851562 C 144.246094 237.953125 162.234375 224.222656 178.851562 225.613281 C 180.039062 225.707031 181.226562 225.8125 182.425781 225.8125 C 179.140625 215.152344 178.851562 207.046875 180.234375 200.140625 L 140.375 226.597656 C 130.535156 233.113281 118.300781 234.597656 106.777344 231.539062 C 106.667969 231.539062 106.574219 231.433594 106.484375 231.433594 C 93.757812 228.285156 80.136719 233.511719 73.070312 244.46875 C 62.035156 261.644531 70.386719 284.449219 90.070312 290.371094 C 95.746094 292.253906 101.703125 292.152344 107.269531 290.574219 Z M 81.03125 252.859375 C 85.699219 243.078125 97.429688 238.839844 107.269531 243.480469 C 117.113281 248.125 121.382812 259.773438 116.710938 269.542969 C 112.039062 279.3125 100.3125 283.570312 90.46875 278.925781 C 80.628906 274.28125 76.351562 262.628906 81.03125 252.859375 Z M 81.03125 252.859375 " fill-opacity="1" fill-rule="nonzero"/><path fill="#ffffff" d="M 346.84375 89.769531 L 235.804688 163.324219 L 217.511719 213.175781 C 220.996094 209.921875 224.375 206.261719 228.246094 202.605469 C 241.175781 190.757812 253.996094 178.925781 266.917969 167.070312 C 293.855469 142.289062 320.792969 117.617188 347.632812 92.839844 C 347.925781 92.53125 348.328125 92.234375 348.636719 91.941406 C 349.921875 90.753906 348.328125 88.777344 346.84375 89.769531 Z M 346.84375 89.769531 " fill-opacity="1" fill-rule="nonzero"/><path fill="#ffffff" d="M 277.054688 31.519531 C 276.859375 31.917969 276.65625 32.320312 276.457031 32.707031 C 258.667969 64.492188 240.867188 96.386719 222.984375 128.171875 C 214.421875 143.375 205.882812 158.679688 197.4375 173.878906 C 188.1875 190.261719 177.449219 199.640625 186.703125 227.097656 C 191.964844 242.691406 182.816406 263.324219 169.996094 277.933594 C 166.125 280.605469 161.742188 282.964844 157.175781 285.234375 C 153.691406 286.914062 150.511719 289.386719 147.734375 292.4375 C 138.878906 302.320312 137.585938 316.726562 144.355469 328.082031 C 147.734375 333.71875 152.5 337.851562 157.871094 340.324219 C 164.332031 343.28125 169.59375 348.019531 173.171875 354.148438 C 176.164062 359.285156 180.53125 364.222656 186.703125 365.902344 C 190.773438 366.984375 197.734375 358.390625 192.964844 355.039062 C 191.867188 354.25 190.484375 353.265625 188.988281 352.171875 C 183.910156 348.519531 183.910156 341.011719 188.988281 337.359375 C 190.484375 336.277344 191.964844 334.996094 193.257812 333.613281 C 202.300781 324.242188 204.195312 309.816406 198.132812 298.269531 C 198.027344 298.167969 198.027344 298.074219 197.929688 297.984375 C 192.253906 287.609375 190.773438 275.46875 194.847656 264.40625 L 279.746094 32.808594 C 280.339844 31.132812 277.953125 30.035156 277.054688 31.519531 Z M 186.191406 300.34375 C 193.054688 308.734375 191.671875 321.082031 183.214844 327.886719 C 174.765625 334.703125 162.347656 333.316406 155.476562 324.917969 C 148.628906 316.542969 150.019531 304.195312 158.46875 297.378906 C 166.910156 290.574219 179.34375 291.945312 186.191406 300.34375 Z M 201.910156 210.90625 C 200.015625 213.070312 196.730469 213.378906 194.550781 211.496094 C 192.367188 209.613281 192.070312 206.359375 193.953125 204.195312 C 195.835938 202.023438 199.125 201.726562 201.308594 203.597656 C 203.394531 205.472656 203.703125 208.734375 201.910156 210.90625 Z M 201.910156 210.90625 " fill-opacity="1" fill-rule="nonzero"/></svg>