<svg xmlns="http://www.w3.org/2000/svg" xmlns:xlink="http://www.w3.org/1999/xlink" width="500" zoomAndPan="magnify" viewBox="0 0 375 374.999991" height="500" preserveAspectRatio="xMidYMid meet" version="1.0"><defs><clipPath id="ae56bf2651"><path d="M 86 84.59375 L 290 84.59375 L 290 290.09375 L 86 290.09375 Z M 86 84.59375 " clip-rule="nonzero"/></clipPath></defs><g clip-path="url(#ae56bf2651)"><path fill="#000000" d="M 131.429688 140.890625 C 131.433594 139.050781 131.527344 137.214844 131.707031 135.382812 C 131.890625 133.550781 132.160156 131.734375 132.519531 129.929688 C 132.882812 128.125 133.328125 126.34375 133.863281 124.582031 C 134.398438 122.820312 135.019531 121.089844 135.726562 119.390625 C 136.429688 117.691406 137.214844 116.03125 138.085938 114.40625 C 138.953125 112.785156 139.898438 111.210938 140.921875 109.679688 C 141.941406 108.148438 143.039062 106.671875 144.207031 105.25 C 145.375 103.828125 146.609375 102.464844 147.910156 101.164062 C 149.210938 99.863281 150.570312 98.628906 151.992188 97.460938 C 153.414062 96.292969 154.890625 95.199219 156.421875 94.175781 C 157.953125 93.152344 159.527344 92.207031 161.148438 91.339844 C 162.773438 90.472656 164.433594 89.683594 166.132812 88.980469 C 167.832031 88.273438 169.5625 87.652344 171.324219 87.117188 C 173.082031 86.582031 174.867188 86.132812 176.671875 85.773438 C 178.476562 85.414062 180.292969 85.140625 182.125 84.960938 C 183.957031 84.777344 185.792969 84.683594 187.632812 84.683594 C 261.914062 87.308594 262.058594 194.234375 187.820312 197.089844 C 185.976562 197.09375 184.136719 197.007812 182.300781 196.832031 C 180.464844 196.65625 178.644531 196.390625 176.835938 196.03125 C 175.023438 195.675781 173.238281 195.234375 171.472656 194.703125 C 169.707031 194.171875 167.96875 193.554688 166.265625 192.851562 C 164.558594 192.148438 162.894531 191.363281 161.265625 190.5 C 159.636719 189.632812 158.054688 188.6875 156.519531 187.667969 C 154.984375 186.644531 153.503906 185.550781 152.078125 184.382812 C 150.648438 183.214844 149.28125 181.980469 147.976562 180.679688 C 146.671875 179.378906 145.429688 178.015625 144.257812 176.59375 C 143.085938 175.167969 141.988281 173.691406 140.960938 172.160156 C 139.933594 170.628906 138.984375 169.050781 138.113281 167.425781 C 137.242188 165.800781 136.449219 164.136719 135.742188 162.433594 C 135.035156 160.730469 134.414062 158.996094 133.875 157.230469 C 133.335938 155.46875 132.886719 153.683594 132.527344 151.875 C 132.164062 150.066406 131.890625 148.246094 131.707031 146.410156 C 131.527344 144.574219 131.433594 142.734375 131.429688 140.890625 Z M 244.515625 197.117188 C 243.765625 196.65625 242.96875 196.3125 242.121094 196.085938 C 241.273438 195.855469 240.410156 195.753906 239.53125 195.777344 C 238.652344 195.796875 237.796875 195.941406 236.960938 196.210938 C 236.125 196.480469 235.347656 196.863281 234.621094 197.359375 C 232.949219 198.71875 231.21875 200.003906 229.433594 201.214844 C 227.648438 202.425781 225.816406 203.554688 223.933594 204.609375 C 222.050781 205.660156 220.125 206.628906 218.160156 207.515625 C 216.195312 208.402344 214.195312 209.203125 212.160156 209.917969 C 210.125 210.632812 208.0625 211.257812 205.976562 211.792969 C 203.886719 212.328125 201.777344 212.773438 199.652344 213.128906 C 197.523438 213.484375 195.386719 213.746094 193.238281 213.917969 C 191.085938 214.089844 188.933594 214.164062 186.777344 214.152344 C 184.621094 214.136719 182.46875 214.027344 180.324219 213.828125 C 178.175781 213.625 176.039062 213.332031 173.917969 212.949219 C 171.796875 212.566406 169.695312 212.089844 167.613281 211.523438 C 165.535156 210.957031 163.480469 210.304688 161.457031 209.5625 C 159.433594 208.820312 157.445312 207.992188 155.492188 207.078125 C 153.539062 206.164062 151.628906 205.167969 149.761719 204.085938 C 147.890625 203.007812 146.074219 201.851562 144.308594 200.617188 C 142.539062 199.382812 140.828125 198.074219 139.175781 196.691406 C 138.550781 196.402344 137.902344 196.195312 137.226562 196.066406 C 136.550781 195.9375 135.871094 195.890625 135.183594 195.925781 C 134.5 195.960938 133.828125 196.078125 133.171875 196.277344 C 132.511719 196.476562 131.890625 196.753906 131.296875 197.105469 C 127.839844 199.402344 124.539062 201.90625 121.390625 204.613281 C 118.238281 207.320312 115.269531 210.210938 112.476562 213.285156 C 109.683594 216.359375 107.09375 219.59375 104.699219 222.988281 C 102.304688 226.378906 100.128906 229.90625 98.171875 233.570312 C 96.210938 237.230469 94.488281 241 92.992188 244.875 C 91.5 248.75 90.25 252.703125 89.246094 256.730469 C 88.238281 260.757812 87.484375 264.835938 86.980469 268.957031 C 86.476562 273.078125 86.230469 277.214844 86.234375 281.367188 C 86.234375 281.9375 86.289062 282.496094 86.402344 283.054688 C 86.511719 283.609375 86.675781 284.148438 86.890625 284.675781 C 87.109375 285.199219 87.375 285.695312 87.6875 286.167969 C 88.003906 286.640625 88.363281 287.074219 88.761719 287.476562 C 89.164062 287.878906 89.601562 288.234375 90.070312 288.550781 C 90.542969 288.863281 91.042969 289.128906 91.566406 289.347656 C 92.089844 289.5625 92.628906 289.726562 93.183594 289.839844 C 93.742188 289.949219 94.304688 290.003906 94.871094 290.003906 L 280.679688 290.003906 C 281.246094 290.003906 281.808594 289.949219 282.363281 289.839844 C 282.921875 289.726562 283.460938 289.566406 283.984375 289.347656 C 284.507812 289.128906 285.007812 288.863281 285.476562 288.550781 C 285.949219 288.234375 286.386719 287.878906 286.785156 287.476562 C 287.1875 287.074219 287.546875 286.640625 287.859375 286.167969 C 288.175781 285.695312 288.441406 285.199219 288.65625 284.675781 C 288.875 284.148438 289.039062 283.609375 289.148438 283.054688 C 289.257812 282.496094 289.3125 281.9375 289.3125 281.367188 C 289.3125 277.226562 289.054688 273.097656 288.546875 268.984375 C 288.042969 264.875 287.285156 260.808594 286.28125 256.789062 C 285.277344 252.765625 284.035156 248.824219 282.546875 244.957031 C 281.0625 241.085938 279.347656 237.324219 277.402344 233.667969 C 275.457031 230.007812 273.296875 226.480469 270.917969 223.085938 C 268.542969 219.691406 265.96875 216.453125 263.199219 213.375 C 260.425781 210.292969 257.476562 207.394531 254.351562 204.675781 C 251.226562 201.953125 247.949219 199.433594 244.515625 197.117188 Z M 244.515625 197.117188 " fill-opacity="1" fill-rule="nonzero"/></g></svg>